SplineFontDB: 3.0
FontName: PuraleckaNarrow-Bold
FullName: Puralecka Narrow Bold
FamilyName: Puralecka Narrow
Weight: Bold
Copyright: Copyright (c) 2012-2014, Omnibus-Type (www.omnibus-type.com omnibus.type@gmail.com) with Reserved Font Name 'Puralecka'
Version: 001.004
ItalicAngle: 0
UnderlinePosition: -129.024
UnderlineWidth: 129.024
Ascent: 1638
Descent: 410
InvalidEm: 0
sfntRevision: 0x00010106
LayerCount: 2
Layer: 0 1 "Back" 1
Layer: 1 1 "Fore" 0
XUID: [1021 191 1600663927 10614413]
FSType: 8
OS2Version: 3
OS2_WeightWidthSlopeOnly: 0
OS2_UseTypoMetrics: 1
CreationTime: 1417528913
ModificationTime: 1417561984
PfmFamily: 33
TTFWeight: 700
TTFWidth: 5
LineGap: 0
VLineGap: 0
Panose: 2 11 8 6 2 2 2 2 11 4
OS2TypoAscent: 2302
OS2TypoAOffset: 0
OS2TypoDescent: -1044
OS2TypoDOffset: 0
OS2TypoLinegap: 0
OS2WinAscent: 2302
OS2WinAOffset: 0
OS2WinDescent: 1044
OS2WinDOffset: 0
HheadAscent: 2302
HheadAOffset: 0
HheadDescent: -1044
HheadDOffset: 0
OS2SubXSize: 1681
OS2SubYSize: 1552
OS2SubXOff: 0
OS2SubYOff: 195
OS2SupXSize: 1681
OS2SupYSize: 1552
OS2SupXOff: 0
OS2SupYOff: 905
OS2StrikeYSize: 129
OS2StrikeYPos: 721
OS2CapHeight: 0
OS2XHeight: 0
OS2Vendor: 'OMNI'
OS2CodePages: 20000093.00000000
OS2UnicodeRanges: 00008007.00000000.00000000.00000000
Lookup: 1 0 0 "'aalt' Access All Alternates lookup 0" { "'aalt' Access All Alternates lookup 0 subtable"  } ['aalt' ('DFLT' <'dflt' > 'dev2' <'MAR ' 'NEP ' 'dflt' > 'deva' <'MAR ' 'NEP ' 'dflt' > 'grek' <'dflt' > 'latn' <'CAT ' 'MOL ' 'ROM ' 'dflt' > ) ]
Lookup: 3 0 0 "'aalt' Access All Alternates lookup 1" { "'aalt' Access All Alternates lookup 1 subtable"  } ['aalt' ('DFLT' <'dflt' > 'dev2' <'MAR ' 'NEP ' 'dflt' > 'deva' <'MAR ' 'NEP ' 'dflt' > 'grek' <'dflt' > 'latn' <'CAT ' 'MOL ' 'ROM ' 'dflt' > ) ]
Lookup: 4 0 0 "Ligature Substitution lookup 2" { "Ligature Substitution lookup 2 subtable"  } []
Lookup: 4 0 0 "Ligature Substitution lookup 3" { "Ligature Substitution lookup 3 subtable"  } []

StartChar: .notdef
Encoding: 65536 -1 0
Width: 1142
VWidth: 2586
Flags: W
HStem: 0 115<184 961> 1487 115<184 961>
VStem: 0 115<217 1384> 1030 113<217 1384>
LayerCount: 2
Back
Fore
SplineSet
0 1602 m 1,0,-1
 1143 1602 l 1,1,-1
 1143 0 l 1,2,-1
 0 0 l 1,3,-1
 0 1602 l 1,0,-1
961 1487 m 1,4,-1
 184 1487 l 1,5,-1
 571 903 l 1,6,-1
 961 1487 l 1,4,-1
115 1384 m 1,7,-1
 115 217 l 1,8,-1
 502 799 l 1,9,-1
 115 1384 l 1,7,-1
1030 1384 m 1,10,-1
 641 799 l 1,11,-1
 1030 217 l 1,12,-1
 1030 1384 l 1,10,-1
571 698 m 1,13,-1
 184 115 l 1,14,-1
 961 115 l 1,15,-1
 571 698 l 1,13,-1
EndSplineSet
EndChar

StartChar: A
Encoding: 65 65 2
Width: 1351
VWidth: 2586
GlyphClass: 2
Flags: W
HStem: 0 43G<0 297 1040 1350> 307 262<459 877> 1526 41G<491 859>
AnchorPoint: "Anchor-1" 0 0 basechar 0
AnchorPoint: "Anchor-0" 678 1567 basechar 0
LayerCount: 2
Back
Fore
SplineSet
1053 0 m 1,0,-1
 956 307 l 1,1,-1
 377 307 l 1,2,-1
 285 0 l 1,3,-1
 0 0 l 1,4,-1
 504 1567 l 1,5,-1
 846 1567 l 1,6,-1
 1350 0 l 1,7,-1
 1053 0 l 1,0,-1
682 1303 m 1,8,-1
 459 569 l 1,9,-1
 877 569 l 1,10,-1
 719 1094 l 1,11,12
 707 1130 707 1130 697.5 1182 c 128,-1,13
 688 1234 688 1234 685 1268.5 c 2,14,-1
 682 1303 l 1,8,-1
EndSplineSet
Substitution2: "Single Substitution lookup 40 subtable" ordfeminine
Substitution2: "'aalt' Access All Alternates lookup 0 subtable" ordfeminine
Position2: "'cpsp' Capital Spacing lookup 0 subtable" dx=12 dy=0 dh=27 dv=0
EndChar

StartChar: Aacute
Encoding: 193 193 3
Width: 1351
VWidth: 2586
GlyphClass: 2
Flags: W
HStem: 0 43G<0 297 1040 1350> 307 262<459 877> 1526 41G<491 859>
LayerCount: 2
Back
Fore
SplineSet
745 1718 m 1,0,-1
 520 1718 l 1,1,-1
 717 2019 l 1,2,-1
 991 2019 l 1,3,-1
 745 1718 l 1,0,-1
1053 0 m 1,4,-1
 956 307 l 1,5,-1
 377 307 l 1,6,-1
 285 0 l 1,7,-1
 0 0 l 1,8,-1
 504 1567 l 1,9,-1
 846 1567 l 1,10,-1
 1350 0 l 1,11,-1
 1053 0 l 1,4,-1
682 1303 m 1,12,-1
 459 569 l 1,13,-1
 877 569 l 1,14,-1
 719 1094 l 1,15,16
 707 1130 707 1130 697.5 1182 c 128,-1,17
 688 1234 688 1234 685 1268.5 c 2,18,-1
 682 1303 l 1,12,-1
EndSplineSet
Position2: "'cpsp' Capital Spacing lookup 0 subtable" dx=12 dy=0 dh=27 dv=0
EndChar

StartChar: Abreve
Encoding: 258 258 4
Width: 1351
VWidth: 2586
GlyphClass: 2
Flags: W
HStem: 0 43G<0 297 1040 1350> 307 262<459 877> 1526 41G<491 859> 1774 170<562 796>
LayerCount: 2
Back
Fore
SplineSet
983 2019 m 1,0,1
 983 1925 983 1925 896.5 1849.5 c 128,-1,2
 810 1774 810 1774 676 1774 c 128,-1,3
 542 1774 542 1774 457.5 1849.5 c 128,-1,4
 373 1925 373 1925 373 2019 c 1,5,-1
 543 2019 l 1,6,7
 548 1992 548 1992 585.5 1968 c 128,-1,8
 623 1944 623 1944 678 1944 c 0,9,10
 733 1944 733 1944 772 1968 c 128,-1,11
 811 1992 811 1992 813 2019 c 1,12,-1
 983 2019 l 1,0,1
1053 0 m 1,13,-1
 956 307 l 1,14,-1
 377 307 l 1,15,-1
 285 0 l 1,16,-1
 0 0 l 1,17,-1
 504 1567 l 1,18,-1
 846 1567 l 1,19,-1
 1350 0 l 1,20,-1
 1053 0 l 1,13,-1
682 1303 m 1,21,-1
 459 569 l 1,22,-1
 877 569 l 1,23,-1
 719 1094 l 1,24,25
 707 1130 707 1130 697.5 1182 c 128,-1,26
 688 1234 688 1234 685 1268.5 c 2,27,-1
 682 1303 l 1,21,-1
EndSplineSet
Position2: "'cpsp' Capital Spacing lookup 0 subtable" dx=12 dy=0 dh=27 dv=0
EndChar

StartChar: Acircumflex
Encoding: 194 194 5
Width: 1351
VWidth: 2586
GlyphClass: 2
Flags: W
HStem: 0 43G<0 297 1040 1350> 307 262<459 877> 1526 41G<491 859>
LayerCount: 2
Back
Fore
SplineSet
778 1710 m 1,0,-1
 678 1868 l 1,1,-1
 573 1710 l 1,2,-1
 371 1710 l 1,3,-1
 567 2019 l 1,4,-1
 791 2019 l 1,5,-1
 985 1710 l 1,6,-1
 778 1710 l 1,0,-1
1053 0 m 1,7,-1
 956 307 l 1,8,-1
 377 307 l 1,9,-1
 285 0 l 1,10,-1
 0 0 l 1,11,-1
 504 1567 l 1,12,-1
 846 1567 l 1,13,-1
 1350 0 l 1,14,-1
 1053 0 l 1,7,-1
682 1303 m 1,15,-1
 459 569 l 1,16,-1
 877 569 l 1,17,-1
 719 1094 l 1,18,19
 707 1130 707 1130 697.5 1182 c 128,-1,20
 688 1234 688 1234 685 1268.5 c 2,21,-1
 682 1303 l 1,15,-1
EndSplineSet
Position2: "'cpsp' Capital Spacing lookup 0 subtable" dx=12 dy=0 dh=27 dv=0
EndChar

StartChar: Adieresis
Encoding: 196 196 6
Width: 1351
VWidth: 2586
GlyphClass: 2
Flags: W
HStem: 0 43G<0 297 1040 1350> 307 262<459 877> 1526 41G<491 859> 1769 250<365 592 760 993>
VStem: 365 227<1769 2019> 760 233<1769 2019>
LayerCount: 2
Back
Fore
SplineSet
365 1769 m 1,0,-1
 365 2019 l 1,1,-1
 592 2019 l 1,2,-1
 592 1769 l 1,3,-1
 365 1769 l 1,0,-1
760 1769 m 1,4,-1
 760 2019 l 1,5,-1
 993 2019 l 1,6,-1
 993 1769 l 1,7,-1
 760 1769 l 1,4,-1
1053 0 m 1,8,-1
 956 307 l 1,9,-1
 377 307 l 1,10,-1
 285 0 l 1,11,-1
 0 0 l 1,12,-1
 504 1567 l 1,13,-1
 846 1567 l 1,14,-1
 1350 0 l 1,15,-1
 1053 0 l 1,8,-1
682 1303 m 1,16,-1
 459 569 l 1,17,-1
 877 569 l 1,18,-1
 719 1094 l 1,19,20
 707 1130 707 1130 697.5 1182 c 128,-1,21
 688 1234 688 1234 685 1268.5 c 2,22,-1
 682 1303 l 1,16,-1
EndSplineSet
Position2: "'cpsp' Capital Spacing lookup 0 subtable" dx=12 dy=0 dh=27 dv=0
EndChar

StartChar: Agrave
Encoding: 192 192 7
Width: 1351
VWidth: 2586
GlyphClass: 2
Flags: W
HStem: 0 43G<0 297 1040 1350> 307 262<459 877> 1526 41G<491 859>
LayerCount: 2
Back
Fore
SplineSet
608 1718 m 1,0,-1
 359 2017 l 1,1,-1
 639 2017 l 1,2,-1
 836 1718 l 1,3,-1
 608 1718 l 1,0,-1
1053 0 m 1,4,-1
 956 307 l 1,5,-1
 377 307 l 1,6,-1
 285 0 l 1,7,-1
 0 0 l 1,8,-1
 504 1567 l 1,9,-1
 846 1567 l 1,10,-1
 1350 0 l 1,11,-1
 1053 0 l 1,4,-1
682 1303 m 1,12,-1
 459 569 l 1,13,-1
 877 569 l 1,14,-1
 719 1094 l 1,15,16
 707 1130 707 1130 697.5 1182 c 128,-1,17
 688 1234 688 1234 685 1268.5 c 2,18,-1
 682 1303 l 1,12,-1
EndSplineSet
Position2: "'cpsp' Capital Spacing lookup 0 subtable" dx=12 dy=0 dh=27 dv=0
EndChar

StartChar: Amacron
Encoding: 256 256 8
Width: 1351
VWidth: 2586
GlyphClass: 2
Flags: W
HStem: 0 43G<0 297 1040 1350> 307 262<459 877> 1526 41G<491 859> 1735 201<385 971>
LayerCount: 2
Back
Fore
SplineSet
385 1735 m 1,0,-1
 385 1935 l 1,1,-1
 971 1935 l 1,2,-1
 971 1735 l 1,3,-1
 385 1735 l 1,0,-1
1053 0 m 1,4,-1
 956 307 l 1,5,-1
 377 307 l 1,6,-1
 285 0 l 1,7,-1
 0 0 l 1,8,-1
 504 1567 l 1,9,-1
 846 1567 l 1,10,-1
 1350 0 l 1,11,-1
 1053 0 l 1,4,-1
682 1303 m 1,12,-1
 459 569 l 1,13,-1
 877 569 l 1,14,-1
 719 1094 l 1,15,16
 707 1130 707 1130 697.5 1182 c 128,-1,17
 688 1234 688 1234 685 1268.5 c 2,18,-1
 682 1303 l 1,12,-1
EndSplineSet
Position2: "'cpsp' Capital Spacing lookup 0 subtable" dx=12 dy=0 dh=27 dv=0
EndChar

StartChar: Aogonek
Encoding: 260 260 9
Width: 1351
VWidth: 2586
GlyphClass: 2
Flags: W
HStem: -434 158<1300 1433> -403 127<1300 1436> 0 43G<0 297> 307 262<459 877> 1526 41G<491 859>
VStem: 1059 223<-258 -59>
LayerCount: 2
Back
Fore
SplineSet
1436 -276 m 1,0,-1
 1436 -403 l 1,1,2
 1357 -434 1357 -434 1304.5 -434 c 0,3,4
 1252 -434 1252 -434 1221.5 -428 c 128,-1,5
 1191 -422 1191 -422 1160.5 -406.5 c 128,-1,6
 1130 -391 1130 -391 1108 -368 c 128,-1,7
 1086 -345 1086 -345 1072.5 -309 c 128,-1,8
 1059 -273 1059 -273 1059 -227 c 0,9,10
 1059 -107 1059 -107 1143 0 c 1,11,-1
 1053 0 l 1,12,-1
 956 307 l 1,13,-1
 377 307 l 1,14,-1
 285 0 l 1,15,-1
 0 0 l 1,16,-1
 504 1567 l 1,17,-1
 846 1567 l 1,18,-1
 1350 0 l 1,19,20
 1324 -26 1324 -26 1303 -69 c 128,-1,21
 1282 -112 1282 -112 1282 -160.5 c 0,22,23
 1282 -209 1282 -209 1307.5 -242.5 c 128,-1,24
 1333 -276 1333 -276 1386 -276 c 2,25,-1
 1436 -276 l 1,0,-1
877 569 m 1,26,-1
 656 1302 l 1,27,28
 641 1166 641 1166 618 1094 c 1,29,-1
 459 569 l 1,30,-1
 877 569 l 1,26,-1
EndSplineSet
Position2: "'cpsp' Capital Spacing lookup 0 subtable" dx=12 dy=0 dh=27 dv=0
EndChar

StartChar: Aring
Encoding: 197 197 10
Width: 1351
VWidth: 2586
GlyphClass: 2
Flags: W
HStem: 0 43G<0 297 1040 1350> 307 262<459 877> 1526 41G<491 859> 1649 115<592 760> 1974 113<592 760>
VStem: 459 113<1784 1954> 780 117<1782 1954>
LayerCount: 2
Back
Fore
SplineSet
523 2023 m 128,-1,1
 587 2087 587 2087 677.5 2087 c 128,-1,2
 768 2087 768 2087 832.5 2022.5 c 128,-1,3
 897 1958 897 1958 897 1867.5 c 128,-1,4
 897 1777 897 1777 833 1713 c 128,-1,5
 769 1649 769 1649 678.5 1649 c 128,-1,6
 588 1649 588 1649 523.5 1712 c 128,-1,7
 459 1775 459 1775 459 1867 c 128,-1,0
 459 1959 459 1959 523 2023 c 128,-1,1
750.5 1943 m 128,-1,9
 721 1974 721 1974 677.5 1974 c 128,-1,10
 634 1974 634 1974 602.5 1943 c 128,-1,11
 571 1912 571 1912 571 1868 c 128,-1,12
 571 1824 571 1824 602.5 1793.5 c 128,-1,13
 634 1763 634 1763 677.5 1763 c 128,-1,14
 721 1763 721 1763 750.5 1793.5 c 128,-1,15
 780 1824 780 1824 780 1868 c 128,-1,8
 780 1912 780 1912 750.5 1943 c 128,-1,9
1053 0 m 1,16,-1
 956 307 l 1,17,-1
 377 307 l 1,18,-1
 285 0 l 1,19,-1
 0 0 l 1,20,-1
 504 1567 l 1,21,-1
 846 1567 l 1,22,-1
 1350 0 l 1,23,-1
 1053 0 l 1,16,-1
682 1303 m 1,24,-1
 459 569 l 1,25,-1
 877 569 l 1,26,-1
 719 1094 l 1,27,28
 707 1130 707 1130 697.5 1182 c 128,-1,29
 688 1234 688 1234 685 1268.5 c 2,30,-1
 682 1303 l 1,24,-1
EndSplineSet
Position2: "'cpsp' Capital Spacing lookup 0 subtable" dx=12 dy=0 dh=27 dv=0
EndChar

StartChar: Aringacute
Encoding: 506 506 11
Width: 1351
VWidth: 2586
GlyphClass: 2
Flags: W
HStem: 0 43G<0 297 1040 1350> 307 262<459 877> 1763 115<590 763>
VStem: 780 117<1580 1747>
LayerCount: 2
Back
Fore
SplineSet
1017 2187 m 1,0,-1
 805 1939 l 1,1,-1
 580 1939 l 1,2,-1
 739 2187 l 1,3,-1
 1017 2187 l 1,0,-1
832.5 1815 m 128,-1,5
 897 1752 897 1752 897 1678 c 128,-1,6
 897 1604 897 1604 856 1538 c 1,7,-1
 1350 0 l 1,8,-1
 1053 0 l 1,9,-1
 956 307 l 1,10,-1
 377 307 l 1,11,-1
 285 0 l 1,12,-1
 0 0 l 1,13,-1
 496 1542 l 1,14,15
 460 1593 460 1593 459.5 1654.5 c 128,-1,16
 459 1716 459 1716 486 1765.5 c 128,-1,17
 513 1815 513 1815 565 1848 c 128,-1,18
 617 1881 617 1881 678 1878 c 0,19,4
 768 1878 768 1878 832.5 1815 c 128,-1,5
750.5 1735 m 128,-1,21
 721 1763 721 1763 677 1763 c 128,-1,22
 633 1763 633 1763 602 1735 c 128,-1,23
 571 1707 571 1707 571 1664 c 128,-1,24
 571 1621 571 1621 602 1592 c 128,-1,25
 633 1563 633 1563 677 1563 c 128,-1,26
 721 1563 721 1563 750.5 1592 c 128,-1,27
 780 1621 780 1621 780 1664 c 128,-1,20
 780 1707 780 1707 750.5 1735 c 128,-1,21
682 1303 m 1,28,-1
 459 569 l 1,29,-1
 877 569 l 1,30,-1
 719 1094 l 1,31,32
 707 1130 707 1130 697.5 1182 c 128,-1,33
 688 1234 688 1234 685 1268.5 c 2,34,-1
 682 1303 l 1,28,-1
EndSplineSet
Position2: "'cpsp' Capital Spacing lookup 0 subtable" dx=12 dy=0 dh=27 dv=0
EndChar

StartChar: Atilde
Encoding: 195 195 12
Width: 1351
VWidth: 2586
GlyphClass: 2
Flags: W
HStem: 0 43G<0 297 1040 1350> 307 262<459 877> 1526 41G<491 859> 1741 195<673 897> 1823 197<456 678>
VStem: 293 150<1741 1813> 911 150<1946 2019>
LayerCount: 2
Back
Fore
SplineSet
1061 2019 m 1,0,1
 1061 1969 1061 1969 1048 1921.5 c 128,-1,2
 1035 1874 1035 1874 1009 1832.5 c 128,-1,3
 983 1791 983 1791 938 1766 c 128,-1,4
 893 1741 893 1741 836 1740.5 c 0,5,6
 779 1740 779 1740 681 1781 c 128,-1,7
 583 1822 583 1822 532 1823 c 0,8,9
 455 1823 455 1823 442 1741 c 1,10,-1
 293 1741 l 1,11,12
 293 1790 293 1790 306 1837.5 c 128,-1,13
 319 1885 319 1885 345 1926.5 c 128,-1,14
 371 1968 371 1968 416 1993.5 c 128,-1,15
 461 2019 461 2019 517.5 2019.5 c 0,16,17
 574 2020 574 2020 671.5 1978 c 128,-1,18
 769 1936 769 1936 813.5 1935.5 c 0,19,20
 858 1935 858 1935 881 1953.5 c 128,-1,21
 904 1972 904 1972 911 2019 c 1,22,-1
 1061 2019 l 1,0,1
1053 0 m 1,23,-1
 956 307 l 1,24,-1
 377 307 l 1,25,-1
 285 0 l 1,26,-1
 0 0 l 1,27,-1
 504 1567 l 1,28,-1
 846 1567 l 1,29,-1
 1350 0 l 1,30,-1
 1053 0 l 1,23,-1
682 1303 m 1,31,-1
 459 569 l 1,32,-1
 877 569 l 1,33,-1
 719 1094 l 1,34,35
 707 1130 707 1130 697.5 1182 c 128,-1,36
 688 1234 688 1234 685 1268.5 c 2,37,-1
 682 1303 l 1,31,-1
EndSplineSet
Position2: "'cpsp' Capital Spacing lookup 0 subtable" dx=12 dy=0 dh=27 dv=0
EndChar

StartChar: AE
Encoding: 198 198 13
Width: 1873
VWidth: 2586
GlyphClass: 2
Flags: W
HStem: 0 262<1257 1778> 307 262<463 885> 672 262<1157 1663> 1309 258<1001 1763>
AnchorPoint: "Anchor-1" 0 0 basechar 0
AnchorPoint: "Anchor-0" 936 1567 basechar 0
LayerCount: 2
Back
Fore
SplineSet
1663 934 m 1,0,-1
 1663 672 l 1,1,-1
 1157 672 l 1,2,-1
 1257 262 l 1,3,-1
 1778 262 l 1,4,-1
 1778 0 l 1,5,-1
 1022 0 l 1,6,-1
 946 307 l 1,7,-1
 367 307 l 1,8,-1
 254 0 l 1,9,-1
 -18 0 l 1,10,-1
 582 1567 l 1,11,-1
 1763 1567 l 1,12,-1
 1763 1309 l 1,13,-1
 1001 1309 l 1,14,-1
 1094 934 l 1,15,-1
 1663 934 l 1,0,-1
724 1255 m 1,16,-1
 463 569 l 1,17,-1
 885 569 l 1,18,-1
 724 1255 l 1,16,-1
EndSplineSet
Position2: "'cpsp' Capital Spacing lookup 0 subtable" dx=12 dy=0 dh=27 dv=0
EndChar

StartChar: AEacute
Encoding: 508 508 14
Width: 1873
VWidth: 2586
GlyphClass: 2
Flags: W
HStem: 0 262<1257 1778> 307 262<463 885> 672 262<1157 1663> 1309 258<1001 1763>
LayerCount: 2
Back
Fore
SplineSet
1254 2019 m 1,0,-1
 1006 1718 l 1,1,-1
 778 1718 l 1,2,-1
 975 2019 l 1,3,-1
 1254 2019 l 1,0,-1
1663 934 m 1,4,-1
 1663 672 l 1,5,-1
 1157 672 l 1,6,-1
 1257 262 l 1,7,-1
 1778 262 l 1,8,-1
 1778 0 l 1,9,-1
 1022 0 l 1,10,-1
 946 307 l 1,11,-1
 367 307 l 1,12,-1
 254 0 l 1,13,-1
 -18 0 l 1,14,-1
 582 1567 l 1,15,-1
 1763 1567 l 1,16,-1
 1763 1309 l 1,17,-1
 1001 1309 l 1,18,-1
 1094 934 l 1,19,-1
 1663 934 l 1,4,-1
724 1252 m 1,20,-1
 463 569 l 1,21,-1
 885 569 l 1,22,-1
 724 1252 l 1,20,-1
EndSplineSet
Position2: "'cpsp' Capital Spacing lookup 0 subtable" dx=12 dy=0 dh=27 dv=0
EndChar

StartChar: B
Encoding: 66 66 15
Width: 1351
VWidth: 2586
GlyphClass: 2
Flags: W
HStem: 0 262<430 905> 676 258<430 870> 1309 258<430 880>
VStem: 137 293<262 676 934 1309> 938 301<999 1253> 975 301<328 598>
LayerCount: 2
Back
Fore
SplineSet
813 1567 m 2,0,1
 999 1567 999 1567 1119 1459 c 128,-1,2
 1239 1351 1239 1351 1239 1180 c 0,3,4
 1239 1050 1239 1050 1172 955.5 c 128,-1,5
 1105 861 1105 861 999 823 c 1,6,-1
 999 815 l 1,7,8
 1120 777 1120 777 1198 672 c 128,-1,9
 1276 567 1276 567 1276 430.5 c 0,10,11
 1276 294 1276 294 1212.5 196.5 c 128,-1,12
 1149 99 1149 99 1044.5 49.5 c 128,-1,13
 940 0 940 0 813 0 c 2,14,-1
 137 0 l 1,15,-1
 137 1567 l 1,16,-1
 813 1567 l 2,0,1
731 934 m 2,17,18
 831 934 831 934 884.5 989 c 128,-1,19
 938 1044 938 1044 938 1130 c 0,20,21
 938 1216 938 1216 886.5 1262.5 c 128,-1,22
 835 1309 835 1309 745 1309 c 2,23,-1
 430 1309 l 1,24,-1
 430 934 l 1,25,-1
 731 934 l 2,17,18
764 262 m 2,26,27
 858 262 858 262 916.5 313.5 c 128,-1,28
 975 365 975 365 975 460 c 0,29,30
 975 555 975 555 918 615.5 c 128,-1,31
 861 676 861 676 750 676 c 2,32,-1
 430 676 l 1,33,-1
 430 262 l 1,34,-1
 764 262 l 2,26,27
EndSplineSet
Position2: "'cpsp' Capital Spacing lookup 0 subtable" dx=12 dy=0 dh=27 dv=0
EndChar

StartChar: C
Encoding: 67 67 16
Width: 1351
VWidth: 2586
GlyphClass: 2
Flags: W
HStem: -29 254<555 866> 1346 250<544 849>
VStem: 78 303<443 1125> 977 301<985 1199> 993 285<372 582>
AnchorPoint: "Anchor-1" 678 0 basechar 0
AnchorPoint: "Anchor-0" 678 1567 basechar 0
LayerCount: 2
Back
Fore
SplineSet
700 1595 m 0,0,1
 826 1595 826 1595 929.5 1558.5 c 128,-1,2
 1033 1522 1033 1522 1111.5 1449.5 c 128,-1,3
 1190 1377 1190 1377 1234 1258.5 c 128,-1,4
 1278 1140 1278 1140 1278 985 c 1,5,-1
 977 985 l 1,6,7
 977 1163 977 1163 903 1254.5 c 128,-1,8
 829 1346 829 1346 700 1346 c 0,9,10
 541 1346 541 1346 461 1213.5 c 128,-1,11
 381 1081 381 1081 381 840 c 2,12,-1
 381 727 l 2,13,14
 381 487 381 487 463.5 356 c 128,-1,15
 546 225 546 225 711 225 c 0,16,17
 842 225 842 225 917.5 315 c 128,-1,18
 993 405 993 405 993 582 c 1,19,-1
 1278 582 l 1,20,21
 1278 430 1278 430 1235 312.5 c 128,-1,22
 1192 195 1192 195 1114 121 c 128,-1,23
 1036 47 1036 47 931.5 9 c 128,-1,24
 827 -29 827 -29 700 -29 c 0,25,26
 400 -29 400 -29 239 173.5 c 128,-1,27
 78 376 78 376 78 783.5 c 0,28,29
 78 1191 78 1191 238.5 1393 c 128,-1,30
 399 1595 399 1595 700 1595 c 0,0,1
EndSplineSet
Position2: "'cpsp' Capital Spacing lookup 0 subtable" dx=12 dy=0 dh=27 dv=0
EndChar

StartChar: Cacute
Encoding: 262 262 17
Width: 1351
VWidth: 2586
GlyphClass: 2
Flags: W
HStem: -29 254<555 866> 1346 250<544 849>
VStem: 78 303<443 1125> 977 301<985 1199> 993 285<372 582>
LayerCount: 2
Back
Fore
SplineSet
770 1718 m 1,0,-1
 543 1718 l 1,1,-1
 739 2019 l 1,2,-1
 1014 2019 l 1,3,-1
 770 1718 l 1,0,-1
700 1595 m 0,4,5
 826 1595 826 1595 929.5 1558.5 c 128,-1,6
 1033 1522 1033 1522 1111.5 1449.5 c 128,-1,7
 1190 1377 1190 1377 1234 1258.5 c 128,-1,8
 1278 1140 1278 1140 1278 985 c 1,9,-1
 977 985 l 1,10,11
 977 1163 977 1163 903 1254.5 c 128,-1,12
 829 1346 829 1346 700 1346 c 0,13,14
 541 1346 541 1346 461 1213.5 c 128,-1,15
 381 1081 381 1081 381 840 c 2,16,-1
 381 727 l 2,17,18
 381 487 381 487 463.5 356 c 128,-1,19
 546 225 546 225 711 225 c 0,20,21
 842 225 842 225 917.5 315 c 128,-1,22
 993 405 993 405 993 582 c 1,23,-1
 1278 582 l 1,24,25
 1278 430 1278 430 1235 312.5 c 128,-1,26
 1192 195 1192 195 1114 121 c 128,-1,27
 1036 47 1036 47 931.5 9 c 128,-1,28
 827 -29 827 -29 700 -29 c 0,29,30
 400 -29 400 -29 239 173.5 c 128,-1,31
 78 376 78 376 78 783.5 c 0,32,33
 78 1191 78 1191 238.5 1393 c 128,-1,34
 399 1595 399 1595 700 1595 c 0,4,5
EndSplineSet
Position2: "'cpsp' Capital Spacing lookup 0 subtable" dx=12 dy=0 dh=27 dv=0
EndChar

StartChar: Ccaron
Encoding: 268 268 18
Width: 1351
VWidth: 2586
GlyphClass: 2
Flags: W
HStem: -29 254<555 866> 1346 250<544 849>
VStem: 78 303<443 1125> 977 301<985 1199> 993 285<372 582>
LayerCount: 2
Back
Fore
SplineSet
393 2019 m 1,0,-1
 600 2019 l 1,1,-1
 700 1862 l 1,2,-1
 805 2019 l 1,3,-1
 1010 2019 l 1,4,-1
 815 1710 l 1,5,-1
 590 1710 l 1,6,-1
 393 2019 l 1,0,-1
700 1595 m 0,7,8
 826 1595 826 1595 929.5 1558.5 c 128,-1,9
 1033 1522 1033 1522 1111.5 1449.5 c 128,-1,10
 1190 1377 1190 1377 1234 1258.5 c 128,-1,11
 1278 1140 1278 1140 1278 985 c 1,12,-1
 977 985 l 1,13,14
 977 1163 977 1163 903 1254.5 c 128,-1,15
 829 1346 829 1346 700 1346 c 0,16,17
 541 1346 541 1346 461 1213.5 c 128,-1,18
 381 1081 381 1081 381 840 c 2,19,-1
 381 727 l 2,20,21
 381 487 381 487 463.5 356 c 128,-1,22
 546 225 546 225 711 225 c 0,23,24
 842 225 842 225 917.5 315 c 128,-1,25
 993 405 993 405 993 582 c 1,26,-1
 1278 582 l 1,27,28
 1278 430 1278 430 1235 312.5 c 128,-1,29
 1192 195 1192 195 1114 121 c 128,-1,30
 1036 47 1036 47 931.5 9 c 128,-1,31
 827 -29 827 -29 700 -29 c 0,32,33
 400 -29 400 -29 239 173.5 c 128,-1,34
 78 376 78 376 78 783.5 c 0,35,36
 78 1191 78 1191 238.5 1393 c 128,-1,37
 399 1595 399 1595 700 1595 c 0,7,8
EndSplineSet
Position2: "'cpsp' Capital Spacing lookup 0 subtable" dx=12 dy=0 dh=27 dv=0
EndChar

StartChar: Ccedilla
Encoding: 199 199 19
Width: 1351
VWidth: 2586
GlyphClass: 2
Flags: W
HStem: -416 129<492 729> -399 113<489 677> -27 252<551 582 756 865> 1346 250<544 849>
VStem: 78 303<434 1125> 582 174<-82 -23> 735 197<-282 -180> 977 301<985 1199> 993 285<369 582>
LayerCount: 2
Back
Fore
SplineSet
700 1595 m 0,0,1
 826 1595 826 1595 929.5 1558.5 c 128,-1,2
 1033 1522 1033 1522 1111.5 1449.5 c 128,-1,3
 1190 1377 1190 1377 1234 1258.5 c 128,-1,4
 1278 1140 1278 1140 1278 985 c 1,5,-1
 977 985 l 1,6,7
 977 1163 977 1163 903 1254.5 c 128,-1,8
 829 1346 829 1346 700 1346 c 0,9,10
 541 1346 541 1346 461 1213.5 c 128,-1,11
 381 1081 381 1081 381 840 c 2,12,-1
 381 727 l 2,13,14
 381 487 381 487 463.5 356 c 128,-1,15
 546 225 546 225 711 225 c 0,16,17
 842 225 842 225 917.5 315 c 128,-1,18
 993 405 993 405 993 582 c 1,19,-1
 1278 582 l 1,20,21
 1278 299 1278 299 1135.5 144 c 128,-1,22
 993 -11 993 -11 756 -27 c 1,23,-1
 756 -76 l 1,24,25
 932 -90 932 -90 932 -229 c 0,26,27
 932 -274 932 -274 915 -308.5 c 128,-1,28
 898 -343 898 -343 872 -362.5 c 128,-1,29
 846 -382 846 -382 810.5 -394.5 c 128,-1,30
 775 -407 775 -407 744 -411.5 c 128,-1,31
 713 -416 713 -416 647.5 -416 c 0,32,33
 582 -416 582 -416 489 -399 c 1,34,-1
 489 -287 l 1,35,-1
 651 -287 l 2,36,37
 735 -287 735 -287 735 -229 c 0,38,39
 735 -201 735 -201 717.5 -188.5 c 128,-1,40
 700 -176 700 -176 657 -176 c 2,41,-1
 582 -176 l 1,42,-1
 582 -20 l 1,43,44
 330 11 330 11 204 209.5 c 128,-1,45
 78 408 78 408 78 799.5 c 0,46,47
 78 1191 78 1191 238.5 1393 c 128,-1,48
 399 1595 399 1595 700 1595 c 0,0,1
EndSplineSet
Position2: "'cpsp' Capital Spacing lookup 0 subtable" dx=12 dy=0 dh=27 dv=0
EndChar

StartChar: Ccircumflex
Encoding: 264 264 20
Width: 1351
VWidth: 2586
GlyphClass: 2
Flags: W
HStem: -29 254<555 866> 1346 250<544 849>
VStem: 78 303<443 1125> 977 301<985 1199> 993 285<372 582>
LayerCount: 2
Back
Fore
SplineSet
700 1868 m 1,0,-1
 600 1710 l 1,1,-1
 393 1710 l 1,2,-1
 590 2019 l 1,3,-1
 815 2019 l 1,4,-1
 1010 1710 l 1,5,-1
 805 1710 l 1,6,-1
 700 1868 l 1,0,-1
700 1595 m 0,7,8
 826 1595 826 1595 929.5 1558.5 c 128,-1,9
 1033 1522 1033 1522 1111.5 1449.5 c 128,-1,10
 1190 1377 1190 1377 1234 1258.5 c 128,-1,11
 1278 1140 1278 1140 1278 985 c 1,12,-1
 977 985 l 1,13,14
 977 1163 977 1163 903 1254.5 c 128,-1,15
 829 1346 829 1346 700 1346 c 0,16,17
 541 1346 541 1346 461 1213.5 c 128,-1,18
 381 1081 381 1081 381 840 c 2,19,-1
 381 727 l 2,20,21
 381 487 381 487 463.5 356 c 128,-1,22
 546 225 546 225 711 225 c 0,23,24
 842 225 842 225 917.5 315 c 128,-1,25
 993 405 993 405 993 582 c 1,26,-1
 1278 582 l 1,27,28
 1278 430 1278 430 1235 312.5 c 128,-1,29
 1192 195 1192 195 1114 121 c 128,-1,30
 1036 47 1036 47 931.5 9 c 128,-1,31
 827 -29 827 -29 700 -29 c 0,32,33
 400 -29 400 -29 239 173.5 c 128,-1,34
 78 376 78 376 78 783.5 c 0,35,36
 78 1191 78 1191 238.5 1393 c 128,-1,37
 399 1595 399 1595 700 1595 c 0,7,8
EndSplineSet
Position2: "'cpsp' Capital Spacing lookup 0 subtable" dx=12 dy=0 dh=27 dv=0
EndChar

StartChar: Cdotaccent
Encoding: 266 266 21
Width: 1351
VWidth: 2586
GlyphClass: 2
Flags: W
HStem: -29 254<555 866> 1346 250<544 849> 1757 262<580 823>
VStem: 78 303<443 1125> 580 244<1757 2019> 977 301<985 1199> 993 285<372 582>
LayerCount: 2
Back
Fore
SplineSet
580 2019 m 1,0,-1
 823 2019 l 1,1,-1
 823 1757 l 1,2,-1
 580 1757 l 1,3,-1
 580 2019 l 1,0,-1
700 1595 m 0,4,5
 826 1595 826 1595 929.5 1558.5 c 128,-1,6
 1033 1522 1033 1522 1111.5 1449.5 c 128,-1,7
 1190 1377 1190 1377 1234 1258.5 c 128,-1,8
 1278 1140 1278 1140 1278 985 c 1,9,-1
 977 985 l 1,10,11
 977 1163 977 1163 903 1254.5 c 128,-1,12
 829 1346 829 1346 700 1346 c 0,13,14
 541 1346 541 1346 461 1213.5 c 128,-1,15
 381 1081 381 1081 381 840 c 2,16,-1
 381 727 l 2,17,18
 381 487 381 487 463.5 356 c 128,-1,19
 546 225 546 225 711 225 c 0,20,21
 842 225 842 225 917.5 315 c 128,-1,22
 993 405 993 405 993 582 c 1,23,-1
 1278 582 l 1,24,25
 1278 430 1278 430 1235 312.5 c 128,-1,26
 1192 195 1192 195 1114 121 c 128,-1,27
 1036 47 1036 47 931.5 9 c 128,-1,28
 827 -29 827 -29 700 -29 c 0,29,30
 400 -29 400 -29 239 173.5 c 128,-1,31
 78 376 78 376 78 783.5 c 0,32,33
 78 1191 78 1191 238.5 1393 c 128,-1,34
 399 1595 399 1595 700 1595 c 0,4,5
EndSplineSet
Position2: "'cpsp' Capital Spacing lookup 0 subtable" dx=12 dy=0 dh=27 dv=0
EndChar

StartChar: D
Encoding: 68 68 22
Width: 1351
VWidth: 2586
GlyphClass: 2
Flags: W
HStem: 0 262<430 786> 1309 258<430 786>
VStem: 137 293<262 1309> 975 301<492 1102>
AnchorPoint: "Anchor-1" 0 0 basechar 0
AnchorPoint: "Anchor-0" 678 1567 basechar 0
LayerCount: 2
Back
Fore
SplineSet
647 1567 m 2,0,1
 945 1567 945 1567 1110.5 1373 c 128,-1,2
 1276 1179 1276 1179 1276 794.5 c 0,3,4
 1276 410 1276 410 1111 205 c 128,-1,5
 946 0 946 0 647 0 c 2,6,-1
 137 0 l 1,7,-1
 137 1567 l 1,8,-1
 647 1567 l 2,0,1
621 262 m 2,9,10
 787 262 787 262 881 386 c 128,-1,11
 975 510 975 510 975 750 c 2,12,-1
 975 864 l 2,13,14
 975 1081 975 1081 881 1195 c 128,-1,15
 787 1309 787 1309 621 1309 c 2,16,-1
 430 1309 l 1,17,-1
 430 262 l 1,18,-1
 621 262 l 2,9,10
EndSplineSet
Position2: "'cpsp' Capital Spacing lookup 0 subtable" dx=12 dy=0 dh=27 dv=0
EndChar

StartChar: Eth
Encoding: 208 208 23
Width: 1351
VWidth: 2586
GlyphClass: 2
Flags: W
HStem: 0 262<430 786> 715 193<23 137 430 717> 1309 258<430 786>
VStem: 137 293<262 715 907 1309> 975 301<492 1102>
LayerCount: 2
Back
Fore
SplineSet
137 1567 m 1,0,-1
 647 1567 l 2,1,2
 945 1567 945 1567 1110.5 1373 c 128,-1,3
 1276 1179 1276 1179 1276 794.5 c 0,4,5
 1276 410 1276 410 1111 205 c 128,-1,6
 946 0 946 0 647 0 c 2,7,-1
 137 0 l 1,8,-1
 137 715 l 1,9,-1
 23 715 l 1,10,-1
 23 907 l 1,11,-1
 137 907 l 1,12,-1
 137 1567 l 1,0,-1
717 907 m 1,13,-1
 717 715 l 1,14,-1
 430 715 l 1,15,-1
 430 262 l 1,16,-1
 621 262 l 2,17,18
 787 262 787 262 881 386 c 128,-1,19
 975 510 975 510 975 750 c 2,20,-1
 975 864 l 2,21,22
 975 1081 975 1081 881 1195 c 128,-1,23
 787 1309 787 1309 621 1309 c 2,24,-1
 430 1309 l 1,25,-1
 430 907 l 1,26,-1
 717 907 l 1,13,-1
EndSplineSet
Position2: "'cpsp' Capital Spacing lookup 0 subtable" dx=12 dy=0 dh=27 dv=0
EndChar

StartChar: Dcaron
Encoding: 270 270 24
Width: 1351
VWidth: 2586
GlyphClass: 2
Flags: W
HStem: 0 262<430 786> 1309 258<430 786>
VStem: 137 293<262 1309> 975 301<492 1102>
LayerCount: 2
Back
Fore
SplineSet
272 2019 m 1,0,-1
 479 2019 l 1,1,-1
 582 1862 l 1,2,-1
 680 2019 l 1,3,-1
 887 2019 l 1,4,-1
 692 1710 l 1,5,-1
 469 1710 l 1,6,-1
 272 2019 l 1,0,-1
647 1567 m 2,7,8
 945 1567 945 1567 1110.5 1373 c 128,-1,9
 1276 1179 1276 1179 1276 794.5 c 0,10,11
 1276 410 1276 410 1111 205 c 128,-1,12
 946 0 946 0 647 0 c 2,13,-1
 137 0 l 1,14,-1
 137 1567 l 1,15,-1
 647 1567 l 2,7,8
621 262 m 2,16,17
 787 262 787 262 881 386 c 128,-1,18
 975 510 975 510 975 750 c 2,19,-1
 975 864 l 2,20,21
 975 1081 975 1081 881 1195 c 128,-1,22
 787 1309 787 1309 621 1309 c 2,23,-1
 430 1309 l 1,24,-1
 430 262 l 1,25,-1
 621 262 l 2,16,17
EndSplineSet
Position2: "'cpsp' Capital Spacing lookup 0 subtable" dx=12 dy=0 dh=27 dv=0
EndChar

StartChar: Dcroat
Encoding: 272 272 25
Width: 1351
VWidth: 2586
GlyphClass: 2
Flags: W
HStem: 0 262<430 786> 715 193<23 137 430 717> 1309 258<430 786>
VStem: 137 293<262 715 907 1309> 975 301<492 1102>
LayerCount: 2
Back
Fore
SplineSet
137 1567 m 1,0,-1
 647 1567 l 2,1,2
 945 1567 945 1567 1110.5 1373 c 128,-1,3
 1276 1179 1276 1179 1276 794.5 c 0,4,5
 1276 410 1276 410 1111 205 c 128,-1,6
 946 0 946 0 647 0 c 2,7,-1
 137 0 l 1,8,-1
 137 715 l 1,9,-1
 23 715 l 1,10,-1
 23 907 l 1,11,-1
 137 907 l 1,12,-1
 137 1567 l 1,0,-1
717 907 m 1,13,-1
 717 715 l 1,14,-1
 430 715 l 1,15,-1
 430 262 l 1,16,-1
 621 262 l 2,17,18
 787 262 787 262 881 386 c 128,-1,19
 975 510 975 510 975 750 c 2,20,-1
 975 864 l 2,21,22
 975 1081 975 1081 881 1195 c 128,-1,23
 787 1309 787 1309 621 1309 c 2,24,-1
 430 1309 l 1,25,-1
 430 907 l 1,26,-1
 717 907 l 1,13,-1
EndSplineSet
Position2: "'cpsp' Capital Spacing lookup 0 subtable" dx=12 dy=0 dh=27 dv=0
EndChar

StartChar: E
Encoding: 69 69 26
Width: 1251
VWidth: 2586
GlyphClass: 2
Flags: W
HStem: 0 262<430 1151> 672 262<430 1034> 1309 258<430 1135>
VStem: 137 293<262 672 934 1309>
AnchorPoint: "Anchor-1" 627 0 basechar 0
AnchorPoint: "Anchor-0" 627 1567 basechar 0
LayerCount: 2
Back
Fore
SplineSet
1135 1567 m 1,0,-1
 1135 1309 l 1,1,-1
 430 1309 l 1,2,-1
 430 934 l 1,3,-1
 1034 934 l 1,4,-1
 1034 672 l 1,5,-1
 430 672 l 1,6,-1
 430 262 l 1,7,-1
 1151 262 l 1,8,-1
 1151 0 l 1,9,-1
 137 0 l 1,10,-1
 137 1567 l 1,11,-1
 1135 1567 l 1,0,-1
EndSplineSet
Position2: "'cpsp' Capital Spacing lookup 0 subtable" dx=12 dy=0 dh=27 dv=0
EndChar

StartChar: Eacute
Encoding: 201 201 27
Width: 1251
VWidth: 2586
GlyphClass: 2
Flags: W
HStem: 0 262<430 1151> 672 262<430 1034> 1309 258<430 1135>
VStem: 137 293<262 672 934 1309>
LayerCount: 2
Back
Fore
SplineSet
696 1718 m 1,0,-1
 469 1718 l 1,1,-1
 666 2019 l 1,2,-1
 938 2019 l 1,3,-1
 696 1718 l 1,0,-1
430 1309 m 1,4,-1
 430 934 l 1,5,-1
 1034 934 l 1,6,-1
 1034 672 l 1,7,-1
 430 672 l 1,8,-1
 430 262 l 1,9,-1
 1151 262 l 1,10,-1
 1151 0 l 1,11,-1
 137 0 l 1,12,-1
 137 1567 l 1,13,-1
 1135 1567 l 1,14,-1
 1135 1309 l 1,15,-1
 430 1309 l 1,4,-1
EndSplineSet
Position2: "'cpsp' Capital Spacing lookup 0 subtable" dx=12 dy=0 dh=27 dv=0
EndChar

StartChar: Ebreve
Encoding: 276 276 28
Width: 1251
VWidth: 2586
GlyphClass: 2
Flags: W
HStem: 0 262<430 1151> 672 262<430 1034> 1309 258<430 1135> 1774 170<510 740>
VStem: 137 293<262 672 934 1309>
LayerCount: 2
Back
Fore
SplineSet
932 2019 m 1,0,1
 932 1925 932 1925 845.5 1849.5 c 128,-1,2
 759 1774 759 1774 624.5 1774 c 0,3,4
 490 1774 490 1774 406 1849.5 c 128,-1,5
 322 1925 322 1925 322 2019 c 1,6,-1
 489 2019 l 1,7,8
 496 1991 496 1991 533 1967.5 c 128,-1,9
 570 1944 570 1944 624 1944 c 0,10,11
 678 1944 678 1944 718 1968 c 128,-1,12
 758 1992 758 1992 760 2019 c 1,13,-1
 932 2019 l 1,0,1
1135 1567 m 1,14,-1
 1135 1309 l 1,15,-1
 430 1309 l 1,16,-1
 430 934 l 1,17,-1
 1034 934 l 1,18,-1
 1034 672 l 1,19,-1
 430 672 l 1,20,-1
 430 262 l 1,21,-1
 1151 262 l 1,22,-1
 1151 0 l 1,23,-1
 137 0 l 1,24,-1
 137 1567 l 1,25,-1
 1135 1567 l 1,14,-1
EndSplineSet
Position2: "'cpsp' Capital Spacing lookup 0 subtable" dx=12 dy=0 dh=27 dv=0
EndChar

StartChar: Ecaron
Encoding: 282 282 29
Width: 1251
VWidth: 2586
GlyphClass: 2
Flags: W
HStem: 0 262<430 1151> 672 262<430 1034> 1309 258<430 1135>
VStem: 137 293<262 672 934 1309>
LayerCount: 2
Back
Fore
SplineSet
317 2019 m 1,0,-1
 522 2019 l 1,1,-1
 627 1862 l 1,2,-1
 727 2019 l 1,3,-1
 934 2019 l 1,4,-1
 739 1710 l 1,5,-1
 514 1710 l 1,6,-1
 317 2019 l 1,0,-1
1135 1567 m 1,7,-1
 1135 1309 l 1,8,-1
 430 1309 l 1,9,-1
 430 934 l 1,10,-1
 1034 934 l 1,11,-1
 1034 672 l 1,12,-1
 430 672 l 1,13,-1
 430 262 l 1,14,-1
 1151 262 l 1,15,-1
 1151 0 l 1,16,-1
 137 0 l 1,17,-1
 137 1567 l 1,18,-1
 1135 1567 l 1,7,-1
EndSplineSet
Position2: "'cpsp' Capital Spacing lookup 0 subtable" dx=12 dy=0 dh=27 dv=0
EndChar

StartChar: Ecircumflex
Encoding: 202 202 30
Width: 1251
VWidth: 2586
GlyphClass: 2
Flags: W
HStem: 0 262<430 1151> 672 262<430 1034> 1309 258<430 1135>
VStem: 137 293<262 672 934 1309>
LayerCount: 2
Back
Fore
SplineSet
627 1868 m 1,0,-1
 522 1710 l 1,1,-1
 317 1710 l 1,2,-1
 514 2019 l 1,3,-1
 739 2019 l 1,4,-1
 934 1710 l 1,5,-1
 727 1710 l 1,6,-1
 627 1868 l 1,0,-1
1135 1567 m 1,7,-1
 1135 1309 l 1,8,-1
 430 1309 l 1,9,-1
 430 934 l 1,10,-1
 1034 934 l 1,11,-1
 1034 672 l 1,12,-1
 430 672 l 1,13,-1
 430 262 l 1,14,-1
 1151 262 l 1,15,-1
 1151 0 l 1,16,-1
 137 0 l 1,17,-1
 137 1567 l 1,18,-1
 1135 1567 l 1,7,-1
EndSplineSet
Position2: "'cpsp' Capital Spacing lookup 0 subtable" dx=12 dy=0 dh=27 dv=0
EndChar

StartChar: Edieresis
Encoding: 203 203 31
Width: 1251
VWidth: 2586
GlyphClass: 2
Flags: W
HStem: 0 262<430 1151> 672 262<430 1034> 1309 258<430 1135> 1769 250<311 541 711 938>
VStem: 137 293<262 672 934 1309> 311 229<1769 2019> 711 227<1769 2019>
LayerCount: 2
Back
Fore
SplineSet
311 1769 m 1,0,-1
 311 2019 l 1,1,-1
 541 2019 l 1,2,-1
 541 1769 l 1,3,-1
 311 1769 l 1,0,-1
711 1769 m 1,4,-1
 711 2019 l 1,5,-1
 938 2019 l 1,6,-1
 938 1769 l 1,7,-1
 711 1769 l 1,4,-1
430 1309 m 1,8,-1
 430 934 l 1,9,-1
 1034 934 l 1,10,-1
 1034 672 l 1,11,-1
 430 672 l 1,12,-1
 430 262 l 1,13,-1
 1151 262 l 1,14,-1
 1151 0 l 1,15,-1
 137 0 l 1,16,-1
 137 1567 l 1,17,-1
 1135 1567 l 1,18,-1
 1135 1309 l 1,19,-1
 430 1309 l 1,8,-1
EndSplineSet
Position2: "'cpsp' Capital Spacing lookup 0 subtable" dx=12 dy=0 dh=27 dv=0
EndChar

StartChar: Edotaccent
Encoding: 278 278 32
Width: 1251
VWidth: 2586
GlyphClass: 2
Flags: W
HStem: 0 262<430 1151> 672 262<430 1034> 1309 258<430 1135> 1757 262<502 748>
VStem: 137 293<262 672 934 1309> 502 246<1757 2019>
LayerCount: 2
Back
Fore
SplineSet
502 2019 m 1,0,-1
 748 2019 l 1,1,-1
 748 1757 l 1,2,-1
 502 1757 l 1,3,-1
 502 2019 l 1,0,-1
1135 1567 m 1,4,-1
 1135 1309 l 1,5,-1
 430 1309 l 1,6,-1
 430 934 l 1,7,-1
 1034 934 l 1,8,-1
 1034 672 l 1,9,-1
 430 672 l 1,10,-1
 430 262 l 1,11,-1
 1151 262 l 1,12,-1
 1151 0 l 1,13,-1
 137 0 l 1,14,-1
 137 1567 l 1,15,-1
 1135 1567 l 1,4,-1
EndSplineSet
Position2: "'cpsp' Capital Spacing lookup 0 subtable" dx=12 dy=0 dh=27 dv=0
EndChar

StartChar: Egrave
Encoding: 200 200 33
Width: 1251
VWidth: 2586
GlyphClass: 2
Flags: W
HStem: 0 262<430 1151> 672 262<430 1034> 1309 258<430 1135>
VStem: 137 293<262 672 934 1309>
LayerCount: 2
Back
Fore
SplineSet
557 1718 m 1,0,-1
 304 2017 l 1,1,-1
 584 2017 l 1,2,-1
 780 1718 l 1,3,-1
 557 1718 l 1,0,-1
430 1309 m 1,4,-1
 430 934 l 1,5,-1
 1034 934 l 1,6,-1
 1034 672 l 1,7,-1
 430 672 l 1,8,-1
 430 262 l 1,9,-1
 1151 262 l 1,10,-1
 1151 0 l 1,11,-1
 137 0 l 1,12,-1
 137 1567 l 1,13,-1
 1135 1567 l 1,14,-1
 1135 1309 l 1,15,-1
 430 1309 l 1,4,-1
EndSplineSet
Position2: "'cpsp' Capital Spacing lookup 0 subtable" dx=12 dy=0 dh=27 dv=0
EndChar

StartChar: Emacron
Encoding: 274 274 34
Width: 1251
VWidth: 2586
GlyphClass: 2
Flags: W
HStem: 0 262<430 1151> 672 262<430 1034> 1309 258<430 1135> 1735 201<334 915>
VStem: 137 293<262 672 934 1309>
LayerCount: 2
Back
Fore
SplineSet
334 1935 m 1,0,-1
 915 1935 l 1,1,-1
 915 1735 l 1,2,-1
 334 1735 l 1,3,-1
 334 1935 l 1,0,-1
1135 1567 m 1,4,-1
 1135 1309 l 1,5,-1
 430 1309 l 1,6,-1
 430 934 l 1,7,-1
 1034 934 l 1,8,-1
 1034 672 l 1,9,-1
 430 672 l 1,10,-1
 430 262 l 1,11,-1
 1151 262 l 1,12,-1
 1151 0 l 1,13,-1
 137 0 l 1,14,-1
 137 1567 l 1,15,-1
 1135 1567 l 1,4,-1
EndSplineSet
Position2: "'cpsp' Capital Spacing lookup 0 subtable" dx=12 dy=0 dh=27 dv=0
EndChar

StartChar: Eogonek
Encoding: 280 280 35
Width: 1251
VWidth: 2586
GlyphClass: 2
Flags: W
HStem: -434 158<1099 1230> -403 127<1100 1233> 0 262<430 956> 672 262<430 1034> 1309 258<430 1135>
VStem: 137 293<262 672 934 1309> 856 225<-258 -69>
LayerCount: 2
Back
Fore
SplineSet
430 934 m 1,0,-1
 1034 934 l 1,1,-1
 1034 672 l 1,2,-1
 430 672 l 1,3,-1
 430 262 l 1,4,-1
 1151 262 l 1,5,-1
 1151 0 l 1,6,7
 1124 -29 1124 -29 1102.5 -72 c 128,-1,8
 1081 -115 1081 -115 1081 -162.5 c 0,9,10
 1081 -210 1081 -210 1106 -243 c 128,-1,11
 1131 -276 1131 -276 1184 -276 c 2,12,-1
 1233 -276 l 1,13,-1
 1233 -403 l 1,14,15
 1154 -434 1154 -434 1101.5 -434 c 0,16,17
 1049 -434 1049 -434 1018.5 -428 c 128,-1,18
 988 -422 988 -422 957.5 -406.5 c 128,-1,19
 927 -391 927 -391 905 -368 c 128,-1,20
 883 -345 883 -345 869.5 -309 c 128,-1,21
 856 -273 856 -273 856 -213.5 c 0,22,23
 856 -154 856 -154 882 -102 c 128,-1,24
 908 -50 908 -50 956 0 c 1,25,-1
 137 0 l 1,26,-1
 137 1567 l 1,27,-1
 1135 1567 l 1,28,-1
 1135 1309 l 1,29,-1
 430 1309 l 1,30,-1
 430 934 l 1,0,-1
EndSplineSet
Position2: "'cpsp' Capital Spacing lookup 0 subtable" dx=12 dy=0 dh=27 dv=0
EndChar

StartChar: F
Encoding: 70 70 36
Width: 1144
VWidth: 2586
GlyphClass: 2
Flags: W
HStem: 0 43G<137 430> 651 262<430 967> 1309 258<430 1059>
VStem: 137 293<0 651 913 1309>
LayerCount: 2
Back
Fore
SplineSet
1059 1567 m 1,0,-1
 1059 1309 l 1,1,-1
 430 1309 l 1,2,-1
 430 913 l 1,3,-1
 967 913 l 1,4,-1
 967 651 l 1,5,-1
 430 651 l 1,6,-1
 430 0 l 1,7,-1
 137 0 l 1,8,-1
 137 1567 l 1,9,-1
 1059 1567 l 1,0,-1
EndSplineSet
Position2: "'cpsp' Capital Spacing lookup 0 subtable" dx=12 dy=0 dh=27 dv=0
EndChar

StartChar: G
Encoding: 71 71 37
Width: 1458
VWidth: 2586
GlyphClass: 2
Flags: W
HStem: -29 254<562 891> 0 43G<1141 1341> 600 254<690 1042> 1346 250<567 900>
VStem: 78 303<442 1125> 1042 299<396 600 1020 1198>
AnchorPoint: "Anchor-1" 729 0 basechar 0
AnchorPoint: "Anchor-0" 729 1567 basechar 0
LayerCount: 2
Back
Fore
SplineSet
690 854 m 1,0,-1
 1341 854 l 1,1,-1
 1341 0 l 1,2,-1
 1153 0 l 1,3,-1
 1102 174 l 1,4,5
 1028 76 1028 76 917.5 23.5 c 128,-1,6
 807 -29 807 -29 682 -29 c 0,7,8
 389 -29 389 -29 233.5 172.5 c 128,-1,9
 78 374 78 374 78 783 c 0,10,11
 78 1192 78 1192 248.5 1393.5 c 128,-1,12
 419 1595 419 1595 741 1595 c 0,13,14
 861 1595 861 1595 968 1557 c 128,-1,15
 1075 1519 1075 1519 1159 1448.5 c 128,-1,16
 1243 1378 1243 1378 1292 1267 c 128,-1,17
 1341 1156 1341 1156 1341 1020 c 1,18,-1
 1042 1020 l 1,19,20
 1042 1174 1042 1174 954.5 1260 c 128,-1,21
 867 1346 867 1346 735 1346 c 0,22,23
 555 1346 555 1346 468 1214 c 128,-1,24
 381 1082 381 1082 381 840 c 2,25,-1
 381 727 l 2,26,27
 381 225 381 225 737 225 c 0,28,29
 872 225 872 225 957 327.5 c 128,-1,30
 1042 430 1042 430 1042 600 c 1,31,-1
 690 600 l 1,32,-1
 690 854 l 1,0,-1
EndSplineSet
Position2: "'cpsp' Capital Spacing lookup 0 subtable" dx=12 dy=0 dh=27 dv=0
EndChar

StartChar: Gbreve
Encoding: 286 286 38
Width: 1458
VWidth: 2586
GlyphClass: 2
Flags: W
HStem: -29 254<562 891> 0 43G<1141 1341> 600 254<690 1042> 1346 250<567 900> 1774 170<615 845>
VStem: 78 303<442 1125> 1042 299<396 600 1020 1198>
LayerCount: 2
Back
Fore
SplineSet
948.5 1849.5 m 128,-1,1
 863 1774 863 1774 729.5 1774 c 128,-1,2
 596 1774 596 1774 510 1849.5 c 128,-1,3
 424 1925 424 1925 424 2019 c 1,4,-1
 594 2019 l 1,5,6
 599 1992 599 1992 637.5 1968 c 128,-1,7
 676 1944 676 1944 730 1944 c 128,-1,8
 784 1944 784 1944 822.5 1968 c 128,-1,9
 861 1992 861 1992 866 2019 c 1,10,-1
 1034 2019 l 1,11,0
 1034 1925 1034 1925 948.5 1849.5 c 128,-1,1
690 854 m 1,12,-1
 1341 854 l 1,13,-1
 1341 0 l 1,14,-1
 1153 0 l 1,15,-1
 1102 174 l 1,16,17
 1028 76 1028 76 917.5 23.5 c 128,-1,18
 807 -29 807 -29 682 -29 c 0,19,20
 389 -29 389 -29 233.5 172.5 c 128,-1,21
 78 374 78 374 78 783 c 128,-1,22
 78 1192 78 1192 248.5 1393.5 c 128,-1,23
 419 1595 419 1595 741 1595 c 0,24,25
 861 1595 861 1595 968 1557 c 128,-1,26
 1075 1519 1075 1519 1159 1448.5 c 128,-1,27
 1243 1378 1243 1378 1292 1267 c 128,-1,28
 1341 1156 1341 1156 1341 1020 c 1,29,-1
 1042 1020 l 1,30,31
 1042 1174 1042 1174 954.5 1260 c 128,-1,32
 867 1346 867 1346 735 1346 c 0,33,34
 555 1346 555 1346 468 1214 c 128,-1,35
 381 1082 381 1082 381 840 c 2,36,-1
 381 727 l 2,37,38
 381 225 381 225 737 225 c 0,39,40
 872 225 872 225 957 327.5 c 128,-1,41
 1042 430 1042 430 1042 600 c 1,42,-1
 690 600 l 1,43,-1
 690 854 l 1,12,-1
EndSplineSet
Position2: "'cpsp' Capital Spacing lookup 0 subtable" dx=12 dy=0 dh=27 dv=0
EndChar

StartChar: Gcircumflex
Encoding: 284 284 39
Width: 1458
VWidth: 2586
GlyphClass: 2
Flags: W
HStem: -29 254<562 891> 0 43G<1141 1341> 600 254<690 1042> 1346 250<567 900>
VStem: 78 303<442 1125> 1042 299<396 600 1020 1198>
LayerCount: 2
Back
Fore
SplineSet
629 1710 m 1,0,-1
 424 1710 l 1,1,-1
 621 2019 l 1,2,-1
 844 2019 l 1,3,-1
 1036 1710 l 1,4,-1
 834 1710 l 1,5,-1
 731 1868 l 1,6,-1
 629 1710 l 1,0,-1
690 854 m 1,7,-1
 1341 854 l 1,8,-1
 1341 0 l 1,9,-1
 1153 0 l 1,10,-1
 1102 174 l 1,11,12
 1028 76 1028 76 917.5 23.5 c 128,-1,13
 807 -29 807 -29 682 -29 c 0,14,15
 389 -29 389 -29 233.5 172.5 c 128,-1,16
 78 374 78 374 78 783 c 0,17,18
 78 1192 78 1192 248.5 1393.5 c 128,-1,19
 419 1595 419 1595 741 1595 c 0,20,21
 861 1595 861 1595 968 1557 c 128,-1,22
 1075 1519 1075 1519 1159 1448.5 c 128,-1,23
 1243 1378 1243 1378 1292 1267 c 128,-1,24
 1341 1156 1341 1156 1341 1020 c 1,25,-1
 1042 1020 l 1,26,27
 1042 1174 1042 1174 954.5 1260 c 128,-1,28
 867 1346 867 1346 735 1346 c 0,29,30
 555 1346 555 1346 468 1214 c 128,-1,31
 381 1082 381 1082 381 840 c 2,32,-1
 381 727 l 2,33,34
 381 225 381 225 737 225 c 0,35,36
 872 225 872 225 957 327.5 c 128,-1,37
 1042 430 1042 430 1042 600 c 1,38,-1
 690 600 l 1,39,-1
 690 854 l 1,7,-1
EndSplineSet
Position2: "'cpsp' Capital Spacing lookup 0 subtable" dx=12 dy=0 dh=27 dv=0
EndChar

StartChar: Gcommaaccent
Encoding: 290 290 40
Width: 1458
VWidth: 2586
GlyphClass: 2
Flags: W
HStem: -29 254<562 891> 0 43G<1141 1341> 600 254<690 1042> 1346 250<567 900>
VStem: 78 303<442 1125> 553 283<-383 -127> 1042 299<396 600 1020 1198>
LayerCount: 2
Back
Fore
SplineSet
690 854 m 1,0,-1
 1341 854 l 1,1,-1
 1341 0 l 1,2,-1
 1153 0 l 1,3,-1
 1102 174 l 1,4,5
 1028 76 1028 76 917.5 23.5 c 128,-1,6
 807 -29 807 -29 682 -29 c 0,7,8
 389 -29 389 -29 233.5 172.5 c 128,-1,9
 78 374 78 374 78 783 c 0,10,11
 78 1192 78 1192 248.5 1393.5 c 128,-1,12
 419 1595 419 1595 741 1595 c 0,13,14
 861 1595 861 1595 968 1557 c 128,-1,15
 1075 1519 1075 1519 1159 1448.5 c 128,-1,16
 1243 1378 1243 1378 1292 1267 c 128,-1,17
 1341 1156 1341 1156 1341 1020 c 1,18,-1
 1042 1020 l 1,19,20
 1042 1174 1042 1174 954.5 1260 c 128,-1,21
 867 1346 867 1346 735 1346 c 0,22,23
 555 1346 555 1346 468 1214 c 128,-1,24
 381 1082 381 1082 381 840 c 2,25,-1
 381 727 l 2,26,27
 381 225 381 225 737 225 c 0,28,29
 872 225 872 225 957 327.5 c 128,-1,30
 1042 430 1042 430 1042 600 c 1,31,-1
 690 600 l 1,32,-1
 690 854 l 1,0,-1
553 -127 m 1,33,-1
 836 -127 l 1,34,-1
 836 -383 l 1,35,-1
 731 -600 l 1,36,-1
 582 -600 l 1,37,-1
 666 -406 l 1,38,-1
 553 -406 l 1,39,-1
 553 -127 l 1,33,-1
EndSplineSet
Position2: "'cpsp' Capital Spacing lookup 0 subtable" dx=12 dy=0 dh=27 dv=0
EndChar

StartChar: Gdotaccent
Encoding: 288 288 41
Width: 1458
VWidth: 2586
GlyphClass: 2
Flags: W
HStem: -29 254<562 891> 0 43G<1141 1341> 600 254<690 1042> 1346 250<567 900> 1757 262<608 854>
VStem: 78 303<442 1125> 608 246<1757 2019> 1042 299<396 600 1020 1198>
LayerCount: 2
Back
Fore
SplineSet
854 1757 m 1,0,-1
 608 1757 l 1,1,-1
 608 2019 l 1,2,-1
 854 2019 l 1,3,-1
 854 1757 l 1,0,-1
690 854 m 1,4,-1
 1341 854 l 1,5,-1
 1341 0 l 1,6,-1
 1153 0 l 1,7,-1
 1102 174 l 1,8,9
 1028 76 1028 76 917.5 23.5 c 128,-1,10
 807 -29 807 -29 682 -29 c 0,11,12
 389 -29 389 -29 233.5 172.5 c 128,-1,13
 78 374 78 374 78 783 c 0,14,15
 78 1192 78 1192 248.5 1393.5 c 128,-1,16
 419 1595 419 1595 741 1595 c 0,17,18
 861 1595 861 1595 968 1557 c 128,-1,19
 1075 1519 1075 1519 1159 1448.5 c 128,-1,20
 1243 1378 1243 1378 1292 1267 c 128,-1,21
 1341 1156 1341 1156 1341 1020 c 1,22,-1
 1042 1020 l 1,23,24
 1042 1174 1042 1174 954.5 1260 c 128,-1,25
 867 1346 867 1346 735 1346 c 0,26,27
 555 1346 555 1346 468 1214 c 128,-1,28
 381 1082 381 1082 381 840 c 2,29,-1
 381 727 l 2,30,31
 381 225 381 225 737 225 c 0,32,33
 872 225 872 225 957 327.5 c 128,-1,34
 1042 430 1042 430 1042 600 c 1,35,-1
 690 600 l 1,36,-1
 690 854 l 1,4,-1
EndSplineSet
Position2: "'cpsp' Capital Spacing lookup 0 subtable" dx=12 dy=0 dh=27 dv=0
EndChar

StartChar: H
Encoding: 72 72 42
Width: 1351
VWidth: 2586
GlyphClass: 2
Flags: W
HStem: 0 43G<137 430 924 1217> 672 262<430 924> 1526 41G<137 430 924 1217>
VStem: 137 293<0 672 934 1567> 924 293<0 672 934 1567>
AnchorPoint: "Anchor-1" 0 0 basechar 0
AnchorPoint: "Anchor-0" 678 1567 basechar 0
LayerCount: 2
Back
Fore
SplineSet
924 0 m 1,0,-1
 924 672 l 1,1,-1
 430 672 l 1,2,-1
 430 0 l 1,3,-1
 137 0 l 1,4,-1
 137 1567 l 1,5,-1
 430 1567 l 1,6,-1
 430 934 l 1,7,-1
 924 934 l 1,8,-1
 924 1567 l 1,9,-1
 1217 1567 l 1,10,-1
 1217 0 l 1,11,-1
 924 0 l 1,0,-1
EndSplineSet
Position2: "'cpsp' Capital Spacing lookup 0 subtable" dx=12 dy=0 dh=27 dv=0
EndChar

StartChar: Hbar
Encoding: 294 294 43
Width: 1351
VWidth: 2586
GlyphClass: 2
Flags: W
HStem: 0 43G<137 430 924 1217> 657 258<430 924> 1120 199<23 137 430 924 1217 1329> 1526 41G<137 430 924 1217>
VStem: 137 293<0 657 915 1120 1319 1567> 924 293<0 657 915 1120 1319 1567>
LayerCount: 2
Back
Fore
SplineSet
1217 0 m 1,0,-1
 924 0 l 1,1,-1
 924 657 l 1,2,-1
 430 657 l 1,3,-1
 430 0 l 1,4,-1
 137 0 l 1,5,-1
 137 1120 l 1,6,-1
 23 1120 l 1,7,-1
 23 1319 l 1,8,-1
 137 1319 l 1,9,-1
 137 1567 l 1,10,-1
 430 1567 l 1,11,-1
 430 1319 l 1,12,-1
 924 1319 l 1,13,-1
 924 1567 l 1,14,-1
 1217 1567 l 1,15,-1
 1217 1319 l 1,16,-1
 1329 1319 l 1,17,-1
 1329 1120 l 1,18,-1
 1217 1120 l 1,19,-1
 1217 0 l 1,0,-1
430 1120 m 1,20,-1
 430 915 l 1,21,-1
 924 915 l 1,22,-1
 924 1120 l 1,23,-1
 430 1120 l 1,20,-1
EndSplineSet
Position2: "'cpsp' Capital Spacing lookup 0 subtable" dx=12 dy=0 dh=27 dv=0
EndChar

StartChar: Hcircumflex
Encoding: 292 292 44
Width: 1351
VWidth: 2586
GlyphClass: 2
Flags: W
HStem: 0 43G<137 430 924 1217> 672 262<430 924> 1526 41G<137 430 924 1217>
VStem: 137 293<0 672 934 1567> 924 293<0 672 934 1567>
LayerCount: 2
Back
Fore
SplineSet
778 1710 m 1,0,-1
 678 1868 l 1,1,-1
 573 1710 l 1,2,-1
 371 1710 l 1,3,-1
 567 2019 l 1,4,-1
 791 2019 l 1,5,-1
 985 1710 l 1,6,-1
 778 1710 l 1,0,-1
924 0 m 1,7,-1
 924 672 l 1,8,-1
 430 672 l 1,9,-1
 430 0 l 1,10,-1
 137 0 l 1,11,-1
 137 1567 l 1,12,-1
 430 1567 l 1,13,-1
 430 934 l 1,14,-1
 924 934 l 1,15,-1
 924 1567 l 1,16,-1
 1217 1567 l 1,17,-1
 1217 0 l 1,18,-1
 924 0 l 1,7,-1
EndSplineSet
Position2: "'cpsp' Capital Spacing lookup 0 subtable" dx=12 dy=0 dh=27 dv=0
EndChar

StartChar: I
Encoding: 73 73 45
Width: 522
VWidth: 2586
GlyphClass: 2
Flags: W
HStem: 0 43G<115 406> 1526 41G<115 406>
VStem: 115 291<0 1567>
AnchorPoint: "Anchor-1" 0 0 basechar 0
AnchorPoint: "Anchor-0" 262 1567 basechar 0
LayerCount: 2
Back
Fore
SplineSet
115 1567 m 1,0,-1
 406 1567 l 1,1,-1
 406 0 l 1,2,-1
 115 0 l 1,3,-1
 115 1567 l 1,0,-1
EndSplineSet
Position2: "'cpsp' Capital Spacing lookup 0 subtable" dx=12 dy=0 dh=27 dv=0
EndChar

StartChar: IJ
Encoding: 306 306 46
Width: 1564
VWidth: 2586
GlyphClass: 2
Flags: W
HStem: -29 254<872 1091> 0 43G<115 406> 1526 41G<115 406 1133 1427>
VStem: 115 291<0 1567> 543 291<269 494> 1133 295<269 1567>
LayerCount: 2
Back
Fore
SplineSet
115 0 m 1,0,-1
 115 1567 l 1,1,-1
 406 1567 l 1,2,-1
 406 0 l 1,3,-1
 115 0 l 1,0,-1
1427 373 m 2,4,5
 1427 177 1427 177 1313 74 c 128,-1,6
 1199 -29 1199 -29 985 -29 c 128,-1,7
 771 -29 771 -29 657 74 c 128,-1,8
 543 177 543 177 543 373 c 2,9,-1
 543 494 l 1,10,-1
 834 494 l 1,11,-1
 834 395 l 2,12,13
 834 225 834 225 983.5 225 c 0,14,15
 1133 225 1133 225 1133 395 c 2,16,-1
 1133 1567 l 1,17,-1
 1427 1567 l 1,18,-1
 1427 373 l 2,4,5
EndSplineSet
Position2: "'cpsp' Capital Spacing lookup 0 subtable" dx=12 dy=0 dh=27 dv=0
EndChar

StartChar: Iacute
Encoding: 205 205 47
Width: 522
VWidth: 2586
GlyphClass: 2
Flags: W
HStem: 0 43G<115 406> 1526 41G<115 406>
VStem: 115 291<0 1567>
LayerCount: 2
Back
Fore
SplineSet
332 1718 m 1,0,-1
 104 1718 l 1,1,-1
 301 2019 l 1,2,-1
 573 2019 l 1,3,-1
 332 1718 l 1,0,-1
115 0 m 1,4,-1
 115 1567 l 1,5,-1
 406 1567 l 1,6,-1
 406 0 l 1,7,-1
 115 0 l 1,4,-1
EndSplineSet
Position2: "'cpsp' Capital Spacing lookup 0 subtable" dx=12 dy=0 dh=27 dv=0
EndChar

StartChar: Ibreve
Encoding: 300 300 48
Width: 522
VWidth: 2586
GlyphClass: 2
Flags: W
HStem: 0 43G<115 406> 1526 41G<115 406> 1774 170<147 378>
VStem: 115 291<0 1567>
LayerCount: 2
Back
Fore
SplineSet
567 2019 m 1,0,1
 567 1925 567 1925 481.5 1849.5 c 128,-1,2
 396 1774 396 1774 262 1774 c 128,-1,3
 128 1774 128 1774 40.5 1849.5 c 128,-1,4
 -47 1925 -47 1925 -47 2019 c 1,5,-1
 127 2019 l 1,6,7
 132 1992 132 1992 170.5 1968 c 128,-1,8
 209 1944 209 1944 263 1944 c 0,9,10
 317 1944 317 1944 355.5 1968 c 128,-1,11
 394 1992 394 1992 399 2019 c 1,12,-1
 567 2019 l 1,0,1
115 1567 m 1,13,-1
 406 1567 l 1,14,-1
 406 0 l 1,15,-1
 115 0 l 1,16,-1
 115 1567 l 1,13,-1
EndSplineSet
Position2: "'cpsp' Capital Spacing lookup 0 subtable" dx=12 dy=0 dh=27 dv=0
EndChar

StartChar: Icircumflex
Encoding: 206 206 49
Width: 522
VWidth: 2586
GlyphClass: 2
Flags: W
HStem: 0 43G<115 406> 1526 41G<115 406>
VStem: 115 291<0 1567>
LayerCount: 2
Back
Fore
SplineSet
264 1868 m 1,0,-1
 160 1710 l 1,1,-1
 -49 1710 l 1,2,-1
 150 2019 l 1,3,-1
 375 2019 l 1,4,-1
 569 1710 l 1,5,-1
 365 1710 l 1,6,-1
 264 1868 l 1,0,-1
115 1567 m 1,7,-1
 406 1567 l 1,8,-1
 406 0 l 1,9,-1
 115 0 l 1,10,-1
 115 1567 l 1,7,-1
EndSplineSet
Position2: "'cpsp' Capital Spacing lookup 0 subtable" dx=12 dy=0 dh=27 dv=0
EndChar

StartChar: Idieresis
Encoding: 207 207 50
Width: 522
VWidth: 2586
GlyphClass: 2
Flags: W
HStem: 0 43G<115 406> 1526 41G<115 406> 1769 250<-51 176 346 578>
VStem: -51 227<1769 2019> 115 291<0 1567> 346 231<1769 2019>
LayerCount: 2
Back
Fore
SplineSet
-51 1769 m 1,0,-1
 -51 2019 l 1,1,-1
 176 2019 l 1,2,-1
 176 1769 l 1,3,-1
 -51 1769 l 1,0,-1
346 1769 m 1,4,-1
 346 2019 l 1,5,-1
 578 2019 l 1,6,-1
 578 1769 l 1,7,-1
 346 1769 l 1,4,-1
115 0 m 1,8,-1
 115 1567 l 1,9,-1
 406 1567 l 1,10,-1
 406 0 l 1,11,-1
 115 0 l 1,8,-1
EndSplineSet
Position2: "'cpsp' Capital Spacing lookup 0 subtable" dx=12 dy=0 dh=27 dv=0
EndChar

StartChar: Idotaccent
Encoding: 304 304 51
Width: 522
VWidth: 2586
GlyphClass: 2
Flags: W
HStem: 0 43G<115 406> 1526 41G<115 406> 1757 262<139 385>
VStem: 115 291<0 1567> 139 246<1757 2019>
LayerCount: 2
Back
Fore
SplineSet
139 2019 m 1,0,-1
 385 2019 l 1,1,-1
 385 1757 l 1,2,-1
 139 1757 l 1,3,-1
 139 2019 l 1,0,-1
115 1567 m 1,4,-1
 406 1567 l 1,5,-1
 406 0 l 1,6,-1
 115 0 l 1,7,-1
 115 1567 l 1,4,-1
EndSplineSet
Position2: "'cpsp' Capital Spacing lookup 0 subtable" dx=12 dy=0 dh=27 dv=0
EndChar

StartChar: Igrave
Encoding: 204 204 52
Width: 522
VWidth: 2586
GlyphClass: 2
Flags: W
HStem: 0 43G<115 406> 1526 41G<115 406>
VStem: 115 291<0 1567>
LayerCount: 2
Back
Fore
SplineSet
190 1718 m 1,0,-1
 -58 2017 l 1,1,-1
 223 2017 l 1,2,-1
 420 1718 l 1,3,-1
 190 1718 l 1,0,-1
115 0 m 1,4,-1
 115 1567 l 1,5,-1
 406 1567 l 1,6,-1
 406 0 l 1,7,-1
 115 0 l 1,4,-1
EndSplineSet
Position2: "'cpsp' Capital Spacing lookup 0 subtable" dx=12 dy=0 dh=27 dv=0
EndChar

StartChar: Imacron
Encoding: 298 298 53
Width: 522
VWidth: 2586
GlyphClass: 2
Flags: W
HStem: 0 43G<115 406> 1526 41G<115 406> 1735 201<-31 553>
VStem: 115 291<0 1567>
LayerCount: 2
Back
Fore
SplineSet
-31 1935 m 1,0,-1
 553 1935 l 1,1,-1
 553 1735 l 1,2,-1
 -31 1735 l 1,3,-1
 -31 1935 l 1,0,-1
115 1567 m 1,4,-1
 406 1567 l 1,5,-1
 406 0 l 1,6,-1
 115 0 l 1,7,-1
 115 1567 l 1,4,-1
EndSplineSet
Position2: "'cpsp' Capital Spacing lookup 0 subtable" dx=12 dy=0 dh=27 dv=0
EndChar

StartChar: Iogonek
Encoding: 302 302 54
Width: 522
VWidth: 2586
GlyphClass: 2
Flags: W
HStem: -434 158<355 489> -403 127<356 492> 1526 41G<115 406>
VStem: 115 291<0 1567> 115 223<-258 -69>
LayerCount: 2
Back
Fore
SplineSet
406 0 m 1,0,1
 338 -92 338 -92 338 -151 c 128,-1,2
 338 -210 338 -210 363 -243 c 128,-1,3
 388 -276 388 -276 442 -276 c 2,4,-1
 492 -276 l 1,5,-1
 492 -403 l 1,6,7
 413 -434 413 -434 356.5 -434 c 128,-1,8
 300 -434 300 -434 262 -423.5 c 128,-1,9
 224 -413 224 -413 190 -390.5 c 128,-1,10
 156 -368 156 -368 135.5 -326 c 128,-1,11
 115 -284 115 -284 115 -219 c 128,-1,12
 115 -154 115 -154 141 -102 c 128,-1,13
 167 -50 167 -50 215 0 c 1,14,-1
 115 0 l 1,15,-1
 115 1567 l 1,16,-1
 406 1567 l 1,17,-1
 406 0 l 1,0,1
EndSplineSet
Position2: "'cpsp' Capital Spacing lookup 0 subtable" dx=12 dy=0 dh=27 dv=0
EndChar

StartChar: Itilde
Encoding: 296 296 55
Width: 522
VWidth: 2586
GlyphClass: 2
Flags: W
HStem: 0 43G<115 406> 1526 41G<115 406> 1741 195<260 477> 1823 197<45 264>
VStem: -125 154<1741 1813> 115 291<0 1567> 494 154<1946 2019>
LayerCount: 2
Back
Fore
SplineSet
647 2019 m 1,0,1
 647 1969 647 1969 634 1921.5 c 128,-1,2
 621 1874 621 1874 595 1832.5 c 128,-1,3
 569 1791 569 1791 524 1766 c 128,-1,4
 479 1741 479 1741 422 1740.5 c 0,5,6
 365 1740 365 1740 267.5 1781 c 128,-1,7
 170 1822 170 1822 119 1823 c 0,8,9
 42 1823 42 1823 29 1741 c 1,10,-1
 -125 1741 l 1,11,12
 -125 1790 -125 1790 -112 1837.5 c 128,-1,13
 -99 1885 -99 1885 -73 1926.5 c 128,-1,14
 -47 1968 -47 1968 -2 1993.5 c 128,-1,15
 43 2019 43 2019 100.5 2019.5 c 0,16,17
 158 2020 158 2020 256 1978 c 128,-1,18
 354 1936 354 1936 399.5 1935.5 c 0,19,20
 445 1935 445 1935 466 1953.5 c 128,-1,21
 487 1972 487 1972 494 2019 c 1,22,-1
 647 2019 l 1,0,1
115 1567 m 1,23,-1
 406 1567 l 1,24,-1
 406 0 l 1,25,-1
 115 0 l 1,26,-1
 115 1567 l 1,23,-1
EndSplineSet
Position2: "'cpsp' Capital Spacing lookup 0 subtable" dx=12 dy=0 dh=27 dv=0
EndChar

StartChar: J
Encoding: 74 74 56
Width: 1040
VWidth: 2586
GlyphClass: 2
Flags: W
HStem: -29 254<351 575> 1526 41G<612 905>
VStem: 20 291<269 494> 612 293<269 1567>
AnchorPoint: "Anchor-1" 0 0 basechar 0
AnchorPoint: "Anchor-0" 522 1567 basechar 0
LayerCount: 2
Back
Fore
SplineSet
905 373 m 2,0,1
 905 177 905 177 791 74 c 128,-1,2
 677 -29 677 -29 463.5 -29 c 0,3,4
 250 -29 250 -29 135 74 c 128,-1,5
 20 177 20 177 20 373 c 2,6,-1
 20 494 l 1,7,-1
 311 494 l 1,8,-1
 311 395 l 2,9,10
 311 312 311 312 350 268.5 c 128,-1,11
 389 225 389 225 463 225 c 0,12,13
 612 225 612 225 612 395 c 2,14,-1
 612 1567 l 1,15,-1
 905 1567 l 1,16,-1
 905 373 l 2,0,1
EndSplineSet
Position2: "'cpsp' Capital Spacing lookup 0 subtable" dx=12 dy=0 dh=27 dv=0
EndChar

StartChar: Jcircumflex
Encoding: 308 308 57
Width: 1040
VWidth: 2586
GlyphClass: 2
Flags: W
HStem: -29 254<351 575> 1526 41G<612 905>
VStem: 20 291<269 494> 612 293<269 1567>
LayerCount: 2
Back
Fore
SplineSet
893 1710 m 1,0,-1
 788 1868 l 1,1,-1
 686 1710 l 1,2,-1
 481 1710 l 1,3,-1
 678 2019 l 1,4,-1
 903 2019 l 1,5,-1
 1094 1710 l 1,6,-1
 893 1710 l 1,0,-1
905 373 m 2,7,8
 905 177 905 177 791 74 c 128,-1,9
 677 -29 677 -29 463.5 -29 c 0,10,11
 250 -29 250 -29 135 74 c 128,-1,12
 20 177 20 177 20 373 c 2,13,-1
 20 494 l 1,14,-1
 311 494 l 1,15,-1
 311 395 l 2,16,17
 311 312 311 312 350 268.5 c 128,-1,18
 389 225 389 225 463 225 c 0,19,20
 612 225 612 225 612 395 c 2,21,-1
 612 1567 l 1,22,-1
 905 1567 l 1,23,-1
 905 373 l 2,7,8
EndSplineSet
Position2: "'cpsp' Capital Spacing lookup 0 subtable" dx=12 dy=0 dh=27 dv=0
EndChar

StartChar: K
Encoding: 75 75 58
Width: 1351
VWidth: 2586
GlyphClass: 2
Flags: W
HStem: 0 43G<137 432 996 1348> 1526 41G<137 432 976 1331>
VStem: 137 295<0 401 766 1567>
AnchorPoint: "Anchor-1" 678 0 basechar 0
AnchorPoint: "Anchor-0" 678 1567 basechar 0
LayerCount: 2
Back
Fore
SplineSet
432 0 m 1,0,-1
 137 0 l 1,1,-1
 137 1567 l 1,2,-1
 432 1567 l 1,3,-1
 432 766 l 1,4,-1
 1006 1567 l 1,5,-1
 1331 1567 l 1,6,-1
 868 932 l 1,7,-1
 1348 0 l 1,8,-1
 1016 0 l 1,9,-1
 678 700 l 1,10,-1
 432 401 l 1,11,-1
 432 0 l 1,0,-1
EndSplineSet
Position2: "'cpsp' Capital Spacing lookup 0 subtable" dx=12 dy=0 dh=27 dv=0
EndChar

StartChar: Kcommaaccent
Encoding: 310 310 59
Width: 1351
VWidth: 2586
GlyphClass: 2
Flags: W
HStem: 0 43G<137 432 996 1348> 1526 41G<137 432 976 1331>
VStem: 137 295<0 401 766 1567> 535 283<-383 -127>
LayerCount: 2
Back
Fore
SplineSet
432 0 m 1,0,-1
 137 0 l 1,1,-1
 137 1567 l 1,2,-1
 432 1567 l 1,3,-1
 432 766 l 1,4,-1
 1006 1567 l 1,5,-1
 1331 1567 l 1,6,-1
 868 932 l 1,7,-1
 1348 0 l 1,8,-1
 1016 0 l 1,9,-1
 678 700 l 1,10,-1
 432 401 l 1,11,-1
 432 0 l 1,0,-1
535 -406 m 1,12,-1
 535 -127 l 1,13,-1
 817 -127 l 1,14,-1
 817 -383 l 1,15,-1
 715 -600 l 1,16,-1
 567 -600 l 1,17,-1
 647 -406 l 1,18,-1
 535 -406 l 1,12,-1
EndSplineSet
Position2: "'cpsp' Capital Spacing lookup 0 subtable" dx=12 dy=0 dh=27 dv=0
EndChar

StartChar: L
Encoding: 76 76 60
Width: 1144
VWidth: 2586
GlyphClass: 2
Flags: W
HStem: 0 274<430 1094> 1526 41G<137 430>
VStem: 137 293<274 1567>
AnchorPoint: "Anchor-1" 573 0 basechar 0
AnchorPoint: "Anchor-0" 573 1567 basechar 0
LayerCount: 2
Back
Fore
SplineSet
1094 274 m 1,0,-1
 1094 0 l 1,1,-1
 137 0 l 1,2,-1
 137 1567 l 1,3,-1
 430 1567 l 1,4,-1
 430 274 l 1,5,-1
 1094 274 l 1,0,-1
EndSplineSet
Position2: "'cpsp' Capital Spacing lookup 0 subtable" dx=12 dy=0 dh=27 dv=0
EndChar

StartChar: Lacute
Encoding: 313 313 61
Width: 1144
VWidth: 2586
GlyphClass: 2
Flags: W
HStem: 0 274<430 1094> 1526 41G<137 430>
VStem: 137 293<274 1567>
LayerCount: 2
Back
Fore
SplineSet
360 1718 m 1,0,-1
 131 1718 l 1,1,-1
 328 2019 l 1,2,-1
 602 2019 l 1,3,-1
 360 1718 l 1,0,-1
1094 274 m 1,4,-1
 1094 0 l 1,5,-1
 137 0 l 1,6,-1
 137 1567 l 1,7,-1
 430 1567 l 1,8,-1
 430 274 l 1,9,-1
 1094 274 l 1,4,-1
EndSplineSet
Position2: "'cpsp' Capital Spacing lookup 0 subtable" dx=12 dy=0 dh=27 dv=0
EndChar

StartChar: Lcaron
Encoding: 317 317 62
Width: 1144
VWidth: 2586
GlyphClass: 2
Flags: W
HStem: 0 274<430 1094> 1526 41G<137 430 778 1094>
VStem: 137 293<274 1567> 778 315<1282 1567>
LayerCount: 2
Back
Fore
SplineSet
1094 274 m 1,0,-1
 1094 0 l 1,1,-1
 137 0 l 1,2,-1
 137 1567 l 1,3,-1
 430 1567 l 1,4,-1
 430 274 l 1,5,-1
 1094 274 l 1,0,-1
778 1255 m 1,6,-1
 778 1567 l 1,7,-1
 1094 1567 l 1,8,-1
 1094 1282 l 1,9,-1
 942 897 l 1,10,-1
 778 897 l 1,11,-1
 903 1255 l 1,12,-1
 778 1255 l 1,6,-1
EndSplineSet
Position2: "'cpsp' Capital Spacing lookup 0 subtable" dx=12 dy=0 dh=27 dv=0
EndChar

StartChar: Lcommaaccent
Encoding: 315 315 63
Width: 1144
VWidth: 2586
GlyphClass: 2
Flags: W
HStem: 0 274<430 1094> 1526 41G<137 430>
VStem: 137 293<274 1567> 432 283<-383 -127>
LayerCount: 2
Back
Fore
SplineSet
1094 274 m 1,0,-1
 1094 0 l 1,1,-1
 137 0 l 1,2,-1
 137 1567 l 1,3,-1
 430 1567 l 1,4,-1
 430 274 l 1,5,-1
 1094 274 l 1,0,-1
432 -406 m 1,6,-1
 432 -127 l 1,7,-1
 715 -127 l 1,8,-1
 715 -383 l 1,9,-1
 610 -600 l 1,10,-1
 463 -600 l 1,11,-1
 543 -406 l 1,12,-1
 432 -406 l 1,6,-1
EndSplineSet
Position2: "'cpsp' Capital Spacing lookup 0 subtable" dx=12 dy=0 dh=27 dv=0
EndChar

StartChar: Ldot
Encoding: 319 319 64
Width: 1144
VWidth: 2586
GlyphClass: 2
Flags: W
HStem: 0 274<430 1094> 936 262<717 961> 1526 41G<137 430>
VStem: 137 293<274 1567> 717 244<936 1198>
LayerCount: 2
Back
Fore
SplineSet
1094 274 m 1,0,-1
 1094 0 l 1,1,-1
 137 0 l 1,2,-1
 137 1567 l 1,3,-1
 430 1567 l 1,4,-1
 430 274 l 1,5,-1
 1094 274 l 1,0,-1
717 936 m 1,6,-1
 717 1198 l 1,7,-1
 961 1198 l 1,8,-1
 961 936 l 1,9,-1
 717 936 l 1,6,-1
EndSplineSet
Ligature2: "Ligature Substitution lookup 39 subtable" L periodcentered
Position2: "'cpsp' Capital Spacing lookup 0 subtable" dx=12 dy=0 dh=27 dv=0
EndChar

StartChar: Lslash
Encoding: 321 321 65
Width: 1144
VWidth: 2586
GlyphClass: 2
Flags: W
HStem: 0 274<430 1094> 1526 41G<137 430>
VStem: 137 293<274 543 758 799 1020 1567>
LayerCount: 2
Back
Fore
SplineSet
430 274 m 1,0,-1
 1094 274 l 1,1,-1
 1094 0 l 1,2,-1
 137 0 l 1,3,-1
 137 543 l 1,4,-1
 0 422 l 1,5,-1
 0 639 l 1,6,-1
 137 758 l 1,7,-1
 137 1567 l 1,8,-1
 430 1567 l 1,9,-1
 430 1020 l 1,10,-1
 696 1257 l 1,11,-1
 696 1034 l 1,12,-1
 430 799 l 1,13,-1
 430 274 l 1,0,-1
EndSplineSet
Position2: "'cpsp' Capital Spacing lookup 0 subtable" dx=12 dy=0 dh=27 dv=0
EndChar

StartChar: M
Encoding: 77 77 66
Width: 1560
VWidth: 2586
GlyphClass: 2
Flags: W
HStem: 0 43G<121 371 634 906 1171 1440> 1526 41G<121 542 1033 1440>
VStem: 121 250<0 1252> 1171 268<0 1195>
LayerCount: 2
Back
Fore
SplineSet
371 0 m 1,0,-1
 121 0 l 1,1,-1
 121 1567 l 1,2,-1
 532 1567 l 1,3,-1
 806 354 l 1,4,5
 832 615 832 615 852 705 c 2,6,-1
 1042 1567 l 1,7,-1
 1440 1567 l 1,8,-1
 1440 0 l 1,9,-1
 1171 0 l 1,10,-1
 1171 1195 l 1,11,-1
 897 0 l 1,12,-1
 643 0 l 1,13,-1
 371 1252 l 1,14,-1
 371 0 l 1,0,-1
EndSplineSet
Position2: "'cpsp' Capital Spacing lookup 0 subtable" dx=12 dy=0 dh=27 dv=0
EndChar

StartChar: N
Encoding: 78 78 67
Width: 1351
VWidth: 2586
GlyphClass: 2
Flags: W
HStem: 0 43G<137 390 933 1217> 1526 41G<137 418 952 1217>
VStem: 137 253<0 1009> 952 264<566 1567>
AnchorPoint: "Anchor-1" 678 0 basechar 0
AnchorPoint: "Anchor-0" 678 1567 basechar 0
LayerCount: 2
Back
Fore
SplineSet
137 0 m 1,0,-1
 137 1567 l 1,1,-1
 395 1567 l 1,2,-1
 952 566 l 1,3,-1
 952 1567 l 1,4,-1
 1217 1567 l 1,5,-1
 1217 0 l 1,6,-1
 956 0 l 1,7,-1
 390 1009 l 1,8,-1
 390 0 l 1,9,-1
 137 0 l 1,0,-1
EndSplineSet
Position2: "'cpsp' Capital Spacing lookup 0 subtable" dx=12 dy=0 dh=27 dv=0
EndChar

StartChar: Nacute
Encoding: 323 323 68
Width: 1351
VWidth: 2586
GlyphClass: 2
Flags: W
HStem: 0 43G<137 390 933 1217> 1526 41G<137 418 952 1217>
VStem: 137 253<0 1009> 952 264<566 1567>
LayerCount: 2
Back
Fore
SplineSet
745 1718 m 1,0,-1
 520 1718 l 1,1,-1
 717 2019 l 1,2,-1
 991 2019 l 1,3,-1
 745 1718 l 1,0,-1
137 0 m 1,4,-1
 137 1567 l 1,5,-1
 395 1567 l 1,6,-1
 952 566 l 1,7,-1
 952 1567 l 1,8,-1
 1217 1567 l 1,9,-1
 1217 0 l 1,10,-1
 956 0 l 1,11,-1
 390 1009 l 1,12,-1
 390 0 l 1,13,-1
 137 0 l 1,4,-1
EndSplineSet
Position2: "'cpsp' Capital Spacing lookup 0 subtable" dx=12 dy=0 dh=27 dv=0
EndChar

StartChar: Ncaron
Encoding: 327 327 69
Width: 1351
VWidth: 2586
GlyphClass: 2
Flags: W
HStem: 0 43G<137 390 933 1217> 1526 41G<137 418 952 1217>
VStem: 137 253<0 1009> 952 264<566 1567>
LayerCount: 2
Back
Fore
SplineSet
567 1710 m 1,0,-1
 371 2019 l 1,1,-1
 573 2019 l 1,2,-1
 678 1862 l 1,3,-1
 778 2019 l 1,4,-1
 985 2019 l 1,5,-1
 791 1710 l 1,6,-1
 567 1710 l 1,0,-1
137 0 m 1,7,-1
 137 1567 l 1,8,-1
 395 1567 l 1,9,-1
 952 566 l 1,10,-1
 952 1567 l 1,11,-1
 1217 1567 l 1,12,-1
 1217 0 l 1,13,-1
 956 0 l 1,14,-1
 390 1009 l 1,15,-1
 390 0 l 1,16,-1
 137 0 l 1,7,-1
EndSplineSet
Position2: "'cpsp' Capital Spacing lookup 0 subtable" dx=12 dy=0 dh=27 dv=0
EndChar

StartChar: Ncommaaccent
Encoding: 325 325 70
Width: 1351
VWidth: 2586
GlyphClass: 2
Flags: W
HStem: 0 43G<137 390 933 1217> 1526 41G<137 418 952 1217>
VStem: 137 253<0 1009> 535 283<-383 -127> 952 264<566 1567>
LayerCount: 2
Back
Fore
SplineSet
137 0 m 1,0,-1
 137 1567 l 1,1,-1
 395 1567 l 1,2,-1
 952 566 l 1,3,-1
 952 1567 l 1,4,-1
 1217 1567 l 1,5,-1
 1217 0 l 1,6,-1
 956 0 l 1,7,-1
 390 1009 l 1,8,-1
 390 0 l 1,9,-1
 137 0 l 1,0,-1
535 -406 m 1,10,-1
 535 -127 l 1,11,-1
 817 -127 l 1,12,-1
 817 -383 l 1,13,-1
 715 -600 l 1,14,-1
 567 -600 l 1,15,-1
 647 -406 l 1,16,-1
 535 -406 l 1,10,-1
EndSplineSet
Position2: "'cpsp' Capital Spacing lookup 0 subtable" dx=12 dy=0 dh=27 dv=0
EndChar

StartChar: Eng
Encoding: 330 330 71
Width: 1353
VWidth: 2586
GlyphClass: 2
Flags: W
HStem: -416 229<742 934> -387 201<739 933> 0 43G<137 395> 1526 41G<137 418 952 1217>
VStem: 137 258<0 1000> 952 264<-167 0 566 1567>
LayerCount: 2
Back
Fore
SplineSet
1217 -92 m 2,0,1
 1217 -156 1217 -156 1203.5 -210.5 c 128,-1,2
 1190 -265 1190 -265 1159.5 -313 c 128,-1,3
 1129 -361 1129 -361 1072 -388.5 c 128,-1,4
 1015 -416 1015 -416 919.5 -416 c 0,5,6
 824 -416 824 -416 739 -387 c 1,7,-1
 739 -186 l 1,8,-1
 840 -186 l 2,9,10
 950 -186 950 -186 950 -76 c 2,11,-1
 950 0 l 1,12,-1
 395 1000 l 1,13,-1
 395 0 l 1,14,-1
 137 0 l 1,15,-1
 137 1567 l 1,16,-1
 395 1567 l 1,17,-1
 952 566 l 1,18,-1
 952 1567 l 1,19,-1
 1217 1567 l 1,20,-1
 1217 -92 l 2,0,1
EndSplineSet
Position2: "'cpsp' Capital Spacing lookup 0 subtable" dx=12 dy=0 dh=27 dv=0
EndChar

StartChar: Ntilde
Encoding: 209 209 72
Width: 1351
VWidth: 2586
GlyphClass: 2
Flags: W
HStem: 0 43G<137 390 933 1217> 1526 41G<137 418 952 1217> 1741 195<673 897> 1823 197<456 678>
VStem: 137 253<0 1009> 293 150<1741 1813> 911 150<1946 2019> 952 264<566 1567>
LayerCount: 2
Back
Fore
SplineSet
1061 2019 m 1,0,1
 1061 1969 1061 1969 1048 1921.5 c 128,-1,2
 1035 1874 1035 1874 1009 1832.5 c 128,-1,3
 983 1791 983 1791 938 1766 c 128,-1,4
 893 1741 893 1741 836 1740.5 c 0,5,6
 779 1740 779 1740 681 1781 c 128,-1,7
 583 1822 583 1822 532 1823 c 0,8,9
 455 1823 455 1823 442 1741 c 1,10,-1
 293 1741 l 1,11,12
 293 1790 293 1790 306 1837.5 c 128,-1,13
 319 1885 319 1885 345 1926.5 c 128,-1,14
 371 1968 371 1968 416 1993.5 c 128,-1,15
 461 2019 461 2019 517.5 2019.5 c 0,16,17
 574 2020 574 2020 671.5 1978 c 128,-1,18
 769 1936 769 1936 813.5 1935.5 c 0,19,20
 858 1935 858 1935 881 1953.5 c 128,-1,21
 904 1972 904 1972 911 2019 c 1,22,-1
 1061 2019 l 1,0,1
137 0 m 1,23,-1
 137 1567 l 1,24,-1
 395 1567 l 1,25,-1
 952 566 l 1,26,-1
 952 1567 l 1,27,-1
 1217 1567 l 1,28,-1
 1217 0 l 1,29,-1
 956 0 l 1,30,-1
 390 1009 l 1,31,-1
 390 0 l 1,32,-1
 137 0 l 1,23,-1
EndSplineSet
Position2: "'cpsp' Capital Spacing lookup 0 subtable" dx=12 dy=0 dh=27 dv=0
EndChar

StartChar: O
Encoding: 79 79 73
Width: 1458
VWidth: 2586
GlyphClass: 2
Flags: W
HStem: -29 254<564 894> 1346 250<564 894>
VStem: 78 303<443 1125> 1079 301<451 1117>
AnchorPoint: "Anchor-1" 0 0 basechar 0
AnchorPoint: "Anchor-0" 729 1567 basechar 0
LayerCount: 2
Back
Fore
SplineSet
729 1595 m 128,-1,1
 1039 1595 1039 1595 1209.5 1392.5 c 128,-1,2
 1380 1190 1380 1190 1380 784 c 128,-1,3
 1380 378 1380 378 1209.5 174.5 c 128,-1,4
 1039 -29 1039 -29 729 -29 c 128,-1,5
 419 -29 419 -29 248.5 174.5 c 128,-1,6
 78 378 78 378 78 784 c 128,-1,7
 78 1190 78 1190 248.5 1392.5 c 128,-1,0
 419 1595 419 1595 729 1595 c 128,-1,1
729 1346 m 128,-1,9
 557 1346 557 1346 469 1213 c 128,-1,10
 381 1080 381 1080 381 840 c 2,11,-1
 381 727 l 2,12,13
 381 488 381 488 469 356.5 c 128,-1,14
 557 225 557 225 729 225 c 128,-1,15
 901 225 901 225 990 356.5 c 128,-1,16
 1079 488 1079 488 1079 727 c 2,17,-1
 1079 840 l 2,18,19
 1079 1079 1079 1079 990 1212.5 c 128,-1,8
 901 1346 901 1346 729 1346 c 128,-1,9
EndSplineSet
Substitution2: "Single Substitution lookup 40 subtable" ordmasculine
Substitution2: "'aalt' Access All Alternates lookup 0 subtable" ordmasculine
Position2: "'cpsp' Capital Spacing lookup 0 subtable" dx=12 dy=0 dh=27 dv=0
EndChar

StartChar: Oacute
Encoding: 211 211 74
Width: 1458
VWidth: 2586
GlyphClass: 2
Flags: W
HStem: -29 254<564 894> 1346 250<564 894>
VStem: 78 303<443 1125> 1079 301<451 1117>
LayerCount: 2
Back
Fore
SplineSet
799 1718 m 1,0,-1
 571 1718 l 1,1,-1
 768 2019 l 1,2,-1
 1044 2019 l 1,3,-1
 799 1718 l 1,0,-1
729 1595 m 128,-1,5
 1039 1595 1039 1595 1209.5 1392.5 c 128,-1,6
 1380 1190 1380 1190 1380 784 c 128,-1,7
 1380 378 1380 378 1209.5 174.5 c 128,-1,8
 1039 -29 1039 -29 729 -29 c 128,-1,9
 419 -29 419 -29 248.5 174.5 c 128,-1,10
 78 378 78 378 78 784 c 128,-1,11
 78 1190 78 1190 248.5 1392.5 c 128,-1,4
 419 1595 419 1595 729 1595 c 128,-1,5
729 1346 m 128,-1,13
 557 1346 557 1346 469 1213 c 128,-1,14
 381 1080 381 1080 381 840 c 2,15,-1
 381 727 l 2,16,17
 381 488 381 488 469 356.5 c 128,-1,18
 557 225 557 225 729 225 c 128,-1,19
 901 225 901 225 990 356.5 c 128,-1,20
 1079 488 1079 488 1079 727 c 2,21,-1
 1079 840 l 2,22,23
 1079 1079 1079 1079 990 1212.5 c 128,-1,12
 901 1346 901 1346 729 1346 c 128,-1,13
EndSplineSet
Position2: "'cpsp' Capital Spacing lookup 0 subtable" dx=12 dy=0 dh=27 dv=0
EndChar

StartChar: Obreve
Encoding: 334 334 75
Width: 1458
VWidth: 2586
GlyphClass: 2
Flags: W
HStem: -29 254<564 894> 1346 250<564 894> 1774 170<615 845>
VStem: 78 303<443 1125> 1079 301<451 1117>
LayerCount: 2
Back
Fore
SplineSet
1034 2019 m 1,0,1
 1034 1925 1034 1925 948.5 1849.5 c 128,-1,2
 863 1774 863 1774 729.5 1774 c 0,3,4
 596 1774 596 1774 510 1849.5 c 128,-1,5
 424 1925 424 1925 424 2019 c 1,6,-1
 594 2019 l 1,7,8
 599 1992 599 1992 637.5 1968 c 128,-1,9
 676 1944 676 1944 730 1944 c 0,10,11
 784 1944 784 1944 822.5 1968 c 128,-1,12
 861 1992 861 1992 866 2019 c 1,13,-1
 1034 2019 l 1,0,1
729 1595 m 128,-1,15
 1039 1595 1039 1595 1209.5 1392.5 c 128,-1,16
 1380 1190 1380 1190 1380 784 c 128,-1,17
 1380 378 1380 378 1209.5 174.5 c 128,-1,18
 1039 -29 1039 -29 729 -29 c 128,-1,19
 419 -29 419 -29 248.5 174.5 c 128,-1,20
 78 378 78 378 78 784 c 128,-1,21
 78 1190 78 1190 248.5 1392.5 c 128,-1,14
 419 1595 419 1595 729 1595 c 128,-1,15
729 1346 m 128,-1,23
 557 1346 557 1346 469 1213 c 128,-1,24
 381 1080 381 1080 381 840 c 2,25,-1
 381 727 l 2,26,27
 381 488 381 488 469 356.5 c 128,-1,28
 557 225 557 225 729 225 c 128,-1,29
 901 225 901 225 990 356.5 c 128,-1,30
 1079 488 1079 488 1079 727 c 2,31,-1
 1079 840 l 2,32,33
 1079 1079 1079 1079 990 1212.5 c 128,-1,22
 901 1346 901 1346 729 1346 c 128,-1,23
EndSplineSet
Position2: "'cpsp' Capital Spacing lookup 0 subtable" dx=12 dy=0 dh=27 dv=0
EndChar

StartChar: Ocircumflex
Encoding: 212 212 76
Width: 1458
VWidth: 2586
GlyphClass: 2
Flags: W
HStem: -29 254<564 894> 1346 250<564 894>
VStem: 78 303<443 1125> 1079 301<451 1117>
LayerCount: 2
Back
Fore
SplineSet
731 1868 m 1,0,-1
 629 1710 l 1,1,-1
 424 1710 l 1,2,-1
 621 2019 l 1,3,-1
 844 2019 l 1,4,-1
 1036 1710 l 1,5,-1
 834 1710 l 1,6,-1
 731 1868 l 1,0,-1
729 1595 m 128,-1,8
 1039 1595 1039 1595 1209.5 1392.5 c 128,-1,9
 1380 1190 1380 1190 1380 784 c 128,-1,10
 1380 378 1380 378 1209.5 174.5 c 128,-1,11
 1039 -29 1039 -29 729 -29 c 128,-1,12
 419 -29 419 -29 248.5 174.5 c 128,-1,13
 78 378 78 378 78 784 c 128,-1,14
 78 1190 78 1190 248.5 1392.5 c 128,-1,7
 419 1595 419 1595 729 1595 c 128,-1,8
729 1346 m 128,-1,16
 557 1346 557 1346 469 1213 c 128,-1,17
 381 1080 381 1080 381 840 c 2,18,-1
 381 727 l 2,19,20
 381 488 381 488 469 356.5 c 128,-1,21
 557 225 557 225 729 225 c 128,-1,22
 901 225 901 225 990 356.5 c 128,-1,23
 1079 488 1079 488 1079 727 c 2,24,-1
 1079 840 l 2,25,26
 1079 1079 1079 1079 990 1212.5 c 128,-1,15
 901 1346 901 1346 729 1346 c 128,-1,16
EndSplineSet
Position2: "'cpsp' Capital Spacing lookup 0 subtable" dx=12 dy=0 dh=27 dv=0
EndChar

StartChar: Odieresis
Encoding: 214 214 77
Width: 1458
VWidth: 2586
GlyphClass: 2
Flags: W
HStem: -29 254<564 894> 1346 250<564 894> 1769 250<416 643 817 1044>
VStem: 78 303<443 1125> 416 227<1769 2019> 817 227<1769 2019> 1079 301<451 1117>
LayerCount: 2
Back
Fore
SplineSet
416 1769 m 1,0,-1
 416 2019 l 1,1,-1
 643 2019 l 1,2,-1
 643 1769 l 1,3,-1
 416 1769 l 1,0,-1
817 1769 m 1,4,-1
 817 2019 l 1,5,-1
 1044 2019 l 1,6,-1
 1044 1769 l 1,7,-1
 817 1769 l 1,4,-1
729 1595 m 128,-1,9
 1039 1595 1039 1595 1209.5 1392.5 c 128,-1,10
 1380 1190 1380 1190 1380 784 c 128,-1,11
 1380 378 1380 378 1209.5 174.5 c 128,-1,12
 1039 -29 1039 -29 729 -29 c 128,-1,13
 419 -29 419 -29 248.5 174.5 c 128,-1,14
 78 378 78 378 78 784 c 128,-1,15
 78 1190 78 1190 248.5 1392.5 c 128,-1,8
 419 1595 419 1595 729 1595 c 128,-1,9
729 1346 m 128,-1,17
 557 1346 557 1346 469 1213 c 128,-1,18
 381 1080 381 1080 381 840 c 2,19,-1
 381 727 l 2,20,21
 381 488 381 488 469 356.5 c 128,-1,22
 557 225 557 225 729 225 c 128,-1,23
 901 225 901 225 990 356.5 c 128,-1,24
 1079 488 1079 488 1079 727 c 2,25,-1
 1079 840 l 2,26,27
 1079 1079 1079 1079 990 1212.5 c 128,-1,16
 901 1346 901 1346 729 1346 c 128,-1,17
EndSplineSet
Position2: "'cpsp' Capital Spacing lookup 0 subtable" dx=12 dy=0 dh=27 dv=0
EndChar

StartChar: Ograve
Encoding: 210 210 78
Width: 1458
VWidth: 2586
GlyphClass: 2
Flags: W
HStem: -29 254<564 894> 1346 250<564 894>
VStem: 78 303<443 1125> 1079 301<451 1117>
LayerCount: 2
Back
Fore
SplineSet
659 1718 m 1,0,-1
 411 2017 l 1,1,-1
 690 2017 l 1,2,-1
 887 1718 l 1,3,-1
 659 1718 l 1,0,-1
729 1595 m 128,-1,5
 1039 1595 1039 1595 1209.5 1392.5 c 128,-1,6
 1380 1190 1380 1190 1380 784 c 128,-1,7
 1380 378 1380 378 1209.5 174.5 c 128,-1,8
 1039 -29 1039 -29 729 -29 c 128,-1,9
 419 -29 419 -29 248.5 174.5 c 128,-1,10
 78 378 78 378 78 784 c 128,-1,11
 78 1190 78 1190 248.5 1392.5 c 128,-1,4
 419 1595 419 1595 729 1595 c 128,-1,5
729 1346 m 128,-1,13
 557 1346 557 1346 469 1213 c 128,-1,14
 381 1080 381 1080 381 840 c 2,15,-1
 381 727 l 2,16,17
 381 488 381 488 469 356.5 c 128,-1,18
 557 225 557 225 729 225 c 128,-1,19
 901 225 901 225 990 356.5 c 128,-1,20
 1079 488 1079 488 1079 727 c 2,21,-1
 1079 840 l 2,22,23
 1079 1079 1079 1079 990 1212.5 c 128,-1,12
 901 1346 901 1346 729 1346 c 128,-1,13
EndSplineSet
Position2: "'cpsp' Capital Spacing lookup 0 subtable" dx=12 dy=0 dh=27 dv=0
EndChar

StartChar: Ohungarumlaut
Encoding: 336 336 79
Width: 1458
VWidth: 2586
GlyphClass: 2
Flags: W
HStem: -29 254<564 894> 1346 250<564 894>
VStem: 78 303<443 1125> 1079 301<451 1117>
LayerCount: 2
Back
Fore
SplineSet
655 1718 m 1,0,-1
 473 1718 l 1,1,-1
 616 2019 l 1,2,-1
 844 2019 l 1,3,-1
 655 1718 l 1,0,-1
975 1718 m 1,4,-1
 795 1718 l 1,5,-1
 936 2019 l 1,6,-1
 1163 2019 l 1,7,-1
 975 1718 l 1,4,-1
729 1595 m 128,-1,9
 1039 1595 1039 1595 1209.5 1392.5 c 128,-1,10
 1380 1190 1380 1190 1380 784 c 128,-1,11
 1380 378 1380 378 1209.5 174.5 c 128,-1,12
 1039 -29 1039 -29 729 -29 c 128,-1,13
 419 -29 419 -29 248.5 174.5 c 128,-1,14
 78 378 78 378 78 784 c 128,-1,15
 78 1190 78 1190 248.5 1392.5 c 128,-1,8
 419 1595 419 1595 729 1595 c 128,-1,9
729 1346 m 128,-1,17
 557 1346 557 1346 469 1213 c 128,-1,18
 381 1080 381 1080 381 840 c 2,19,-1
 381 727 l 2,20,21
 381 488 381 488 469 356.5 c 128,-1,22
 557 225 557 225 729 225 c 128,-1,23
 901 225 901 225 990 356.5 c 128,-1,24
 1079 488 1079 488 1079 727 c 2,25,-1
 1079 840 l 2,26,27
 1079 1079 1079 1079 990 1212.5 c 128,-1,16
 901 1346 901 1346 729 1346 c 128,-1,17
EndSplineSet
Position2: "'cpsp' Capital Spacing lookup 0 subtable" dx=12 dy=0 dh=27 dv=0
EndChar

StartChar: Omacron
Encoding: 332 332 80
Width: 1458
VWidth: 2586
GlyphClass: 2
Flags: W
HStem: -29 254<564 894> 1346 250<564 894> 1735 201<440 1022>
VStem: 78 303<443 1125> 1079 301<451 1117>
LayerCount: 2
Back
Fore
SplineSet
440 1935 m 1,0,-1
 1022 1935 l 1,1,-1
 1022 1735 l 1,2,-1
 440 1735 l 1,3,-1
 440 1935 l 1,0,-1
729 1595 m 128,-1,5
 1039 1595 1039 1595 1209.5 1392.5 c 128,-1,6
 1380 1190 1380 1190 1380 784 c 128,-1,7
 1380 378 1380 378 1209.5 174.5 c 128,-1,8
 1039 -29 1039 -29 729 -29 c 128,-1,9
 419 -29 419 -29 248.5 174.5 c 128,-1,10
 78 378 78 378 78 784 c 128,-1,11
 78 1190 78 1190 248.5 1392.5 c 128,-1,4
 419 1595 419 1595 729 1595 c 128,-1,5
729 1346 m 128,-1,13
 557 1346 557 1346 469 1213 c 128,-1,14
 381 1080 381 1080 381 840 c 2,15,-1
 381 727 l 2,16,17
 381 488 381 488 469 356.5 c 128,-1,18
 557 225 557 225 729 225 c 128,-1,19
 901 225 901 225 990 356.5 c 128,-1,20
 1079 488 1079 488 1079 727 c 2,21,-1
 1079 840 l 2,22,23
 1079 1079 1079 1079 990 1212.5 c 128,-1,12
 901 1346 901 1346 729 1346 c 128,-1,13
EndSplineSet
Position2: "'cpsp' Capital Spacing lookup 0 subtable" dx=12 dy=0 dh=27 dv=0
EndChar

StartChar: Oslash
Encoding: 216 216 81
Width: 1458
VWidth: 2586
GlyphClass: 2
Flags: W
HStem: -29 254<555 894> 1346 250<564 898> 1612 41G<1151 1370>
VStem: 78 303<446 1125> 1079 301<451 1114>
AnchorPoint: "Anchor-1" 0 0 basechar 0
AnchorPoint: "Anchor-0" 729 1567 basechar 0
LayerCount: 2
Back
Fore
SplineSet
1208 1395 m 1,0,1
 1380 1192 1380 1192 1380 785 c 128,-1,2
 1380 378 1380 378 1209.5 174.5 c 128,-1,3
 1039 -29 1039 -29 729 -29 c 0,4,5
 524 -29 524 -29 375 61 c 1,6,-1
 285 -86 l 1,7,-1
 90 -86 l 1,8,-1
 252 170 l 1,9,10
 78 382 78 382 78 786 c 128,-1,11
 78 1190 78 1190 248.5 1392.5 c 128,-1,12
 419 1595 419 1595 729 1595 c 0,13,14
 938 1595 938 1595 1083 1505 c 1,15,-1
 1178 1653 l 1,16,-1
 1370 1653 l 1,17,-1
 1208 1395 l 1,0,1
729 1346 m 0,18,19
 557 1346 557 1346 469 1213 c 128,-1,20
 381 1080 381 1080 381 840 c 2,21,-1
 381 727 l 2,22,23
 381 555 381 555 422 442 c 1,24,-1
 936 1272 l 1,25,26
 856 1346 856 1346 729 1346 c 0,18,19
729 225 m 0,27,28
 901 225 901 225 990 356.5 c 128,-1,29
 1079 488 1079 488 1079 727 c 2,30,-1
 1079 840 l 2,31,32
 1079 1010 1079 1010 1034 1120 c 1,33,-1
 522 295 l 1,34,35
 598 225 598 225 729 225 c 0,27,28
EndSplineSet
Position2: "'cpsp' Capital Spacing lookup 0 subtable" dx=12 dy=0 dh=27 dv=0
EndChar

StartChar: Oslashacute
Encoding: 510 510 82
Width: 1458
VWidth: 2586
GlyphClass: 2
Flags: W
HStem: -29 254<555 894> 1346 250<564 898> 1612 41G<1151 1370>
VStem: 78 303<446 1125> 1079 301<451 1114>
LayerCount: 2
Back
Fore
SplineSet
799 1718 m 1,0,-1
 571 1718 l 1,1,-1
 768 2019 l 1,2,-1
 1044 2019 l 1,3,-1
 799 1718 l 1,0,-1
1208 1395 m 1,4,5
 1380 1192 1380 1192 1380 785 c 128,-1,6
 1380 378 1380 378 1209.5 174.5 c 128,-1,7
 1039 -29 1039 -29 729 -29 c 0,8,9
 524 -29 524 -29 375 61 c 1,10,-1
 285 -86 l 1,11,-1
 90 -86 l 1,12,-1
 252 170 l 1,13,14
 78 382 78 382 78 786 c 128,-1,15
 78 1190 78 1190 248.5 1392.5 c 128,-1,16
 419 1595 419 1595 729 1595 c 0,17,18
 938 1595 938 1595 1083 1505 c 1,19,-1
 1178 1653 l 1,20,-1
 1370 1653 l 1,21,-1
 1208 1395 l 1,4,5
729 1346 m 0,22,23
 557 1346 557 1346 469 1213 c 128,-1,24
 381 1080 381 1080 381 840 c 2,25,-1
 381 727 l 2,26,27
 381 555 381 555 422 442 c 1,28,-1
 936 1272 l 1,29,30
 856 1346 856 1346 729 1346 c 0,22,23
729 225 m 0,31,32
 901 225 901 225 990 356.5 c 128,-1,33
 1079 488 1079 488 1079 727 c 2,34,-1
 1079 840 l 2,35,36
 1079 1010 1079 1010 1034 1120 c 1,37,-1
 522 295 l 1,38,39
 598 225 598 225 729 225 c 0,31,32
EndSplineSet
Position2: "'cpsp' Capital Spacing lookup 0 subtable" dx=12 dy=0 dh=27 dv=0
EndChar

StartChar: Otilde
Encoding: 213 213 83
Width: 1458
VWidth: 2586
GlyphClass: 2
Flags: W
HStem: -29 254<564 894> 1346 250<564 894> 1741 195<728 951> 1823 197<510 729>
VStem: 78 303<443 1125> 344 156<1741 1813> 963 152<1946 2019> 1079 301<451 1117>
LayerCount: 2
Back
Fore
SplineSet
1114 2019 m 1,0,1
 1114 1969 1114 1969 1101 1921.5 c 128,-1,2
 1088 1874 1088 1874 1062 1832.5 c 128,-1,3
 1036 1791 1036 1791 991 1766 c 128,-1,4
 946 1741 946 1741 889.5 1740.5 c 0,5,6
 833 1740 833 1740 736 1781 c 128,-1,7
 639 1822 639 1822 594.5 1822.5 c 0,8,9
 550 1823 550 1823 528 1804 c 128,-1,10
 506 1785 506 1785 500 1741 c 1,11,-1
 344 1741 l 1,12,13
 344 1790 344 1790 357.5 1837.5 c 128,-1,14
 371 1885 371 1885 397 1926.5 c 128,-1,15
 423 1968 423 1968 468.5 1993.5 c 128,-1,16
 514 2019 514 2019 570.5 2019.5 c 0,17,18
 627 2020 627 2020 725.5 1977.5 c 128,-1,19
 824 1935 824 1935 869.5 1935 c 0,20,21
 915 1935 915 1935 936 1953.5 c 128,-1,22
 957 1972 957 1972 963 2019 c 1,23,-1
 1114 2019 l 1,0,1
729 1595 m 128,-1,25
 1039 1595 1039 1595 1209.5 1392.5 c 128,-1,26
 1380 1190 1380 1190 1380 784 c 128,-1,27
 1380 378 1380 378 1209.5 174.5 c 128,-1,28
 1039 -29 1039 -29 729 -29 c 128,-1,29
 419 -29 419 -29 248.5 174.5 c 128,-1,30
 78 378 78 378 78 784 c 128,-1,31
 78 1190 78 1190 248.5 1392.5 c 128,-1,24
 419 1595 419 1595 729 1595 c 128,-1,25
729 1346 m 128,-1,33
 557 1346 557 1346 469 1213 c 128,-1,34
 381 1080 381 1080 381 840 c 2,35,-1
 381 727 l 2,36,37
 381 488 381 488 469 356.5 c 128,-1,38
 557 225 557 225 729 225 c 128,-1,39
 901 225 901 225 990 356.5 c 128,-1,40
 1079 488 1079 488 1079 727 c 2,41,-1
 1079 840 l 2,42,43
 1079 1079 1079 1079 990 1212.5 c 128,-1,32
 901 1346 901 1346 729 1346 c 128,-1,33
EndSplineSet
Position2: "'cpsp' Capital Spacing lookup 0 subtable" dx=12 dy=0 dh=27 dv=0
EndChar

StartChar: OE
Encoding: 338 338 84
Width: 1873
VWidth: 2586
GlyphClass: 2
Flags: W
HStem: -29 254<502 786> 0 262<1227 1810> 672 262<1227 1698> 1309 258<1227 1796> 1346 250<502 786>
VStem: 70 301<405 1163> 932 295<400 672 934 1168>
AnchorPoint: "Anchor-1" 0 0 basechar 0
AnchorPoint: "Anchor-0" 936 1567 basechar 0
LayerCount: 2
Back
Fore
SplineSet
590 1595 m 0,0,1
 805 1595 805 1595 934 1427 c 1,2,-1
 934 1567 l 1,3,-1
 1796 1567 l 1,4,-1
 1796 1309 l 1,5,-1
 1227 1309 l 1,6,-1
 1227 934 l 1,7,-1
 1698 934 l 1,8,-1
 1698 672 l 1,9,-1
 1227 672 l 1,10,-1
 1227 262 l 1,11,-1
 1810 262 l 1,12,-1
 1810 0 l 1,13,-1
 934 0 l 1,14,-1
 934 139 l 1,15,16
 805 -29 805 -29 590 -29 c 0,17,18
 341 -29 341 -29 205.5 174.5 c 128,-1,19
 70 378 70 378 70 784 c 128,-1,20
 70 1190 70 1190 205.5 1392.5 c 128,-1,21
 341 1595 341 1595 590 1595 c 0,0,1
862.5 1226 m 128,-1,23
 793 1346 793 1346 650 1346 c 128,-1,24
 507 1346 507 1346 439 1226 c 128,-1,25
 371 1106 371 1106 371 840 c 2,26,-1
 371 727 l 2,27,28
 371 462 371 462 439 343.5 c 128,-1,29
 507 225 507 225 650 225 c 128,-1,30
 793 225 793 225 862.5 343.5 c 128,-1,31
 932 462 932 462 932 727 c 2,32,-1
 932 840 l 2,33,22
 932 1106 932 1106 862.5 1226 c 128,-1,23
EndSplineSet
Position2: "'cpsp' Capital Spacing lookup 0 subtable" dx=12 dy=0 dh=27 dv=0
EndChar

StartChar: P
Encoding: 80 80 85
Width: 1251
VWidth: 2586
GlyphClass: 2
Flags: W
HStem: 0 43G<137 430> 608 258<430 804> 1309 258<430 812>
VStem: 137 293<0 608 866 1309> 887 303<944 1234>
LayerCount: 2
Back
Fore
SplineSet
137 0 m 1,0,-1
 137 1567 l 1,1,-1
 698 1567 l 2,2,3
 935 1567 935 1567 1062.5 1438.5 c 128,-1,4
 1190 1310 1190 1310 1190 1093.5 c 0,5,6
 1190 877 1190 877 1054.5 742.5 c 128,-1,7
 919 608 919 608 698 608 c 2,8,-1
 430 608 l 1,9,-1
 430 0 l 1,10,-1
 137 0 l 1,0,-1
668 866 m 2,11,12
 772 866 772 866 829.5 928.5 c 128,-1,13
 887 991 887 991 887 1093.5 c 0,14,15
 887 1196 887 1196 829 1252.5 c 128,-1,16
 771 1309 771 1309 668 1309 c 2,17,-1
 430 1309 l 1,18,-1
 430 866 l 1,19,-1
 668 866 l 2,11,12
EndSplineSet
Position2: "'cpsp' Capital Spacing lookup 0 subtable" dx=12 dy=0 dh=27 dv=0
EndChar

StartChar: Thorn
Encoding: 222 222 86
Width: 1251
VWidth: 2586
GlyphClass: 2
Flags: W
HStem: 0 43G<137 430> 328 260<430 804> 1030 260<430 812> 1526 41G<137 430>
VStem: 137 293<0 328 588 1030 1290 1567> 887 303<670 954>
LayerCount: 2
Back
Fore
SplineSet
698 1290 m 2,0,1
 934 1290 934 1290 1062 1159.5 c 128,-1,2
 1190 1029 1190 1029 1190 812.5 c 0,3,4
 1190 596 1190 596 1055 462 c 128,-1,5
 920 328 920 328 698 328 c 2,6,-1
 430 328 l 1,7,-1
 430 0 l 1,8,-1
 137 0 l 1,9,-1
 137 1567 l 1,10,-1
 430 1567 l 1,11,-1
 430 1290 l 1,12,-1
 698 1290 l 2,0,1
430 588 m 1,13,-1
 668 588 l 2,14,15
 773 588 773 588 830 649 c 128,-1,16
 887 710 887 710 887 812.5 c 0,17,18
 887 915 887 915 829 972.5 c 128,-1,19
 771 1030 771 1030 668 1030 c 2,20,-1
 430 1030 l 1,21,-1
 430 588 l 1,13,-1
EndSplineSet
Position2: "'cpsp' Capital Spacing lookup 0 subtable" dx=12 dy=0 dh=27 dv=0
EndChar

StartChar: Q
Encoding: 81 81 87
Width: 1458
VWidth: 2586
GlyphClass: 2
Flags: W
HStem: -29 254<568 758> 1346 250<564 894>
VStem: 78 303<443 1125> 1079 301<451 1117>
LayerCount: 2
Back
Fore
SplineSet
78 784 m 128,-1,1
 78 1190 78 1190 248.5 1392.5 c 128,-1,2
 419 1595 419 1595 729 1595 c 128,-1,3
 1039 1595 1039 1595 1209.5 1392.5 c 128,-1,4
 1380 1190 1380 1190 1380 784 c 0,5,6
 1380 495 1380 495 1292.5 309 c 128,-1,7
 1205 123 1205 123 1040 39 c 1,8,-1
 1341 -285 l 1,9,-1
 983 -285 l 1,10,-1
 758 -29 l 1,11,-1
 729 -29 l 2,12,13
 419 -29 419 -29 248.5 174.5 c 128,-1,0
 78 378 78 378 78 784 c 128,-1,1
381 727 m 2,14,15
 381 488 381 488 469 356.5 c 128,-1,16
 557 225 557 225 729 225 c 128,-1,17
 901 225 901 225 990 356.5 c 128,-1,18
 1079 488 1079 488 1079 727 c 2,19,-1
 1079 840 l 2,20,21
 1079 1079 1079 1079 990 1212.5 c 128,-1,22
 901 1346 901 1346 729 1346 c 128,-1,23
 557 1346 557 1346 469 1213 c 128,-1,24
 381 1080 381 1080 381 840 c 2,25,-1
 381 727 l 2,14,15
EndSplineSet
Position2: "'cpsp' Capital Spacing lookup 0 subtable" dx=12 dy=0 dh=27 dv=0
EndChar

StartChar: R
Encoding: 82 82 88
Width: 1351
VWidth: 2586
GlyphClass: 2
Flags: W
HStem: 0 43G<137 430 979 1311> 655 258<430 735> 1309 258<430 893>
VStem: 137 293<0 655 913 1309> 956 315<977 1250>
AnchorPoint: "Anchor-1" 678 0 basechar 0
AnchorPoint: "Anchor-0" 678 1567 basechar 0
LayerCount: 2
Back
Fore
SplineSet
795 1567 m 2,0,1
 1025 1567 1025 1567 1148.5 1444 c 128,-1,2
 1272 1321 1272 1321 1272 1120 c 0,3,4
 1272 980 1272 980 1202.5 874.5 c 128,-1,5
 1133 769 1133 769 1012 719 c 1,6,-1
 1311 0 l 1,7,-1
 995 0 l 1,8,-1
 735 655 l 1,9,-1
 430 655 l 1,10,-1
 430 0 l 1,11,-1
 137 0 l 1,12,-1
 137 1567 l 1,13,-1
 795 1567 l 2,0,1
430 913 m 1,14,-1
 754 913 l 2,15,16
 956 913 956 913 956 1120 c 0,17,18
 956 1210 956 1210 909 1259.5 c 128,-1,19
 862 1309 862 1309 764 1309 c 2,20,-1
 430 1309 l 1,21,-1
 430 913 l 1,14,-1
EndSplineSet
Position2: "'cpsp' Capital Spacing lookup 0 subtable" dx=12 dy=0 dh=27 dv=0
EndChar

StartChar: Racute
Encoding: 340 340 89
Width: 1351
VWidth: 2586
GlyphClass: 2
Flags: W
HStem: 0 43G<137 430 979 1311> 655 258<430 735> 1309 258<430 893>
VStem: 137 293<0 655 913 1309> 956 315<977 1250>
LayerCount: 2
Back
Fore
SplineSet
745 1718 m 1,0,-1
 520 1718 l 1,1,-1
 717 2019 l 1,2,-1
 991 2019 l 1,3,-1
 745 1718 l 1,0,-1
795 1567 m 2,4,5
 1025 1567 1025 1567 1148.5 1444 c 128,-1,6
 1272 1321 1272 1321 1272 1120 c 0,7,8
 1272 980 1272 980 1202.5 874.5 c 128,-1,9
 1133 769 1133 769 1012 719 c 1,10,-1
 1311 0 l 1,11,-1
 995 0 l 1,12,-1
 735 655 l 1,13,-1
 430 655 l 1,14,-1
 430 0 l 1,15,-1
 137 0 l 1,16,-1
 137 1567 l 1,17,-1
 795 1567 l 2,4,5
430 913 m 1,18,-1
 754 913 l 2,19,20
 956 913 956 913 956 1120 c 0,21,22
 956 1210 956 1210 909 1259.5 c 128,-1,23
 862 1309 862 1309 764 1309 c 2,24,-1
 430 1309 l 1,25,-1
 430 913 l 1,18,-1
EndSplineSet
Position2: "'cpsp' Capital Spacing lookup 0 subtable" dx=12 dy=0 dh=27 dv=0
EndChar

StartChar: Rcaron
Encoding: 344 344 90
Width: 1351
VWidth: 2586
GlyphClass: 2
Flags: W
HStem: 0 43G<137 430 979 1311> 655 258<430 735> 1309 258<430 893>
VStem: 137 293<0 655 913 1309> 956 315<977 1250>
LayerCount: 2
Back
Fore
SplineSet
567 1710 m 1,0,-1
 371 2019 l 1,1,-1
 573 2019 l 1,2,-1
 678 1862 l 1,3,-1
 778 2019 l 1,4,-1
 985 2019 l 1,5,-1
 791 1710 l 1,6,-1
 567 1710 l 1,0,-1
795 1567 m 2,7,8
 1025 1567 1025 1567 1148.5 1444 c 128,-1,9
 1272 1321 1272 1321 1272 1120 c 0,10,11
 1272 980 1272 980 1202.5 874.5 c 128,-1,12
 1133 769 1133 769 1012 719 c 1,13,-1
 1311 0 l 1,14,-1
 995 0 l 1,15,-1
 735 655 l 1,16,-1
 430 655 l 1,17,-1
 430 0 l 1,18,-1
 137 0 l 1,19,-1
 137 1567 l 1,20,-1
 795 1567 l 2,7,8
430 913 m 1,21,-1
 754 913 l 2,22,23
 956 913 956 913 956 1120 c 0,24,25
 956 1210 956 1210 909 1259.5 c 128,-1,26
 862 1309 862 1309 764 1309 c 2,27,-1
 430 1309 l 1,28,-1
 430 913 l 1,21,-1
EndSplineSet
Position2: "'cpsp' Capital Spacing lookup 0 subtable" dx=12 dy=0 dh=27 dv=0
EndChar

StartChar: Rcommaaccent
Encoding: 342 342 91
Width: 1351
VWidth: 2586
GlyphClass: 2
Flags: W
HStem: 0 43G<137 430 979 1311> 655 258<430 735> 1309 258<430 893>
VStem: 137 293<0 655 913 1309> 535 283<-383 -127> 956 315<977 1250>
LayerCount: 2
Back
Fore
SplineSet
795 1567 m 2,0,1
 1025 1567 1025 1567 1148.5 1444 c 128,-1,2
 1272 1321 1272 1321 1272 1120 c 0,3,4
 1272 980 1272 980 1202.5 874.5 c 128,-1,5
 1133 769 1133 769 1012 719 c 1,6,-1
 1311 0 l 1,7,-1
 995 0 l 1,8,-1
 735 655 l 1,9,-1
 430 655 l 1,10,-1
 430 0 l 1,11,-1
 137 0 l 1,12,-1
 137 1567 l 1,13,-1
 795 1567 l 2,0,1
430 913 m 1,14,-1
 754 913 l 2,15,16
 956 913 956 913 956 1120 c 0,17,18
 956 1210 956 1210 909 1259.5 c 128,-1,19
 862 1309 862 1309 764 1309 c 2,20,-1
 430 1309 l 1,21,-1
 430 913 l 1,14,-1
535 -406 m 1,22,-1
 535 -127 l 1,23,-1
 817 -127 l 1,24,-1
 817 -383 l 1,25,-1
 715 -600 l 1,26,-1
 567 -600 l 1,27,-1
 647 -406 l 1,28,-1
 535 -406 l 1,22,-1
EndSplineSet
Position2: "'cpsp' Capital Spacing lookup 0 subtable" dx=12 dy=0 dh=27 dv=0
EndChar

StartChar: S
Encoding: 83 83 92
Width: 1251
VWidth: 2586
GlyphClass: 2
Flags: W
HStem: -29 254<468 786> 1346 250<469 751>
VStem: 70 305<321 510> 100 303<1068 1285> 836 297<1108 1258> 862 301<299 535>
AnchorPoint: "Anchor-1" 627 0 basechar 0
AnchorPoint: "Anchor-0" 627 1567 basechar 0
LayerCount: 2
Back
Fore
SplineSet
424.5 1567.5 m 128,-1,1
 517 1595 517 1595 623.5 1595 c 128,-1,2
 730 1595 730 1595 820.5 1568 c 128,-1,3
 911 1541 911 1541 982 1486.5 c 128,-1,4
 1053 1432 1053 1432 1093 1341.5 c 128,-1,5
 1133 1251 1133 1251 1133 1133 c 2,6,-1
 1133 1108 l 1,7,-1
 836 1108 l 1,8,9
 836 1210 836 1210 777.5 1278 c 128,-1,10
 719 1346 719 1346 619 1346 c 128,-1,11
 519 1346 519 1346 461 1299 c 128,-1,12
 403 1252 403 1252 403 1178 c 0,13,14
 403 1139 403 1139 420 1106.5 c 128,-1,15
 437 1074 437 1074 460 1053 c 128,-1,16
 483 1032 483 1032 528 1010.5 c 128,-1,17
 573 989 573 989 606 977 c 128,-1,18
 639 965 639 965 753.917980113 928.549658931 c 128,-1,19
 868.835960225 892.099317862 868.835960225 892.099317862 941.20631049 852.763166876 c 0,20,21
 1118.03166527 756.651584874 1118.03166527 756.651584874 1153.37312198 576.464280217 c 0,22,23
 1163 527.381945661 1163 527.381945661 1163 471 c 0,24,25
 1163 339 1163 339 1123 241.5 c 128,-1,26
 1083 144 1083 144 1008 85.5 c 128,-1,27
 933 27 933 27 834 -1 c 128,-1,28
 735 -29 735 -29 618 -29 c 128,-1,29
 501 -29 501 -29 404.5 2.5 c 128,-1,30
 308 34 308 34 233 94 c 128,-1,31
 158 154 158 154 114 248.5 c 128,-1,32
 70 343 70 343 70 461 c 2,33,-1
 70 510 l 1,34,-1
 375 510 l 1,35,-1
 375 473 l 2,36,37
 375 360 375 360 440 292.5 c 128,-1,38
 505 225 505 225 625 225 c 128,-1,39
 745 225 745 225 803.5 279 c 128,-1,40
 862 333 862 333 862 410 c 0,41,42
 862 437 862 437 856 461 c 128,-1,43
 850 485 850 485 842.5 504 c 128,-1,44
 835 523 835 523 817.5 541 c 128,-1,45
 800 559 800 559 787 571.5 c 128,-1,46
 774 584 774 584 747 598.5 c 128,-1,47
 720 613 720 613 704.5 621 c 128,-1,48
 689 629 689 629 655 641.5 c 128,-1,49
 621 654 621 654 604.5 659.5 c 2,50,-1
 549 678 l 2,51,52
 489 697 489 697 457 708.5 c 128,-1,53
 425 720 425 720 370 744.5 c 128,-1,54
 315 769 315 769 283.5 791 c 128,-1,55
 252 813 252 813 212 850 c 128,-1,56
 172 887 172 887 151 929 c 128,-1,57
 130 971 130 971 115 1029.5 c 128,-1,58
 100 1088 100 1088 100 1176.5 c 128,-1,59
 100 1265 100 1265 142.5 1350 c 128,-1,60
 185 1435 185 1435 258.5 1487.5 c 128,-1,0
 332 1540 332 1540 424.5 1567.5 c 128,-1,1
EndSplineSet
Position2: "'cpsp' Capital Spacing lookup 0 subtable" dx=12 dy=0 dh=27 dv=0
EndChar

StartChar: Sacute
Encoding: 346 346 93
Width: 1251
VWidth: 2586
GlyphClass: 2
Flags: W
HStem: -29 254<468 786> 1346 250<469 751>
VStem: 70 305<321 510> 100 303<1068 1285> 836 297<1108 1258> 862 301<299 535>
LayerCount: 2
Back
Fore
SplineSet
696 1718 m 1,0,-1
 469 1718 l 1,1,-1
 666 2019 l 1,2,-1
 938 2019 l 1,3,-1
 696 1718 l 1,0,-1
424.5 1567.5 m 128,-1,5
 517 1595 517 1595 623.5 1595 c 128,-1,6
 730 1595 730 1595 820.5 1568 c 128,-1,7
 911 1541 911 1541 982 1486.5 c 128,-1,8
 1053 1432 1053 1432 1093 1341.5 c 128,-1,9
 1133 1251 1133 1251 1133 1133 c 2,10,-1
 1133 1108 l 1,11,-1
 836 1108 l 1,12,13
 836 1210 836 1210 777.5 1278 c 128,-1,14
 719 1346 719 1346 619 1346 c 128,-1,15
 519 1346 519 1346 461 1299 c 128,-1,16
 403 1252 403 1252 403 1178 c 0,17,18
 403 1139 403 1139 420 1106.5 c 128,-1,19
 437 1074 437 1074 460 1053 c 128,-1,20
 483 1032 483 1032 528 1010.5 c 128,-1,21
 573 989 573 989 606 977 c 128,-1,22
 639 965 639 965 753.917980113 928.549658931 c 128,-1,23
 868.835960225 892.099317862 868.835960225 892.099317862 941.20631049 852.763166876 c 0,24,25
 1118.03166527 756.651584874 1118.03166527 756.651584874 1153.37312198 576.464280217 c 0,26,27
 1163 527.381945661 1163 527.381945661 1163 471 c 0,28,29
 1163 339 1163 339 1123 241.5 c 128,-1,30
 1083 144 1083 144 1008 85.5 c 128,-1,31
 933 27 933 27 834 -1 c 128,-1,32
 735 -29 735 -29 618 -29 c 128,-1,33
 501 -29 501 -29 404.5 2.5 c 128,-1,34
 308 34 308 34 233 94 c 128,-1,35
 158 154 158 154 114 248.5 c 128,-1,36
 70 343 70 343 70 461 c 2,37,-1
 70 510 l 1,38,-1
 375 510 l 1,39,-1
 375 473 l 2,40,41
 375 360 375 360 440 292.5 c 128,-1,42
 505 225 505 225 625 225 c 128,-1,43
 745 225 745 225 803.5 279 c 128,-1,44
 862 333 862 333 862 410 c 0,45,46
 862 437 862 437 856 461 c 128,-1,47
 850 485 850 485 842.5 504 c 128,-1,48
 835 523 835 523 817.5 541 c 128,-1,49
 800 559 800 559 787 571.5 c 128,-1,50
 774 584 774 584 747 598.5 c 128,-1,51
 720 613 720 613 704.5 621 c 128,-1,52
 689 629 689 629 655 641.5 c 128,-1,53
 621 654 621 654 604.5 659.5 c 2,54,-1
 549 678 l 2,55,56
 489 697 489 697 457 708.5 c 128,-1,57
 425 720 425 720 370 744.5 c 128,-1,58
 315 769 315 769 283.5 791 c 128,-1,59
 252 813 252 813 212 850 c 128,-1,60
 172 887 172 887 151 929 c 128,-1,61
 130 971 130 971 115 1029.5 c 128,-1,62
 100 1088 100 1088 100 1176.5 c 128,-1,63
 100 1265 100 1265 142.5 1350 c 128,-1,64
 185 1435 185 1435 258.5 1487.5 c 128,-1,4
 332 1540 332 1540 424.5 1567.5 c 128,-1,5
EndSplineSet
Position2: "'cpsp' Capital Spacing lookup 0 subtable" dx=12 dy=0 dh=27 dv=0
EndChar

StartChar: Scaron
Encoding: 352 352 94
Width: 1251
VWidth: 2586
GlyphClass: 2
Flags: W
HStem: -29 254<468 786> 1346 250<469 751>
VStem: 70 305<321 510> 100 303<1068 1285> 836 297<1108 1258> 862 301<299 535>
LayerCount: 2
Back
Fore
SplineSet
317 2019 m 1,0,-1
 522 2019 l 1,1,-1
 627 1862 l 1,2,-1
 727 2019 l 1,3,-1
 934 2019 l 1,4,-1
 739 1710 l 1,5,-1
 514 1710 l 1,6,-1
 317 2019 l 1,0,-1
424.5 1567.5 m 128,-1,8
 517 1595 517 1595 623.5 1595 c 128,-1,9
 730 1595 730 1595 820.5 1568 c 128,-1,10
 911 1541 911 1541 982 1486.5 c 128,-1,11
 1053 1432 1053 1432 1093 1341.5 c 128,-1,12
 1133 1251 1133 1251 1133 1133 c 2,13,-1
 1133 1108 l 1,14,-1
 836 1108 l 1,15,16
 836 1210 836 1210 777.5 1278 c 128,-1,17
 719 1346 719 1346 619 1346 c 128,-1,18
 519 1346 519 1346 461 1299 c 128,-1,19
 403 1252 403 1252 403 1178 c 0,20,21
 403 1139 403 1139 420 1106.5 c 128,-1,22
 437 1074 437 1074 460 1053 c 128,-1,23
 483 1032 483 1032 528 1010.5 c 128,-1,24
 573 989 573 989 606 977 c 128,-1,25
 639 965 639 965 753.917980113 928.549658931 c 128,-1,26
 868.835960225 892.099317862 868.835960225 892.099317862 941.20631049 852.763166876 c 0,27,28
 1118.03166527 756.651584874 1118.03166527 756.651584874 1153.37312198 576.464280217 c 0,29,30
 1163 527.381945661 1163 527.381945661 1163 471 c 0,31,32
 1163 339 1163 339 1123 241.5 c 128,-1,33
 1083 144 1083 144 1008 85.5 c 128,-1,34
 933 27 933 27 834 -1 c 128,-1,35
 735 -29 735 -29 618 -29 c 128,-1,36
 501 -29 501 -29 404.5 2.5 c 128,-1,37
 308 34 308 34 233 94 c 128,-1,38
 158 154 158 154 114 248.5 c 128,-1,39
 70 343 70 343 70 461 c 2,40,-1
 70 510 l 1,41,-1
 375 510 l 1,42,-1
 375 473 l 2,43,44
 375 360 375 360 440 292.5 c 128,-1,45
 505 225 505 225 625 225 c 128,-1,46
 745 225 745 225 803.5 279 c 128,-1,47
 862 333 862 333 862 410 c 0,48,49
 862 437 862 437 856 461 c 128,-1,50
 850 485 850 485 842.5 504 c 128,-1,51
 835 523 835 523 817.5 541 c 128,-1,52
 800 559 800 559 787 571.5 c 128,-1,53
 774 584 774 584 747 598.5 c 128,-1,54
 720 613 720 613 704.5 621 c 128,-1,55
 689 629 689 629 655 641.5 c 128,-1,56
 621 654 621 654 604.5 659.5 c 2,57,-1
 549 678 l 2,58,59
 489 697 489 697 457 708.5 c 128,-1,60
 425 720 425 720 370 744.5 c 128,-1,61
 315 769 315 769 283.5 791 c 128,-1,62
 252 813 252 813 212 850 c 128,-1,63
 172 887 172 887 151 929 c 128,-1,64
 130 971 130 971 115 1029.5 c 128,-1,65
 100 1088 100 1088 100 1176.5 c 128,-1,66
 100 1265 100 1265 142.5 1350 c 128,-1,67
 185 1435 185 1435 258.5 1487.5 c 128,-1,7
 332 1540 332 1540 424.5 1567.5 c 128,-1,8
EndSplineSet
Position2: "'cpsp' Capital Spacing lookup 0 subtable" dx=12 dy=0 dh=27 dv=0
EndChar

StartChar: Scedilla
Encoding: 350 350 95
Width: 1251
VWidth: 2586
GlyphClass: 2
Flags: W
HStem: -416 129<406 647> -399 113<403 595> -27 252<473 496 670 787> 1346 250<469 751>
VStem: 70 305<323 510> 100 303<1068 1285> 496 174<-82 -23> 649 197<-283 -180> 836 297<1108 1258> 862 301<298 535>
LayerCount: 2
Back
Fore
SplineSet
424.5 1567.5 m 128,-1,1
 517 1595 517 1595 623.5 1595 c 128,-1,2
 730 1595 730 1595 820.5 1568 c 128,-1,3
 911 1541 911 1541 982 1486.5 c 128,-1,4
 1053 1432 1053 1432 1093 1341.5 c 128,-1,5
 1133 1251 1133 1251 1133 1133 c 2,6,-1
 1133 1108 l 1,7,-1
 836 1108 l 1,8,9
 836 1210 836 1210 777.5 1278 c 128,-1,10
 719 1346 719 1346 619 1346 c 128,-1,11
 519 1346 519 1346 461 1299 c 128,-1,12
 403 1252 403 1252 403 1178 c 0,13,14
 403 1139 403 1139 420 1106.5 c 128,-1,15
 437 1074 437 1074 460 1053 c 128,-1,16
 483 1032 483 1032 528 1010.5 c 128,-1,17
 573 989 573 989 606 977 c 128,-1,18
 639 965 639 965 753.917980113 928.549658931 c 128,-1,19
 868.835960225 892.099317862 868.835960225 892.099317862 941.20631049 852.763166876 c 0,20,21
 1118.03166527 756.651584874 1118.03166527 756.651584874 1153.37312198 576.464280217 c 0,22,23
 1163 527.381945661 1163 527.381945661 1163 437.690972831 c 128,-1,24
 1163 348 1163 348 1127.5 254.5 c 128,-1,25
 1092 161 1092 161 1026 102 c 128,-1,26
 960 43 960 43 871.5 11.5 c 128,-1,27
 783 -20 783 -20 670 -27 c 1,28,-1
 670 -76 l 1,29,30
 846 -90 846 -90 846 -229 c 0,31,32
 846 -274 846 -274 829.5 -308.5 c 128,-1,33
 813 -343 813 -343 787.5 -362.5 c 128,-1,34
 762 -382 762 -382 727.5 -394.5 c 128,-1,35
 693 -407 693 -407 662 -411.5 c 128,-1,36
 631 -416 631 -416 565.5 -416 c 128,-1,37
 500 -416 500 -416 403 -399 c 1,38,-1
 403 -287 l 1,39,-1
 567 -287 l 2,40,41
 649 -287 649 -287 649 -229 c 0,42,43
 649 -201 649 -201 631.5 -188.5 c 128,-1,44
 614 -176 614 -176 571 -176 c 2,45,-1
 496 -176 l 1,46,-1
 496 -20 l 1,47,48
 302 4 302 4 186 127.5 c 128,-1,49
 70 251 70 251 70 461 c 2,50,-1
 70 510 l 1,51,-1
 375 510 l 1,52,-1
 375 473 l 2,53,54
 375 360 375 360 440 292.5 c 128,-1,55
 505 225 505 225 625 225 c 128,-1,56
 745 225 745 225 803.5 279 c 128,-1,57
 862 333 862 333 862 410 c 0,58,59
 862 437 862 437 856 461 c 128,-1,60
 850 485 850 485 842.5 504 c 128,-1,61
 835 523 835 523 817.5 541 c 128,-1,62
 800 559 800 559 787 571.5 c 128,-1,63
 774 584 774 584 747 598.5 c 128,-1,64
 720 613 720 613 704.5 621 c 128,-1,65
 689 629 689 629 655 641.5 c 128,-1,66
 621 654 621 654 604.5 659.5 c 2,67,-1
 549 678 l 2,68,69
 489 697 489 697 457 708.5 c 128,-1,70
 425 720 425 720 370 744.5 c 128,-1,71
 315 769 315 769 283.5 791 c 128,-1,72
 252 813 252 813 212 850 c 128,-1,73
 172 887 172 887 151 929 c 128,-1,74
 130 971 130 971 115 1029.5 c 128,-1,75
 100 1088 100 1088 100 1176.5 c 128,-1,76
 100 1265 100 1265 142.5 1350 c 128,-1,77
 185 1435 185 1435 258.5 1487.5 c 128,-1,0
 332 1540 332 1540 424.5 1567.5 c 128,-1,1
EndSplineSet
Substitution2: "'locl' Localized Forms in Latin lookup 6 subtable" Scommaaccent
Substitution2: "'locl' Localized Forms in Latin lookup 5 subtable" Scommaaccent
Substitution2: "'aalt' Access All Alternates lookup 0 subtable" Scommaaccent
Position2: "'cpsp' Capital Spacing lookup 0 subtable" dx=12 dy=0 dh=27 dv=0
EndChar

StartChar: Scircumflex
Encoding: 348 348 96
Width: 1251
VWidth: 2586
GlyphClass: 2
Flags: W
HStem: -29 254<468 786> 1346 250<469 751>
VStem: 70 305<321 510> 100 303<1068 1285> 836 297<1108 1258> 862 301<299 535>
LayerCount: 2
Back
Fore
SplineSet
627 1868 m 1,0,-1
 522 1710 l 1,1,-1
 317 1710 l 1,2,-1
 514 2019 l 1,3,-1
 739 2019 l 1,4,-1
 934 1710 l 1,5,-1
 727 1710 l 1,6,-1
 627 1868 l 1,0,-1
424.5 1567.5 m 128,-1,8
 517 1595 517 1595 623.5 1595 c 128,-1,9
 730 1595 730 1595 820.5 1568 c 128,-1,10
 911 1541 911 1541 982 1486.5 c 128,-1,11
 1053 1432 1053 1432 1093 1341.5 c 128,-1,12
 1133 1251 1133 1251 1133 1133 c 2,13,-1
 1133 1108 l 1,14,-1
 836 1108 l 1,15,16
 836 1210 836 1210 777.5 1278 c 128,-1,17
 719 1346 719 1346 619 1346 c 128,-1,18
 519 1346 519 1346 461 1299 c 128,-1,19
 403 1252 403 1252 403 1178 c 0,20,21
 403 1139 403 1139 420 1106.5 c 128,-1,22
 437 1074 437 1074 460 1053 c 128,-1,23
 483 1032 483 1032 528 1010.5 c 128,-1,24
 573 989 573 989 606 977 c 128,-1,25
 639 965 639 965 753.917980113 928.549658931 c 128,-1,26
 868.835960225 892.099317862 868.835960225 892.099317862 941.20631049 852.763166876 c 0,27,28
 1118.03166527 756.651584874 1118.03166527 756.651584874 1153.37312198 576.464280217 c 0,29,30
 1163 527.381945661 1163 527.381945661 1163 471 c 0,31,32
 1163 339 1163 339 1123 241.5 c 128,-1,33
 1083 144 1083 144 1008 85.5 c 128,-1,34
 933 27 933 27 834 -1 c 128,-1,35
 735 -29 735 -29 618 -29 c 128,-1,36
 501 -29 501 -29 404.5 2.5 c 128,-1,37
 308 34 308 34 233 94 c 128,-1,38
 158 154 158 154 114 248.5 c 128,-1,39
 70 343 70 343 70 461 c 2,40,-1
 70 510 l 1,41,-1
 375 510 l 1,42,-1
 375 473 l 2,43,44
 375 360 375 360 440 292.5 c 128,-1,45
 505 225 505 225 625 225 c 128,-1,46
 745 225 745 225 803.5 279 c 128,-1,47
 862 333 862 333 862 410 c 0,48,49
 862 437 862 437 856 461 c 128,-1,50
 850 485 850 485 842.5 504 c 128,-1,51
 835 523 835 523 817.5 541 c 128,-1,52
 800 559 800 559 787 571.5 c 128,-1,53
 774 584 774 584 747 598.5 c 128,-1,54
 720 613 720 613 704.5 621 c 128,-1,55
 689 629 689 629 655 641.5 c 128,-1,56
 621 654 621 654 604.5 659.5 c 2,57,-1
 549 678 l 2,58,59
 489 697 489 697 457 708.5 c 128,-1,60
 425 720 425 720 370 744.5 c 128,-1,61
 315 769 315 769 283.5 791 c 128,-1,62
 252 813 252 813 212 850 c 128,-1,63
 172 887 172 887 151 929 c 128,-1,64
 130 971 130 971 115 1029.5 c 128,-1,65
 100 1088 100 1088 100 1176.5 c 128,-1,66
 100 1265 100 1265 142.5 1350 c 128,-1,67
 185 1435 185 1435 258.5 1487.5 c 128,-1,7
 332 1540 332 1540 424.5 1567.5 c 128,-1,8
EndSplineSet
Position2: "'cpsp' Capital Spacing lookup 0 subtable" dx=12 dy=0 dh=27 dv=0
EndChar

StartChar: Scommaaccent
Encoding: 536 536 97
Width: 1251
VWidth: 2586
GlyphClass: 2
Flags: W
HStem: -29 254<468 786> 1346 250<469 751>
VStem: 70 305<321 510> 100 303<1068 1285> 483 285<-383 -127> 836 297<1108 1258> 862 301<299 535>
AnchorPoint: "Anchor-1" 627 0 basechar 0
AnchorPoint: "Anchor-0" 627 1567 basechar 0
LayerCount: 2
Back
Fore
SplineSet
424.5 1567.5 m 128,-1,1
 517 1595 517 1595 623.5 1595 c 128,-1,2
 730 1595 730 1595 820.5 1568 c 128,-1,3
 911 1541 911 1541 982 1486.5 c 128,-1,4
 1053 1432 1053 1432 1093 1341.5 c 128,-1,5
 1133 1251 1133 1251 1133 1133 c 2,6,-1
 1133 1108 l 1,7,-1
 836 1108 l 1,8,9
 836 1210 836 1210 777.5 1278 c 128,-1,10
 719 1346 719 1346 619 1346 c 128,-1,11
 519 1346 519 1346 461 1299 c 128,-1,12
 403 1252 403 1252 403 1178 c 0,13,14
 403 1139 403 1139 420 1106.5 c 128,-1,15
 437 1074 437 1074 460 1053 c 128,-1,16
 483 1032 483 1032 528 1010.5 c 128,-1,17
 573 989 573 989 606 977 c 128,-1,18
 639 965 639 965 753.917980113 928.549658931 c 128,-1,19
 868.835960225 892.099317862 868.835960225 892.099317862 941.20631049 852.763166876 c 0,20,21
 1118.03166527 756.651584874 1118.03166527 756.651584874 1153.37312198 576.464280217 c 0,22,23
 1163 527.381945661 1163 527.381945661 1163 471 c 0,24,25
 1163 339 1163 339 1123 241.5 c 128,-1,26
 1083 144 1083 144 1008 85.5 c 128,-1,27
 933 27 933 27 834 -1 c 128,-1,28
 735 -29 735 -29 618 -29 c 128,-1,29
 501 -29 501 -29 404.5 2.5 c 128,-1,30
 308 34 308 34 233 94 c 128,-1,31
 158 154 158 154 114 248.5 c 128,-1,32
 70 343 70 343 70 461 c 2,33,-1
 70 510 l 1,34,-1
 375 510 l 1,35,-1
 375 473 l 2,36,37
 375 360 375 360 440 292.5 c 128,-1,38
 505 225 505 225 625 225 c 128,-1,39
 745 225 745 225 803.5 279 c 128,-1,40
 862 333 862 333 862 410 c 0,41,42
 862 437 862 437 856 461 c 128,-1,43
 850 485 850 485 842.5 504 c 128,-1,44
 835 523 835 523 817.5 541 c 128,-1,45
 800 559 800 559 787 571.5 c 128,-1,46
 774 584 774 584 747 598.5 c 128,-1,47
 720 613 720 613 704.5 621 c 128,-1,48
 689 629 689 629 655 641.5 c 128,-1,49
 621 654 621 654 604.5 659.5 c 2,50,-1
 549 678 l 2,51,52
 489 697 489 697 457 708.5 c 128,-1,53
 425 720 425 720 370 744.5 c 128,-1,54
 315 769 315 769 283.5 791 c 128,-1,55
 252 813 252 813 212 850 c 128,-1,56
 172 887 172 887 151 929 c 128,-1,57
 130 971 130 971 115 1029.5 c 128,-1,58
 100 1088 100 1088 100 1176.5 c 128,-1,59
 100 1265 100 1265 142.5 1350 c 128,-1,60
 185 1435 185 1435 258.5 1487.5 c 128,-1,0
 332 1540 332 1540 424.5 1567.5 c 128,-1,1
483 -406 m 1,61,-1
 483 -127 l 1,62,-1
 768 -127 l 1,63,-1
 768 -383 l 1,64,-1
 662 -600 l 1,65,-1
 514 -600 l 1,66,-1
 598 -406 l 1,67,-1
 483 -406 l 1,61,-1
EndSplineSet
Position2: "'cpsp' Capital Spacing lookup 0 subtable" dx=12 dy=0 dh=27 dv=0
EndChar

StartChar: T
Encoding: 84 84 98
Width: 1144
VWidth: 2586
GlyphClass: 2
Flags: W
HStem: 0 43G<426 719> 1309 258<39 426 719 1110>
VStem: 426 293<0 1309>
AnchorPoint: "Anchor-1" 573 0 basechar 0
AnchorPoint: "Anchor-0" 573 1567 basechar 0
LayerCount: 2
Back
Fore
SplineSet
719 1309 m 1,0,-1
 719 0 l 1,1,-1
 426 0 l 1,2,-1
 426 1309 l 1,3,-1
 39 1309 l 1,4,-1
 39 1567 l 1,5,-1
 1110 1567 l 1,6,-1
 1110 1309 l 1,7,-1
 719 1309 l 1,0,-1
EndSplineSet
Position2: "'cpsp' Capital Spacing lookup 0 subtable" dx=12 dy=0 dh=27 dv=0
EndChar

StartChar: Tbar
Encoding: 358 358 99
Width: 1144
VWidth: 2586
GlyphClass: 2
Flags: W
HStem: 0 43G<426 719> 700 197<168 426 719 975> 1309 258<39 426 719 1110>
VStem: 426 293<0 700 897 1309>
LayerCount: 2
Back
Fore
SplineSet
719 1309 m 1,0,-1
 719 897 l 1,1,-1
 975 897 l 1,2,-1
 975 700 l 1,3,-1
 719 700 l 1,4,-1
 719 0 l 1,5,-1
 426 0 l 1,6,-1
 426 700 l 1,7,-1
 168 700 l 1,8,-1
 168 897 l 1,9,-1
 426 897 l 1,10,-1
 426 1309 l 1,11,-1
 39 1309 l 1,12,-1
 39 1567 l 1,13,-1
 1110 1567 l 1,14,-1
 1110 1309 l 1,15,-1
 719 1309 l 1,0,-1
EndSplineSet
Position2: "'cpsp' Capital Spacing lookup 0 subtable" dx=12 dy=0 dh=27 dv=0
EndChar

StartChar: Tcaron
Encoding: 356 356 100
Width: 1144
VWidth: 2586
GlyphClass: 2
Flags: W
HStem: 0 43G<426 719> 1309 258<39 426 719 1110>
VStem: 426 293<0 1309>
LayerCount: 2
Back
Fore
SplineSet
463 1710 m 1,0,-1
 266 2019 l 1,1,-1
 471 2019 l 1,2,-1
 573 1862 l 1,3,-1
 676 2019 l 1,4,-1
 879 2019 l 1,5,-1
 686 1710 l 1,6,-1
 463 1710 l 1,0,-1
719 1309 m 1,7,-1
 719 0 l 1,8,-1
 426 0 l 1,9,-1
 426 1309 l 1,10,-1
 39 1309 l 1,11,-1
 39 1567 l 1,12,-1
 1110 1567 l 1,13,-1
 1110 1309 l 1,14,-1
 719 1309 l 1,7,-1
EndSplineSet
Position2: "'cpsp' Capital Spacing lookup 0 subtable" dx=12 dy=0 dh=27 dv=0
EndChar

StartChar: uni0162
Encoding: 354 354 101
Width: 1144
VWidth: 2586
GlyphClass: 2
Flags: W
HStem: -416 129<355 592> -399 113<352 540> 1309 258<39 426 719 1110>
VStem: 426 293<0 1309> 465 156<-82 0> 594 197<-283 -180>
AnchorPoint: "Anchor-1" 573 0 basechar 0
AnchorPoint: "Anchor-0" 573 1567 basechar 0
LayerCount: 2
Back
Fore
SplineSet
791 -229 m 0,0,1
 791 -274 791 -274 774.5 -308.5 c 128,-1,2
 758 -343 758 -343 732.5 -362.5 c 128,-1,3
 707 -382 707 -382 672.5 -394.5 c 128,-1,4
 638 -407 638 -407 607 -411.5 c 128,-1,5
 576 -416 576 -416 511 -416 c 0,6,7
 446 -416 446 -416 352 -399 c 1,8,-1
 352 -287 l 1,9,-1
 514 -287 l 2,10,11
 594 -287 594 -287 594 -229 c 0,12,13
 594 -200 594 -200 577.5 -188 c 128,-1,14
 561 -176 561 -176 518 -176 c 2,15,-1
 442 -176 l 1,16,-1
 465 0 l 1,17,-1
 426 0 l 1,18,-1
 426 1309 l 1,19,-1
 39 1309 l 1,20,-1
 39 1567 l 1,21,-1
 1110 1567 l 1,22,-1
 1110 1309 l 1,23,-1
 719 1309 l 1,24,-1
 719 0 l 1,25,-1
 621 0 l 1,26,-1
 621 -76 l 1,27,28
 791 -90 791 -90 791 -229 c 0,0,1
EndSplineSet
Substitution2: "'locl' Localized Forms in Latin lookup 6 subtable" uni021A
Substitution2: "'locl' Localized Forms in Latin lookup 5 subtable" uni021A
Substitution2: "'aalt' Access All Alternates lookup 0 subtable" uni021A
Position2: "'cpsp' Capital Spacing lookup 0 subtable" dx=12 dy=0 dh=27 dv=0
EndChar

StartChar: uni021A
Encoding: 538 538 102
Width: 1144
VWidth: 2586
GlyphClass: 2
Flags: W
HStem: 0 43G<426 719> 1309 258<39 426 719 1110>
VStem: 426 293<-383 -127 0 1309>
LayerCount: 2
Back
Fore
SplineSet
719 1309 m 1,0,-1
 719 0 l 1,1,-1
 426 0 l 1,2,-1
 426 1309 l 1,3,-1
 39 1309 l 1,4,-1
 39 1567 l 1,5,-1
 1110 1567 l 1,6,-1
 1110 1309 l 1,7,-1
 719 1309 l 1,0,-1
432 -406 m 1,8,-1
 432 -127 l 1,9,-1
 715 -127 l 1,10,-1
 715 -383 l 1,11,-1
 610 -600 l 1,12,-1
 463 -600 l 1,13,-1
 543 -406 l 1,14,-1
 432 -406 l 1,8,-1
EndSplineSet
Position2: "'cpsp' Capital Spacing lookup 0 subtable" dx=12 dy=0 dh=27 dv=0
EndChar

StartChar: U
Encoding: 85 85 103
Width: 1351
VWidth: 2586
GlyphClass: 2
Flags: W
HStem: -29 254<529 827> 1526 41G<139 432 924 1217>
VStem: 139 293<330 1567> 924 293<330 1567>
AnchorPoint: "Anchor-1" 0 0 basechar 0
AnchorPoint: "Anchor-0" 678 1567 basechar 0
LayerCount: 2
Back
Fore
SplineSet
1217 492 m 2,0,1
 1217 239 1217 239 1075 105 c 128,-1,2
 933 -29 933 -29 678 -29 c 128,-1,3
 423 -29 423 -29 281 105 c 128,-1,4
 139 239 139 239 139 492 c 2,5,-1
 139 1567 l 1,6,-1
 432 1567 l 1,7,-1
 432 502 l 2,8,9
 432 368 432 368 496 296.5 c 128,-1,10
 560 225 560 225 678 225 c 128,-1,11
 796 225 796 225 860 296.5 c 128,-1,12
 924 368 924 368 924 502 c 2,13,-1
 924 1567 l 1,14,-1
 1217 1567 l 1,15,-1
 1217 492 l 2,0,1
EndSplineSet
Position2: "'cpsp' Capital Spacing lookup 0 subtable" dx=12 dy=0 dh=27 dv=0
EndChar

StartChar: Uacute
Encoding: 218 218 104
Width: 1351
VWidth: 2586
GlyphClass: 2
Flags: W
HStem: -29 254<529 827> 1526 41G<139 432 924 1217>
VStem: 139 293<330 1567> 924 293<330 1567>
LayerCount: 2
Back
Fore
SplineSet
745 1718 m 1,0,-1
 520 1718 l 1,1,-1
 717 2019 l 1,2,-1
 991 2019 l 1,3,-1
 745 1718 l 1,0,-1
1217 492 m 2,4,5
 1217 239 1217 239 1075 105 c 128,-1,6
 933 -29 933 -29 678 -29 c 128,-1,7
 423 -29 423 -29 281 105 c 128,-1,8
 139 239 139 239 139 492 c 2,9,-1
 139 1567 l 1,10,-1
 432 1567 l 1,11,-1
 432 502 l 2,12,13
 432 368 432 368 496 296.5 c 128,-1,14
 560 225 560 225 678 225 c 128,-1,15
 796 225 796 225 860 296.5 c 128,-1,16
 924 368 924 368 924 502 c 2,17,-1
 924 1567 l 1,18,-1
 1217 1567 l 1,19,-1
 1217 492 l 2,4,5
EndSplineSet
Position2: "'cpsp' Capital Spacing lookup 0 subtable" dx=12 dy=0 dh=27 dv=0
EndChar

StartChar: Ubreve
Encoding: 364 364 105
Width: 1351
VWidth: 2586
GlyphClass: 2
Flags: W
HStem: -29 254<529 827> 1526 41G<139 432 924 1217> 1774 170<562 796>
VStem: 139 293<330 1567> 924 293<330 1567>
LayerCount: 2
Back
Fore
SplineSet
983 2019 m 1,0,1
 983 1925 983 1925 896.5 1849.5 c 128,-1,2
 810 1774 810 1774 676 1774 c 128,-1,3
 542 1774 542 1774 457.5 1849.5 c 128,-1,4
 373 1925 373 1925 373 2019 c 1,5,-1
 543 2019 l 1,6,7
 548 1992 548 1992 585.5 1968 c 128,-1,8
 623 1944 623 1944 678 1944 c 0,9,10
 733 1944 733 1944 772 1968 c 128,-1,11
 811 1992 811 1992 813 2019 c 1,12,-1
 983 2019 l 1,0,1
1217 492 m 2,13,14
 1217 239 1217 239 1075 105 c 128,-1,15
 933 -29 933 -29 678 -29 c 128,-1,16
 423 -29 423 -29 281 105 c 128,-1,17
 139 239 139 239 139 492 c 2,18,-1
 139 1567 l 1,19,-1
 432 1567 l 1,20,-1
 432 502 l 2,21,22
 432 368 432 368 496 296.5 c 128,-1,23
 560 225 560 225 678 225 c 128,-1,24
 796 225 796 225 860 296.5 c 128,-1,25
 924 368 924 368 924 502 c 2,26,-1
 924 1567 l 1,27,-1
 1217 1567 l 1,28,-1
 1217 492 l 2,13,14
EndSplineSet
Position2: "'cpsp' Capital Spacing lookup 0 subtable" dx=12 dy=0 dh=27 dv=0
EndChar

StartChar: Ucircumflex
Encoding: 219 219 106
Width: 1351
VWidth: 2586
GlyphClass: 2
Flags: W
HStem: -29 254<529 827> 1526 41G<139 432 924 1217>
VStem: 139 293<330 1567> 924 293<330 1567>
LayerCount: 2
Back
Fore
SplineSet
778 1710 m 1,0,-1
 678 1868 l 1,1,-1
 573 1710 l 1,2,-1
 371 1710 l 1,3,-1
 567 2019 l 1,4,-1
 791 2019 l 1,5,-1
 985 1710 l 1,6,-1
 778 1710 l 1,0,-1
1217 492 m 2,7,8
 1217 239 1217 239 1075 105 c 128,-1,9
 933 -29 933 -29 678 -29 c 128,-1,10
 423 -29 423 -29 281 105 c 128,-1,11
 139 239 139 239 139 492 c 2,12,-1
 139 1567 l 1,13,-1
 432 1567 l 1,14,-1
 432 502 l 2,15,16
 432 368 432 368 496 296.5 c 128,-1,17
 560 225 560 225 678 225 c 128,-1,18
 796 225 796 225 860 296.5 c 128,-1,19
 924 368 924 368 924 502 c 2,20,-1
 924 1567 l 1,21,-1
 1217 1567 l 1,22,-1
 1217 492 l 2,7,8
EndSplineSet
Position2: "'cpsp' Capital Spacing lookup 0 subtable" dx=12 dy=0 dh=27 dv=0
EndChar

StartChar: Udieresis
Encoding: 220 220 107
Width: 1351
VWidth: 2586
GlyphClass: 2
Flags: W
HStem: -29 254<529 827> 1526 41G<139 432 924 1217> 1769 250<365 592 760 993>
VStem: 139 293<330 1567> 365 227<1769 2019> 760 233<1769 2019> 924 293<330 1567>
LayerCount: 2
Back
Fore
SplineSet
365 1769 m 1,0,-1
 365 2019 l 1,1,-1
 592 2019 l 1,2,-1
 592 1769 l 1,3,-1
 365 1769 l 1,0,-1
760 1769 m 1,4,-1
 760 2019 l 1,5,-1
 993 2019 l 1,6,-1
 993 1769 l 1,7,-1
 760 1769 l 1,4,-1
1217 492 m 2,8,9
 1217 239 1217 239 1075 105 c 128,-1,10
 933 -29 933 -29 678 -29 c 128,-1,11
 423 -29 423 -29 281 105 c 128,-1,12
 139 239 139 239 139 492 c 2,13,-1
 139 1567 l 1,14,-1
 432 1567 l 1,15,-1
 432 502 l 2,16,17
 432 368 432 368 496 296.5 c 128,-1,18
 560 225 560 225 678 225 c 128,-1,19
 796 225 796 225 860 296.5 c 128,-1,20
 924 368 924 368 924 502 c 2,21,-1
 924 1567 l 1,22,-1
 1217 1567 l 1,23,-1
 1217 492 l 2,8,9
EndSplineSet
Position2: "'cpsp' Capital Spacing lookup 0 subtable" dx=12 dy=0 dh=27 dv=0
EndChar

StartChar: Ugrave
Encoding: 217 217 108
Width: 1351
VWidth: 2586
GlyphClass: 2
Flags: W
HStem: -29 254<529 827> 1526 41G<139 432 924 1217>
VStem: 139 293<330 1567> 924 293<330 1567>
LayerCount: 2
Back
Fore
SplineSet
608 1718 m 1,0,-1
 359 2017 l 1,1,-1
 639 2017 l 1,2,-1
 836 1718 l 1,3,-1
 608 1718 l 1,0,-1
1217 492 m 2,4,5
 1217 239 1217 239 1075 105 c 128,-1,6
 933 -29 933 -29 678 -29 c 128,-1,7
 423 -29 423 -29 281 105 c 128,-1,8
 139 239 139 239 139 492 c 2,9,-1
 139 1567 l 1,10,-1
 432 1567 l 1,11,-1
 432 502 l 2,12,13
 432 368 432 368 496 296.5 c 128,-1,14
 560 225 560 225 678 225 c 128,-1,15
 796 225 796 225 860 296.5 c 128,-1,16
 924 368 924 368 924 502 c 2,17,-1
 924 1567 l 1,18,-1
 1217 1567 l 1,19,-1
 1217 492 l 2,4,5
EndSplineSet
Position2: "'cpsp' Capital Spacing lookup 0 subtable" dx=12 dy=0 dh=27 dv=0
EndChar

StartChar: Uhungarumlaut
Encoding: 368 368 109
Width: 1351
VWidth: 2586
GlyphClass: 2
Flags: W
HStem: -29 254<529 827> 1526 41G<139 432 924 1217>
VStem: 139 293<330 1567> 924 293<330 1567>
LayerCount: 2
Back
Fore
SplineSet
600 1718 m 1,0,-1
 420 1718 l 1,1,-1
 561 2019 l 1,2,-1
 788 2019 l 1,3,-1
 600 1718 l 1,0,-1
918 1718 m 1,4,-1
 739 1718 l 1,5,-1
 879 2019 l 1,6,-1
 1110 2019 l 1,7,-1
 918 1718 l 1,4,-1
1217 492 m 2,8,9
 1217 239 1217 239 1075 105 c 128,-1,10
 933 -29 933 -29 678 -29 c 128,-1,11
 423 -29 423 -29 281 105 c 128,-1,12
 139 239 139 239 139 492 c 2,13,-1
 139 1567 l 1,14,-1
 432 1567 l 1,15,-1
 432 502 l 2,16,17
 432 368 432 368 496 296.5 c 128,-1,18
 560 225 560 225 678 225 c 128,-1,19
 796 225 796 225 860 296.5 c 128,-1,20
 924 368 924 368 924 502 c 2,21,-1
 924 1567 l 1,22,-1
 1217 1567 l 1,23,-1
 1217 492 l 2,8,9
EndSplineSet
Position2: "'cpsp' Capital Spacing lookup 0 subtable" dx=12 dy=0 dh=27 dv=0
EndChar

StartChar: Umacron
Encoding: 362 362 110
Width: 1351
VWidth: 2586
GlyphClass: 2
Flags: W
HStem: -29 254<529 827> 1526 41G<139 432 924 1217> 1735 201<385 971>
VStem: 139 293<330 1567> 924 293<330 1567>
LayerCount: 2
Back
Fore
SplineSet
385 1735 m 1,0,-1
 385 1935 l 1,1,-1
 971 1935 l 1,2,-1
 971 1735 l 1,3,-1
 385 1735 l 1,0,-1
1217 492 m 2,4,5
 1217 239 1217 239 1075 105 c 128,-1,6
 933 -29 933 -29 678 -29 c 128,-1,7
 423 -29 423 -29 281 105 c 128,-1,8
 139 239 139 239 139 492 c 2,9,-1
 139 1567 l 1,10,-1
 432 1567 l 1,11,-1
 432 502 l 2,12,13
 432 368 432 368 496 296.5 c 128,-1,14
 560 225 560 225 678 225 c 128,-1,15
 796 225 796 225 860 296.5 c 128,-1,16
 924 368 924 368 924 502 c 2,17,-1
 924 1567 l 1,18,-1
 1217 1567 l 1,19,-1
 1217 492 l 2,4,5
EndSplineSet
Position2: "'cpsp' Capital Spacing lookup 0 subtable" dx=12 dy=0 dh=27 dv=0
EndChar

StartChar: Uogonek
Encoding: 370 370 111
Width: 1351
VWidth: 2586
GlyphClass: 2
Flags: W
HStem: -424 158<875 1009> -391 125<875 1012> -29 254<532 699> 1526 41G<139 432 924 1217>
VStem: 139 293<330 1567> 633 223<-247 -62> 924 293<333 1567>
LayerCount: 2
Back
Fore
SplineSet
1217 1567 m 1,0,-1
 1217 510 l 2,1,2
 1217 318 1217 318 1142 191.5 c 128,-1,3
 1067 65 1067 65 926 10 c 1,4,5
 900 -18 900 -18 878 -62 c 128,-1,6
 856 -106 856 -106 856 -151.5 c 0,7,8
 856 -197 856 -197 882 -231.5 c 128,-1,9
 908 -266 908 -266 961 -266 c 2,10,-1
 1012 -266 l 1,11,-1
 1012 -391 l 1,12,13
 921 -424 921 -424 868.5 -424 c 0,14,15
 816 -424 816 -424 778.5 -413.5 c 128,-1,16
 741 -403 741 -403 707 -380.5 c 128,-1,17
 673 -358 673 -358 653 -316 c 128,-1,18
 633 -274 633 -274 633 -217 c 0,19,20
 633 -113 633 -113 700 -29 c 1,21,-1
 678 -29 l 2,22,23
 423 -29 423 -29 281 110 c 128,-1,24
 139 249 139 249 139 510 c 2,25,-1
 139 1567 l 1,26,-1
 432 1567 l 1,27,-1
 432 520 l 2,28,29
 432 375 432 375 496 300 c 128,-1,30
 560 225 560 225 678 225 c 128,-1,31
 796 225 796 225 860 300 c 128,-1,32
 924 375 924 375 924 520 c 2,33,-1
 924 1567 l 1,34,-1
 1217 1567 l 1,0,-1
EndSplineSet
Position2: "'cpsp' Capital Spacing lookup 0 subtable" dx=12 dy=0 dh=27 dv=0
EndChar

StartChar: Uring
Encoding: 366 366 112
Width: 1351
VWidth: 2586
GlyphClass: 2
Flags: W
HStem: -29 254<529 827> 1526 41G<139 432 924 1217> 1649 115<592 760> 1974 113<592 760>
VStem: 139 293<330 1567> 459 113<1784 1954> 780 117<1782 1954> 924 293<330 1567>
LayerCount: 2
Back
Fore
SplineSet
523 2023 m 128,-1,1
 587 2087 587 2087 677.5 2087 c 128,-1,2
 768 2087 768 2087 832.5 2022.5 c 128,-1,3
 897 1958 897 1958 897 1867.5 c 128,-1,4
 897 1777 897 1777 833 1713 c 128,-1,5
 769 1649 769 1649 678.5 1649 c 128,-1,6
 588 1649 588 1649 523.5 1712 c 128,-1,7
 459 1775 459 1775 459 1867 c 128,-1,0
 459 1959 459 1959 523 2023 c 128,-1,1
750.5 1943 m 128,-1,9
 721 1974 721 1974 677.5 1974 c 128,-1,10
 634 1974 634 1974 602.5 1943 c 128,-1,11
 571 1912 571 1912 571 1868 c 128,-1,12
 571 1824 571 1824 602.5 1793.5 c 128,-1,13
 634 1763 634 1763 677.5 1763 c 128,-1,14
 721 1763 721 1763 750.5 1793.5 c 128,-1,15
 780 1824 780 1824 780 1868 c 128,-1,8
 780 1912 780 1912 750.5 1943 c 128,-1,9
1217 492 m 2,16,17
 1217 239 1217 239 1075 105 c 128,-1,18
 933 -29 933 -29 678 -29 c 128,-1,19
 423 -29 423 -29 281 105 c 128,-1,20
 139 239 139 239 139 492 c 2,21,-1
 139 1567 l 1,22,-1
 432 1567 l 1,23,-1
 432 502 l 2,24,25
 432 368 432 368 496 296.5 c 128,-1,26
 560 225 560 225 678 225 c 128,-1,27
 796 225 796 225 860 296.5 c 128,-1,28
 924 368 924 368 924 502 c 2,29,-1
 924 1567 l 1,30,-1
 1217 1567 l 1,31,-1
 1217 492 l 2,16,17
EndSplineSet
Position2: "'cpsp' Capital Spacing lookup 0 subtable" dx=12 dy=0 dh=27 dv=0
EndChar

StartChar: Utilde
Encoding: 360 360 113
Width: 1351
VWidth: 2586
GlyphClass: 2
Flags: W
HStem: -29 254<529 827> 1526 41G<139 432 924 1217> 1741 195<673 897> 1823 197<456 678>
VStem: 139 293<330 1567> 293 150<1741 1813> 911 150<1946 2019> 924 293<330 1567>
LayerCount: 2
Back
Fore
SplineSet
1061 2019 m 1,0,1
 1061 1969 1061 1969 1048 1921.5 c 128,-1,2
 1035 1874 1035 1874 1009 1832.5 c 128,-1,3
 983 1791 983 1791 938 1766 c 128,-1,4
 893 1741 893 1741 836 1740.5 c 0,5,6
 779 1740 779 1740 681 1781 c 128,-1,7
 583 1822 583 1822 532 1823 c 0,8,9
 455 1823 455 1823 442 1741 c 1,10,-1
 293 1741 l 1,11,12
 293 1790 293 1790 306 1837.5 c 128,-1,13
 319 1885 319 1885 345 1926.5 c 128,-1,14
 371 1968 371 1968 416 1993.5 c 128,-1,15
 461 2019 461 2019 517.5 2019.5 c 0,16,17
 574 2020 574 2020 671.5 1978 c 128,-1,18
 769 1936 769 1936 813.5 1935.5 c 0,19,20
 858 1935 858 1935 881 1953.5 c 128,-1,21
 904 1972 904 1972 911 2019 c 1,22,-1
 1061 2019 l 1,0,1
1217 492 m 2,23,24
 1217 239 1217 239 1075 105 c 128,-1,25
 933 -29 933 -29 678 -29 c 128,-1,26
 423 -29 423 -29 281 105 c 128,-1,27
 139 239 139 239 139 492 c 2,28,-1
 139 1567 l 1,29,-1
 432 1567 l 1,30,-1
 432 502 l 2,31,32
 432 368 432 368 496 296.5 c 128,-1,33
 560 225 560 225 678 225 c 128,-1,34
 796 225 796 225 860 296.5 c 128,-1,35
 924 368 924 368 924 502 c 2,36,-1
 924 1567 l 1,37,-1
 1217 1567 l 1,38,-1
 1217 492 l 2,23,24
EndSplineSet
Position2: "'cpsp' Capital Spacing lookup 0 subtable" dx=12 dy=0 dh=27 dv=0
EndChar

StartChar: V
Encoding: 86 86 114
Width: 1251
VWidth: 2586
GlyphClass: 2
Flags: W
HStem: 0 43G<467 787> 1526 41G<0 315 952 1251>
LayerCount: 2
Back
Fore
SplineSet
0 1567 m 1,0,-1
 303 1567 l 1,1,-1
 631 444 l 1,2,-1
 965 1567 l 1,3,-1
 1251 1567 l 1,4,-1
 774 0 l 1,5,-1
 479 0 l 1,6,-1
 0 1567 l 1,0,-1
EndSplineSet
Position2: "'cpsp' Capital Spacing lookup 0 subtable" dx=12 dy=0 dh=27 dv=0
EndChar

StartChar: W
Encoding: 87 87 115
Width: 1767
VWidth: 2586
GlyphClass: 2
Flags: W
HStem: 0 43G<333 645 1124 1436> 1526 41G<0 296 729 1077 1507 1767>
AnchorPoint: "Anchor-1" 0 0 basechar 0
AnchorPoint: "Anchor-0" 885 1567 basechar 0
LayerCount: 2
Back
Fore
SplineSet
918 999 m 2,0,1
 910 1035 910 1035 903.5 1090 c 128,-1,2
 897 1145 897 1145 894.5 1182.5 c 2,3,-1
 892 1220 l 1,4,-1
 637 0 l 1,5,-1
 342 0 l 1,6,-1
 0 1567 l 1,7,-1
 289 1567 l 1,8,-1
 503 391 l 1,9,-1
 737 1567 l 1,10,-1
 1069 1567 l 1,11,-1
 1283 390 l 1,12,-1
 1516 1567 l 1,13,-1
 1767 1567 l 1,14,-1
 1427 0 l 1,15,-1
 1133 0 l 1,16,-1
 918 999 l 2,0,1
EndSplineSet
Position2: "'cpsp' Capital Spacing lookup 0 subtable" dx=12 dy=0 dh=27 dv=0
EndChar

StartChar: Wacute
Encoding: 7810 7810 116
Width: 1767
VWidth: 2586
GlyphClass: 2
Flags: W
HStem: 0 43G<333 645 1124 1436> 1526 41G<0 296 729 1077 1507 1767>
LayerCount: 2
Back
Fore
SplineSet
954 1718 m 1,0,-1
 727 1718 l 1,1,-1
 924 2019 l 1,2,-1
 1198 2019 l 1,3,-1
 954 1718 l 1,0,-1
1133 0 m 1,4,-1
 890 1213 l 1,5,-1
 637 0 l 1,6,-1
 342 0 l 1,7,-1
 0 1567 l 1,8,-1
 289 1567 l 1,9,-1
 503 391 l 1,10,-1
 737 1567 l 1,11,-1
 1069 1567 l 1,12,-1
 1283 390 l 1,13,-1
 1516 1567 l 1,14,-1
 1767 1567 l 1,15,-1
 1427 0 l 1,16,-1
 1133 0 l 1,4,-1
EndSplineSet
Position2: "'cpsp' Capital Spacing lookup 0 subtable" dx=12 dy=0 dh=27 dv=0
EndChar

StartChar: Wcircumflex
Encoding: 372 372 117
Width: 1767
VWidth: 2586
GlyphClass: 2
Flags: W
HStem: 0 43G<333 645 1124 1436> 1526 41G<0 296 729 1077 1507 1767>
LayerCount: 2
Back
Fore
SplineSet
887 1868 m 1,0,-1
 784 1710 l 1,1,-1
 580 1710 l 1,2,-1
 776 2019 l 1,3,-1
 999 2019 l 1,4,-1
 1192 1710 l 1,5,-1
 987 1710 l 1,6,-1
 887 1868 l 1,0,-1
918 999 m 2,7,8
 910 1035 910 1035 903.5 1090 c 128,-1,9
 897 1145 897 1145 894.5 1182.5 c 2,10,-1
 892 1220 l 1,11,-1
 637 0 l 1,12,-1
 342 0 l 1,13,-1
 0 1567 l 1,14,-1
 289 1567 l 1,15,-1
 503 391 l 1,16,-1
 737 1567 l 1,17,-1
 1069 1567 l 1,18,-1
 1283 390 l 1,19,-1
 1516 1567 l 1,20,-1
 1767 1567 l 1,21,-1
 1427 0 l 1,22,-1
 1133 0 l 1,23,-1
 918 999 l 2,7,8
EndSplineSet
Position2: "'cpsp' Capital Spacing lookup 0 subtable" dx=12 dy=0 dh=27 dv=0
EndChar

StartChar: Wdieresis
Encoding: 7812 7812 118
Width: 1767
VWidth: 2586
GlyphClass: 2
Flags: W
HStem: 0 43G<333 645 1124 1436> 1526 41G<0 296 729 1077 1507 1767> 1769 250<571 799 973 1200>
VStem: 571 227<1769 2019> 973 227<1769 2019>
LayerCount: 2
Back
Fore
SplineSet
571 1769 m 1,0,-1
 571 2019 l 1,1,-1
 799 2019 l 1,2,-1
 799 1769 l 1,3,-1
 571 1769 l 1,0,-1
973 1769 m 1,4,-1
 973 2019 l 1,5,-1
 1200 2019 l 1,6,-1
 1200 1769 l 1,7,-1
 973 1769 l 1,4,-1
1133 0 m 1,8,-1
 890 1213 l 1,9,-1
 637 0 l 1,10,-1
 342 0 l 1,11,-1
 0 1567 l 1,12,-1
 289 1567 l 1,13,-1
 503 391 l 1,14,-1
 737 1567 l 1,15,-1
 1069 1567 l 1,16,-1
 1283 390 l 1,17,-1
 1516 1567 l 1,18,-1
 1767 1567 l 1,19,-1
 1427 0 l 1,20,-1
 1133 0 l 1,8,-1
EndSplineSet
Position2: "'cpsp' Capital Spacing lookup 0 subtable" dx=12 dy=0 dh=27 dv=0
EndChar

StartChar: Wgrave
Encoding: 7808 7808 119
Width: 1767
VWidth: 2586
GlyphClass: 2
Flags: W
HStem: 0 43G<333 645 1124 1436> 1526 41G<0 296 729 1077 1507 1767>
LayerCount: 2
Back
Fore
SplineSet
817 1718 m 1,0,-1
 566 2017 l 1,1,-1
 846 2017 l 1,2,-1
 1042 1718 l 1,3,-1
 817 1718 l 1,0,-1
1133 0 m 1,4,-1
 890 1213 l 1,5,-1
 637 0 l 1,6,-1
 342 0 l 1,7,-1
 0 1567 l 1,8,-1
 289 1567 l 1,9,-1
 503 391 l 1,10,-1
 737 1567 l 1,11,-1
 1069 1567 l 1,12,-1
 1283 390 l 1,13,-1
 1516 1567 l 1,14,-1
 1767 1567 l 1,15,-1
 1427 0 l 1,16,-1
 1133 0 l 1,4,-1
EndSplineSet
Position2: "'cpsp' Capital Spacing lookup 0 subtable" dx=12 dy=0 dh=27 dv=0
EndChar

StartChar: X
Encoding: 88 88 120
Width: 1251
VWidth: 2586
GlyphClass: 2
Flags: W
HStem: 0 43G<0 327 903 1249> 1526 41G<41 388 881 1208>
LayerCount: 2
Back
Fore
SplineSet
1249 0 m 1,0,-1
 924 0 l 1,1,-1
 618 592 l 1,2,-1
 305 0 l 1,3,-1
 0 0 l 1,4,-1
 442 823 l 1,5,-1
 41 1567 l 1,6,-1
 367 1567 l 1,7,-1
 631 1055 l 1,8,-1
 903 1567 l 1,9,-1
 1208 1567 l 1,10,-1
 803 827 l 1,11,-1
 1249 0 l 1,0,-1
EndSplineSet
Position2: "'cpsp' Capital Spacing lookup 0 subtable" dx=12 dy=0 dh=27 dv=0
EndChar

StartChar: Y
Encoding: 89 89 121
Width: 1251
VWidth: 2586
GlyphClass: 2
Flags: W
HStem: 0 43G<481 774> 1526 41G<0 326 937 1251>
VStem: 481 293<0 592>
AnchorPoint: "Anchor-1" 0 0 basechar 0
AnchorPoint: "Anchor-0" 627 1567 basechar 0
LayerCount: 2
Back
Fore
SplineSet
481 0 m 1,0,-1
 481 592 l 1,1,-1
 0 1567 l 1,2,-1
 307 1567 l 1,3,-1
 629 879 l 1,4,-1
 956 1567 l 1,5,-1
 1251 1567 l 1,6,-1
 774 592 l 1,7,-1
 774 0 l 1,8,-1
 481 0 l 1,0,-1
EndSplineSet
Position2: "'cpsp' Capital Spacing lookup 0 subtable" dx=12 dy=0 dh=27 dv=0
EndChar

StartChar: Yacute
Encoding: 221 221 122
Width: 1251
VWidth: 2586
GlyphClass: 2
Flags: W
HStem: 0 43G<481 774> 1526 41G<0 326 937 1251>
VStem: 481 293<0 592>
LayerCount: 2
Back
Fore
SplineSet
696 1718 m 1,0,-1
 469 1718 l 1,1,-1
 666 2019 l 1,2,-1
 938 2019 l 1,3,-1
 696 1718 l 1,0,-1
774 0 m 1,4,-1
 481 0 l 1,5,-1
 481 592 l 1,6,-1
 0 1567 l 1,7,-1
 307 1567 l 1,8,-1
 629 879 l 1,9,-1
 956 1567 l 1,10,-1
 1251 1567 l 1,11,-1
 774 592 l 1,12,-1
 774 0 l 1,4,-1
EndSplineSet
Position2: "'cpsp' Capital Spacing lookup 0 subtable" dx=12 dy=0 dh=27 dv=0
EndChar

StartChar: Ycircumflex
Encoding: 374 374 123
Width: 1251
VWidth: 2586
GlyphClass: 2
Flags: W
HStem: 0 43G<481 774> 1526 41G<0 326 937 1251>
VStem: 481 293<0 592>
LayerCount: 2
Back
Fore
SplineSet
627 1868 m 1,0,-1
 522 1710 l 1,1,-1
 317 1710 l 1,2,-1
 514 2019 l 1,3,-1
 739 2019 l 1,4,-1
 934 1710 l 1,5,-1
 727 1710 l 1,6,-1
 627 1868 l 1,0,-1
481 0 m 1,7,-1
 481 592 l 1,8,-1
 0 1567 l 1,9,-1
 307 1567 l 1,10,-1
 629 879 l 1,11,-1
 956 1567 l 1,12,-1
 1251 1567 l 1,13,-1
 774 592 l 1,14,-1
 774 0 l 1,15,-1
 481 0 l 1,7,-1
EndSplineSet
Position2: "'cpsp' Capital Spacing lookup 0 subtable" dx=12 dy=0 dh=27 dv=0
EndChar

StartChar: Ydieresis
Encoding: 376 376 124
Width: 1251
VWidth: 2586
GlyphClass: 2
Flags: W
HStem: 0 43G<481 774> 1526 41G<0 326 937 1251> 1769 250<311 541 711 938>
VStem: 311 229<1769 2019> 481 293<0 592> 711 227<1769 2019>
LayerCount: 2
Back
Fore
SplineSet
311 1769 m 1,0,-1
 311 2019 l 1,1,-1
 541 2019 l 1,2,-1
 541 1769 l 1,3,-1
 311 1769 l 1,0,-1
711 1769 m 1,4,-1
 711 2019 l 1,5,-1
 938 2019 l 1,6,-1
 938 1769 l 1,7,-1
 711 1769 l 1,4,-1
774 0 m 1,8,-1
 481 0 l 1,9,-1
 481 592 l 1,10,-1
 0 1567 l 1,11,-1
 307 1567 l 1,12,-1
 629 879 l 1,13,-1
 956 1567 l 1,14,-1
 1251 1567 l 1,15,-1
 774 592 l 1,16,-1
 774 0 l 1,8,-1
EndSplineSet
Position2: "'cpsp' Capital Spacing lookup 0 subtable" dx=12 dy=0 dh=27 dv=0
EndChar

StartChar: Ygrave
Encoding: 7922 7922 125
Width: 1251
VWidth: 2586
GlyphClass: 2
Flags: W
HStem: 0 43G<481 774> 1526 41G<0 326 937 1251>
VStem: 481 293<0 592>
LayerCount: 2
Back
Fore
SplineSet
557 1718 m 1,0,-1
 304 2017 l 1,1,-1
 584 2017 l 1,2,-1
 780 1718 l 1,3,-1
 557 1718 l 1,0,-1
774 0 m 1,4,-1
 481 0 l 1,5,-1
 481 592 l 1,6,-1
 0 1567 l 1,7,-1
 307 1567 l 1,8,-1
 629 879 l 1,9,-1
 956 1567 l 1,10,-1
 1251 1567 l 1,11,-1
 774 592 l 1,12,-1
 774 0 l 1,4,-1
EndSplineSet
Position2: "'cpsp' Capital Spacing lookup 0 subtable" dx=12 dy=0 dh=27 dv=0
EndChar

StartChar: Z
Encoding: 90 90 126
Width: 1144
VWidth: 2586
GlyphClass: 2
Flags: W
HStem: 0 262<436 1098> 1309 258<86 680>
AnchorPoint: "Anchor-1" 0 0 basechar 0
AnchorPoint: "Anchor-0" 573 1567 basechar 0
LayerCount: 2
Back
Fore
SplineSet
1098 262 m 1,0,-1
 1098 0 l 1,1,-1
 37 0 l 1,2,-1
 37 111 l 1,3,-1
 680 1309 l 1,4,-1
 86 1309 l 1,5,-1
 86 1567 l 1,6,-1
 1081 1567 l 1,7,-1
 1081 1454 l 1,8,-1
 436 262 l 1,9,-1
 1098 262 l 1,0,-1
EndSplineSet
Position2: "'cpsp' Capital Spacing lookup 0 subtable" dx=12 dy=0 dh=27 dv=0
EndChar

StartChar: Zacute
Encoding: 377 377 127
Width: 1144
VWidth: 2586
GlyphClass: 2
Flags: W
HStem: 0 262<436 1098> 1309 258<86 680>
LayerCount: 2
Back
Fore
SplineSet
641 1718 m 1,0,-1
 416 1718 l 1,1,-1
 612 2019 l 1,2,-1
 887 2019 l 1,3,-1
 641 1718 l 1,0,-1
1098 262 m 1,4,-1
 1098 0 l 1,5,-1
 37 0 l 1,6,-1
 37 111 l 1,7,-1
 680 1309 l 1,8,-1
 86 1309 l 1,9,-1
 86 1567 l 1,10,-1
 1081 1567 l 1,11,-1
 1081 1454 l 1,12,-1
 436 262 l 1,13,-1
 1098 262 l 1,4,-1
EndSplineSet
Position2: "'cpsp' Capital Spacing lookup 0 subtable" dx=12 dy=0 dh=27 dv=0
EndChar

StartChar: Zcaron
Encoding: 381 381 128
Width: 1144
VWidth: 2586
GlyphClass: 2
Flags: W
HStem: 0 262<436 1098> 1309 258<86 680>
LayerCount: 2
Back
Fore
SplineSet
463 1710 m 1,0,-1
 266 2019 l 1,1,-1
 471 2019 l 1,2,-1
 573 1862 l 1,3,-1
 676 2019 l 1,4,-1
 879 2019 l 1,5,-1
 686 1710 l 1,6,-1
 463 1710 l 1,0,-1
1098 262 m 1,7,-1
 1098 0 l 1,8,-1
 37 0 l 1,9,-1
 37 111 l 1,10,-1
 680 1309 l 1,11,-1
 86 1309 l 1,12,-1
 86 1567 l 1,13,-1
 1081 1567 l 1,14,-1
 1081 1454 l 1,15,-1
 436 262 l 1,16,-1
 1098 262 l 1,7,-1
EndSplineSet
Position2: "'cpsp' Capital Spacing lookup 0 subtable" dx=12 dy=0 dh=27 dv=0
EndChar

StartChar: Zdotaccent
Encoding: 379 379 129
Width: 1144
VWidth: 2586
GlyphClass: 2
Flags: W
HStem: 0 262<436 1098> 1309 258<86 680> 1757 262<451 696>
VStem: 451 246<1757 2019>
LayerCount: 2
Back
Fore
SplineSet
451 1757 m 1,0,-1
 451 2019 l 1,1,-1
 696 2019 l 1,2,-1
 696 1757 l 1,3,-1
 451 1757 l 1,0,-1
1098 262 m 1,4,-1
 1098 0 l 1,5,-1
 37 0 l 1,6,-1
 37 111 l 1,7,-1
 680 1309 l 1,8,-1
 86 1309 l 1,9,-1
 86 1567 l 1,10,-1
 1081 1567 l 1,11,-1
 1081 1454 l 1,12,-1
 436 262 l 1,13,-1
 1098 262 l 1,4,-1
EndSplineSet
Position2: "'cpsp' Capital Spacing lookup 0 subtable" dx=12 dy=0 dh=27 dv=0
EndChar

StartChar: a
Encoding: 97 97 130
Width: 1040
VWidth: 2586
GlyphClass: 2
Flags: W
HStem: -29 231<280 526 912 1023> 10 195<912 1024> 532 199<415 629> 1006 225<389 605>
VStem: 31 283<228 451> 90 270<846 970> 629 276<277 532 731 983>
AnchorPoint: "Anchor-1" 0 0 basechar 0
AnchorPoint: "Anchor-0" 522 1202 basechar 0
LayerCount: 2
Back
Fore
SplineSet
905 877 m 2,0,-1
 905 285 l 2,1,2
 905 245 905 245 924.5 225 c 128,-1,3
 944 205 944 205 971 205 c 2,4,-1
 1024 205 l 1,5,-1
 1024 10 l 1,6,7
 961 -29 961 -29 872 -29 c 128,-1,8
 783 -29 783 -29 727.5 14 c 128,-1,9
 672 57 672 57 649 129 c 1,10,11
 592 51 592 51 519.5 11 c 128,-1,12
 447 -29 447 -29 334 -29 c 0,13,14
 297 -29 297 -29 259.5 -21 c 128,-1,15
 222 -13 222 -13 179.5 10.5 c 128,-1,16
 137 34 137 34 105 70.5 c 128,-1,17
 73 107 73 107 52 169 c 128,-1,18
 31 231 31 231 31 319 c 128,-1,19
 31 407 31 407 60 480 c 128,-1,20
 89 553 89 553 140 600 c 128,-1,21
 191 647 191 647 267.5 677 c 128,-1,22
 344 707 344 707 432 719 c 128,-1,23
 520 731 520 731 629 731 c 1,24,-1
 629 856 l 2,25,26
 629 927 629 927 602 966.5 c 128,-1,27
 575 1006 575 1006 500.5 1006 c 128,-1,28
 426 1006 426 1006 393 968 c 128,-1,29
 360 930 360 930 360 879 c 2,30,-1
 360 846 l 1,31,-1
 90 846 l 1,32,33
 72 1023 72 1023 183 1125 c 128,-1,34
 294 1227 294 1227 497.5 1229 c 128,-1,35
 701 1231 701 1231 803 1139.5 c 128,-1,36
 905 1048 905 1048 905 877 c 2,0,-1
629 532 m 1,37,38
 313 532 313 532 313 336 c 0,39,40
 313 203 313 203 446 203 c 0,41,42
 539 203 539 203 584 276.5 c 128,-1,43
 629 350 629 350 629 463 c 2,44,-1
 629 532 l 1,37,38
EndSplineSet
Substitution2: "Single Substitution lookup 40 subtable" ordfeminine
Substitution2: "'aalt' Access All Alternates lookup 0 subtable" ordfeminine
EndChar

StartChar: aacute
Encoding: 225 225 131
Width: 1040
VWidth: 2586
GlyphClass: 2
Flags: W
HStem: -29 231<280 526 912 1023> 10 195<912 1024> 532 199<415 629> 1006 225<389 605> 1612 41G<508 809>
VStem: 31 283<228 451> 90 270<846 970> 629 276<277 532 731 983>
LayerCount: 2
Back
Fore
SplineSet
563 1350 m 1,0,-1
 338 1350 l 1,1,-1
 535 1653 l 1,2,-1
 809 1653 l 1,3,-1
 563 1350 l 1,0,-1
905 877 m 2,4,-1
 905 285 l 2,5,6
 905 245 905 245 924.5 225 c 128,-1,7
 944 205 944 205 971 205 c 2,8,-1
 1024 205 l 1,9,-1
 1024 10 l 1,10,11
 961 -29 961 -29 872 -29 c 128,-1,12
 783 -29 783 -29 727.5 14 c 128,-1,13
 672 57 672 57 649 129 c 1,14,15
 592 51 592 51 519.5 11 c 128,-1,16
 447 -29 447 -29 334 -29 c 0,17,18
 297 -29 297 -29 259.5 -21 c 128,-1,19
 222 -13 222 -13 179.5 10.5 c 128,-1,20
 137 34 137 34 105 70.5 c 128,-1,21
 73 107 73 107 52 169 c 128,-1,22
 31 231 31 231 31 319 c 128,-1,23
 31 407 31 407 60 480 c 128,-1,24
 89 553 89 553 140 600 c 128,-1,25
 191 647 191 647 267.5 677 c 128,-1,26
 344 707 344 707 432 719 c 128,-1,27
 520 731 520 731 629 731 c 1,28,-1
 629 856 l 2,29,30
 629 927 629 927 602 966.5 c 128,-1,31
 575 1006 575 1006 500.5 1006 c 128,-1,32
 426 1006 426 1006 393 968 c 128,-1,33
 360 930 360 930 360 879 c 2,34,-1
 360 846 l 1,35,-1
 90 846 l 1,36,37
 72 1023 72 1023 183 1125 c 128,-1,38
 294 1227 294 1227 497.5 1229 c 128,-1,39
 701 1231 701 1231 803 1139.5 c 128,-1,40
 905 1048 905 1048 905 877 c 2,4,-1
629 532 m 1,41,42
 313 532 313 532 313 336 c 0,43,44
 313 203 313 203 446 203 c 0,45,46
 539 203 539 203 584 276.5 c 128,-1,47
 629 350 629 350 629 463 c 2,48,-1
 629 532 l 1,41,42
EndSplineSet
EndChar

StartChar: abreve
Encoding: 259 259 132
Width: 1040
VWidth: 2586
GlyphClass: 2
Flags: W
HStem: -29 231<280 526 912 1023> 10 195<912 1024> 532 199<415 629> 1006 225<389 605> 1409 168<385 609> 1612 41G<188 366 628 803>
VStem: 31 283<228 451> 90 270<846 970> 629 276<277 532 731 983>
LayerCount: 2
Back
Fore
SplineSet
803 1653 m 1,0,1
 803 1561 803 1561 715.5 1485 c 128,-1,2
 628 1409 628 1409 494 1409 c 128,-1,3
 360 1409 360 1409 274 1484.5 c 128,-1,4
 188 1560 188 1560 188 1653 c 1,5,-1
 362 1653 l 1,6,7
 367 1627 367 1627 405.5 1602 c 128,-1,8
 444 1577 444 1577 496 1577 c 128,-1,9
 548 1577 548 1577 587 1602 c 128,-1,10
 626 1627 626 1627 631 1653 c 1,11,-1
 803 1653 l 1,0,1
905 877 m 2,12,-1
 905 285 l 2,13,14
 905 245 905 245 924.5 225 c 128,-1,15
 944 205 944 205 971 205 c 2,16,-1
 1024 205 l 1,17,-1
 1024 10 l 1,18,19
 961 -29 961 -29 872 -29 c 128,-1,20
 783 -29 783 -29 727.5 14 c 128,-1,21
 672 57 672 57 649 129 c 1,22,23
 592 51 592 51 519.5 11 c 128,-1,24
 447 -29 447 -29 334 -29 c 0,25,26
 297 -29 297 -29 259.5 -21 c 128,-1,27
 222 -13 222 -13 179.5 10.5 c 128,-1,28
 137 34 137 34 105 70.5 c 128,-1,29
 73 107 73 107 52 169 c 128,-1,30
 31 231 31 231 31 319 c 128,-1,31
 31 407 31 407 60 480 c 128,-1,32
 89 553 89 553 140 600 c 128,-1,33
 191 647 191 647 267.5 677 c 128,-1,34
 344 707 344 707 432 719 c 128,-1,35
 520 731 520 731 629 731 c 1,36,-1
 629 856 l 2,37,38
 629 927 629 927 602 966.5 c 128,-1,39
 575 1006 575 1006 500.5 1006 c 128,-1,40
 426 1006 426 1006 393 968 c 128,-1,41
 360 930 360 930 360 879 c 2,42,-1
 360 846 l 1,43,-1
 90 846 l 1,44,45
 72 1023 72 1023 183 1125 c 128,-1,46
 294 1227 294 1227 497.5 1229 c 128,-1,47
 701 1231 701 1231 803 1139.5 c 128,-1,48
 905 1048 905 1048 905 877 c 2,12,-1
629 532 m 1,49,50
 313 532 313 532 313 336 c 0,51,52
 313 203 313 203 446 203 c 0,53,54
 539 203 539 203 584 276.5 c 128,-1,55
 629 350 629 350 629 463 c 2,56,-1
 629 532 l 1,49,50
EndSplineSet
EndChar

StartChar: acircumflex
Encoding: 226 226 133
Width: 1040
VWidth: 2586
GlyphClass: 2
Flags: W
HStem: -29 231<280 526 912 1023> 10 195<912 1024> 532 199<415 629> 1006 225<389 605> 1612 41G<359 636>
VStem: 31 283<228 451> 90 270<846 970> 629 276<277 532 731 983>
LayerCount: 2
Back
Fore
SplineSet
496 1503 m 1,0,-1
 393 1346 l 1,1,-1
 188 1346 l 1,2,-1
 385 1653 l 1,3,-1
 610 1653 l 1,4,-1
 805 1346 l 1,5,-1
 600 1346 l 1,6,-1
 496 1503 l 1,0,-1
905 877 m 2,7,-1
 905 285 l 2,8,9
 905 245 905 245 924.5 225 c 128,-1,10
 944 205 944 205 971 205 c 2,11,-1
 1024 205 l 1,12,-1
 1024 10 l 1,13,14
 961 -29 961 -29 872 -29 c 128,-1,15
 783 -29 783 -29 727.5 14 c 128,-1,16
 672 57 672 57 649 129 c 1,17,18
 592 51 592 51 519.5 11 c 128,-1,19
 447 -29 447 -29 334 -29 c 0,20,21
 297 -29 297 -29 259.5 -21 c 128,-1,22
 222 -13 222 -13 179.5 10.5 c 128,-1,23
 137 34 137 34 105 70.5 c 128,-1,24
 73 107 73 107 52 169 c 128,-1,25
 31 231 31 231 31 319 c 128,-1,26
 31 407 31 407 60 480 c 128,-1,27
 89 553 89 553 140 600 c 128,-1,28
 191 647 191 647 267.5 677 c 128,-1,29
 344 707 344 707 432 719 c 128,-1,30
 520 731 520 731 629 731 c 1,31,-1
 629 856 l 2,32,33
 629 927 629 927 602 966.5 c 128,-1,34
 575 1006 575 1006 500.5 1006 c 128,-1,35
 426 1006 426 1006 393 968 c 128,-1,36
 360 930 360 930 360 879 c 2,37,-1
 360 846 l 1,38,-1
 90 846 l 1,39,40
 72 1023 72 1023 183 1125 c 128,-1,41
 294 1227 294 1227 497.5 1229 c 128,-1,42
 701 1231 701 1231 803 1139.5 c 128,-1,43
 905 1048 905 1048 905 877 c 2,7,-1
629 532 m 1,44,45
 313 532 313 532 313 336 c 0,46,47
 313 203 313 203 446 203 c 0,48,49
 539 203 539 203 584 276.5 c 128,-1,50
 629 350 629 350 629 463 c 2,51,-1
 629 532 l 1,44,45
EndSplineSet
EndChar

StartChar: adieresis
Encoding: 228 228 134
Width: 1040
VWidth: 2586
GlyphClass: 2
Flags: W
HStem: -29 231<280 526 912 1023> 10 195<912 1024> 532 199<415 629> 1006 225<389 605> 1405 248<184 412 582 809>
VStem: 31 283<228 451> 90 270<846 970> 184 227<1405 1653> 582 227<1405 1653> 629 276<277 532 731 983>
LayerCount: 2
Back
Fore
SplineSet
184 1405 m 1,0,-1
 184 1653 l 1,1,-1
 412 1653 l 1,2,-1
 412 1405 l 1,3,-1
 184 1405 l 1,0,-1
582 1405 m 1,4,-1
 582 1653 l 1,5,-1
 809 1653 l 1,6,-1
 809 1405 l 1,7,-1
 582 1405 l 1,4,-1
905 877 m 2,8,-1
 905 285 l 2,9,10
 905 245 905 245 924.5 225 c 128,-1,11
 944 205 944 205 971 205 c 2,12,-1
 1024 205 l 1,13,-1
 1024 10 l 1,14,15
 961 -29 961 -29 872 -29 c 128,-1,16
 783 -29 783 -29 727.5 14 c 128,-1,17
 672 57 672 57 649 129 c 1,18,19
 592 51 592 51 519.5 11 c 128,-1,20
 447 -29 447 -29 334 -29 c 0,21,22
 297 -29 297 -29 259.5 -21 c 128,-1,23
 222 -13 222 -13 179.5 10.5 c 128,-1,24
 137 34 137 34 105 70.5 c 128,-1,25
 73 107 73 107 52 169 c 128,-1,26
 31 231 31 231 31 319 c 128,-1,27
 31 407 31 407 60 480 c 128,-1,28
 89 553 89 553 140 600 c 128,-1,29
 191 647 191 647 267.5 677 c 128,-1,30
 344 707 344 707 432 719 c 128,-1,31
 520 731 520 731 629 731 c 1,32,-1
 629 856 l 2,33,34
 629 927 629 927 602 966.5 c 128,-1,35
 575 1006 575 1006 500.5 1006 c 128,-1,36
 426 1006 426 1006 393 968 c 128,-1,37
 360 930 360 930 360 879 c 2,38,-1
 360 846 l 1,39,-1
 90 846 l 1,40,41
 72 1023 72 1023 183 1125 c 128,-1,42
 294 1227 294 1227 497.5 1229 c 128,-1,43
 701 1231 701 1231 803 1139.5 c 128,-1,44
 905 1048 905 1048 905 877 c 2,8,-1
629 532 m 1,45,46
 313 532 313 532 313 336 c 0,47,48
 313 203 313 203 446 203 c 0,49,50
 539 203 539 203 584 276.5 c 128,-1,51
 629 350 629 350 629 463 c 2,52,-1
 629 532 l 1,45,46
EndSplineSet
EndChar

StartChar: agrave
Encoding: 224 224 135
Width: 1040
VWidth: 2586
GlyphClass: 2
Flags: W
HStem: -29 231<280 526 912 1023> 10 195<912 1024> 532 199<415 629> 1006 225<389 605>
VStem: 31 283<228 451> 90 270<846 970> 629 276<277 532 731 983>
LayerCount: 2
Back
Fore
SplineSet
426 1350 m 1,0,-1
 176 1649 l 1,1,-1
 459 1649 l 1,2,-1
 655 1350 l 1,3,-1
 426 1350 l 1,0,-1
905 877 m 2,4,-1
 905 285 l 2,5,6
 905 245 905 245 924.5 225 c 128,-1,7
 944 205 944 205 971 205 c 2,8,-1
 1024 205 l 1,9,-1
 1024 10 l 1,10,11
 961 -29 961 -29 872 -29 c 128,-1,12
 783 -29 783 -29 727.5 14 c 128,-1,13
 672 57 672 57 649 129 c 1,14,15
 592 51 592 51 519.5 11 c 128,-1,16
 447 -29 447 -29 334 -29 c 0,17,18
 297 -29 297 -29 259.5 -21 c 128,-1,19
 222 -13 222 -13 179.5 10.5 c 128,-1,20
 137 34 137 34 105 70.5 c 128,-1,21
 73 107 73 107 52 169 c 128,-1,22
 31 231 31 231 31 319 c 128,-1,23
 31 407 31 407 60 480 c 128,-1,24
 89 553 89 553 140 600 c 128,-1,25
 191 647 191 647 267.5 677 c 128,-1,26
 344 707 344 707 432 719 c 128,-1,27
 520 731 520 731 629 731 c 1,28,-1
 629 856 l 2,29,30
 629 927 629 927 602 966.5 c 128,-1,31
 575 1006 575 1006 500.5 1006 c 128,-1,32
 426 1006 426 1006 393 968 c 128,-1,33
 360 930 360 930 360 879 c 2,34,-1
 360 846 l 1,35,-1
 90 846 l 1,36,37
 72 1023 72 1023 183 1125 c 128,-1,38
 294 1227 294 1227 497.5 1229 c 128,-1,39
 701 1231 701 1231 803 1139.5 c 128,-1,40
 905 1048 905 1048 905 877 c 2,4,-1
629 532 m 1,41,42
 313 532 313 532 313 336 c 0,43,44
 313 203 313 203 446 203 c 0,45,46
 539 203 539 203 584 276.5 c 128,-1,47
 629 350 629 350 629 463 c 2,48,-1
 629 532 l 1,41,42
EndSplineSet
EndChar

StartChar: amacron
Encoding: 257 257 136
Width: 1040
VWidth: 2586
GlyphClass: 2
Flags: W
HStem: -29 231<280 526 912 1023> 10 195<912 1024> 532 199<415 629> 1006 225<389 605> 1370 197<205 788>
VStem: 31 283<228 451> 90 270<846 970> 629 276<277 532 731 983>
LayerCount: 2
Back
Fore
SplineSet
205 1567 m 1,0,-1
 788 1567 l 1,1,-1
 788 1370 l 1,2,-1
 205 1370 l 1,3,-1
 205 1567 l 1,0,-1
905 877 m 2,4,-1
 905 285 l 2,5,6
 905 245 905 245 924.5 225 c 128,-1,7
 944 205 944 205 971 205 c 2,8,-1
 1024 205 l 1,9,-1
 1024 10 l 1,10,11
 961 -29 961 -29 872 -29 c 128,-1,12
 783 -29 783 -29 727.5 14 c 128,-1,13
 672 57 672 57 649 129 c 1,14,15
 592 51 592 51 519.5 11 c 128,-1,16
 447 -29 447 -29 334 -29 c 0,17,18
 297 -29 297 -29 259.5 -21 c 128,-1,19
 222 -13 222 -13 179.5 10.5 c 128,-1,20
 137 34 137 34 105 70.5 c 128,-1,21
 73 107 73 107 52 169 c 128,-1,22
 31 231 31 231 31 319 c 128,-1,23
 31 407 31 407 60 480 c 128,-1,24
 89 553 89 553 140 600 c 128,-1,25
 191 647 191 647 267.5 677 c 128,-1,26
 344 707 344 707 432 719 c 128,-1,27
 520 731 520 731 629 731 c 1,28,-1
 629 856 l 2,29,30
 629 927 629 927 602 966.5 c 128,-1,31
 575 1006 575 1006 500.5 1006 c 128,-1,32
 426 1006 426 1006 393 968 c 128,-1,33
 360 930 360 930 360 879 c 2,34,-1
 360 846 l 1,35,-1
 90 846 l 1,36,37
 72 1023 72 1023 183 1125 c 128,-1,38
 294 1227 294 1227 497.5 1229 c 128,-1,39
 701 1231 701 1231 803 1139.5 c 128,-1,40
 905 1048 905 1048 905 877 c 2,4,-1
629 532 m 1,41,42
 313 532 313 532 313 336 c 0,43,44
 313 203 313 203 446 203 c 0,45,46
 539 203 539 203 584 276.5 c 128,-1,47
 629 350 629 350 629 463 c 2,48,-1
 629 532 l 1,41,42
EndSplineSet
EndChar

StartChar: aogonek
Encoding: 261 261 137
Width: 1040
VWidth: 2586
GlyphClass: 2
Flags: W
HStem: -424 158<974 1107> -393 127<975 1110> -29 231<280 526> 532 199<415 629> 1006 225<389 605>
VStem: 31 283<228 451> 90 270<846 970> 629 276<277 532 731 983> 731 225<-249 -58>
LayerCount: 2
Back
Fore
SplineSet
1110 -393 m 1,0,1
 1025 -424 1025 -424 970 -424 c 128,-1,2
 915 -424 915 -424 878 -413.5 c 128,-1,3
 841 -403 841 -403 806.5 -381 c 128,-1,4
 772 -359 772 -359 751.5 -317 c 128,-1,5
 731 -275 731 -275 731 -219 c 0,6,7
 731 -106 731 -106 803 -20 c 1,8,9
 686 7 686 7 649 129 c 1,10,11
 592 51 592 51 519.5 11 c 128,-1,12
 447 -29 447 -29 334 -29 c 0,13,14
 297 -29 297 -29 259.5 -21 c 128,-1,15
 222 -13 222 -13 179.5 10.5 c 128,-1,16
 137 34 137 34 105 70.5 c 128,-1,17
 73 107 73 107 52 169 c 128,-1,18
 31 231 31 231 31 319 c 128,-1,19
 31 407 31 407 60 480 c 128,-1,20
 89 553 89 553 140 600 c 128,-1,21
 191 647 191 647 267.5 677 c 128,-1,22
 344 707 344 707 432 719 c 128,-1,23
 520 731 520 731 629 731 c 1,24,-1
 629 856 l 2,25,26
 629 927 629 927 602 966.5 c 128,-1,27
 575 1006 575 1006 500.5 1006 c 128,-1,28
 426 1006 426 1006 393 968 c 128,-1,29
 360 930 360 930 360 879 c 2,30,-1
 360 846 l 1,31,-1
 90 846 l 1,32,33
 72 1023 72 1023 183 1125 c 128,-1,34
 294 1227 294 1227 497.5 1229 c 128,-1,35
 701 1231 701 1231 803 1139.5 c 128,-1,36
 905 1048 905 1048 905 877 c 2,37,-1
 905 285 l 2,38,39
 905 245 905 245 924.5 225 c 128,-1,40
 944 205 944 205 971 205 c 2,41,-1
 1024 205 l 1,42,-1
 1024 10 l 1,43,44
 956 -73 956 -73 956 -136.5 c 128,-1,45
 956 -200 956 -200 981 -233 c 128,-1,46
 1006 -266 1006 -266 1059 -266 c 2,47,-1
 1110 -266 l 1,48,-1
 1110 -393 l 1,0,1
629 532 m 1,49,50
 313 532 313 532 313 336 c 0,51,52
 313 203 313 203 446 203 c 0,53,54
 539 203 539 203 584 276.5 c 128,-1,55
 629 350 629 350 629 463 c 2,56,-1
 629 532 l 1,49,50
EndSplineSet
EndChar

StartChar: aring
Encoding: 229 229 138
Width: 1040
VWidth: 2586
GlyphClass: 2
Flags: W
HStem: -29 231<280 526 912 1023> 10 195<912 1024> 532 199<415 629> 1006 225<389 605> 1282 115<411 578> 1606 117<409 583>
VStem: 31 283<228 451> 90 270<846 970> 276 115<1416 1588> 600 117<1417 1588> 629 276<277 532 731 983>
LayerCount: 2
Back
Fore
SplineSet
340.5 1658 m 128,-1,1
 405 1722 405 1722 497 1722 c 128,-1,2
 589 1722 589 1722 653 1657.5 c 128,-1,3
 717 1593 717 1593 717 1502.5 c 128,-1,4
 717 1412 717 1412 652 1347 c 128,-1,5
 587 1282 587 1282 496.5 1282 c 128,-1,6
 406 1282 406 1282 341 1346 c 128,-1,7
 276 1410 276 1410 276 1502 c 128,-1,0
 276 1594 276 1594 340.5 1658 c 128,-1,1
569.5 1576.5 m 128,-1,9
 539 1606 539 1606 495.5 1606 c 128,-1,10
 452 1606 452 1606 421.5 1576.5 c 128,-1,11
 391 1547 391 1547 391 1503 c 128,-1,12
 391 1459 391 1459 421.5 1428 c 128,-1,13
 452 1397 452 1397 495.5 1397 c 128,-1,14
 539 1397 539 1397 569.5 1428 c 128,-1,15
 600 1459 600 1459 600 1503 c 128,-1,8
 600 1547 600 1547 569.5 1576.5 c 128,-1,9
905 877 m 2,16,-1
 905 285 l 2,17,18
 905 245 905 245 924.5 225 c 128,-1,19
 944 205 944 205 971 205 c 2,20,-1
 1024 205 l 1,21,-1
 1024 10 l 1,22,23
 961 -29 961 -29 872 -29 c 128,-1,24
 783 -29 783 -29 727.5 14 c 128,-1,25
 672 57 672 57 649 129 c 1,26,27
 592 51 592 51 519.5 11 c 128,-1,28
 447 -29 447 -29 334 -29 c 0,29,30
 297 -29 297 -29 259.5 -21 c 128,-1,31
 222 -13 222 -13 179.5 10.5 c 128,-1,32
 137 34 137 34 105 70.5 c 128,-1,33
 73 107 73 107 52 169 c 128,-1,34
 31 231 31 231 31 319 c 128,-1,35
 31 407 31 407 60 480 c 128,-1,36
 89 553 89 553 140 600 c 128,-1,37
 191 647 191 647 267.5 677 c 128,-1,38
 344 707 344 707 432 719 c 128,-1,39
 520 731 520 731 629 731 c 1,40,-1
 629 856 l 2,41,42
 629 927 629 927 602 966.5 c 128,-1,43
 575 1006 575 1006 500.5 1006 c 128,-1,44
 426 1006 426 1006 393 968 c 128,-1,45
 360 930 360 930 360 879 c 2,46,-1
 360 846 l 1,47,-1
 90 846 l 1,48,49
 72 1023 72 1023 183 1125 c 128,-1,50
 294 1227 294 1227 497.5 1229 c 128,-1,51
 701 1231 701 1231 803 1139.5 c 128,-1,52
 905 1048 905 1048 905 877 c 2,16,-1
629 532 m 1,53,54
 313 532 313 532 313 336 c 0,55,56
 313 203 313 203 446 203 c 0,57,58
 539 203 539 203 584 276.5 c 128,-1,59
 629 350 629 350 629 463 c 2,60,-1
 629 532 l 1,53,54
EndSplineSet
EndChar

StartChar: aringacute
Encoding: 507 507 139
Width: 1142
VWidth: 2586
GlyphClass: 2
Flags: W
HStem: -29 231<280 526 912 1023> 10 195<912 1024> 532 199<415 629> 1006 225<389 605> 1282 109<411 581> 1595 113<409 583>
VStem: 31 283<228 451> 90 270<846 970> 276 115<1411 1577> 600 117<1411 1577> 629 276<277 532 731 983>
LayerCount: 2
Back
Fore
SplineSet
623 1757 m 1,0,-1
 399 1757 l 1,1,-1
 569 2019 l 1,2,-1
 844 2019 l 1,3,-1
 623 1757 l 1,0,-1
340.5 1645.5 m 128,-1,5
 405 1708 405 1708 497 1708 c 128,-1,6
 589 1708 589 1708 653 1645 c 128,-1,7
 717 1582 717 1582 717 1494.5 c 128,-1,8
 717 1407 717 1407 652 1344.5 c 128,-1,9
 587 1282 587 1282 496.5 1282 c 128,-1,10
 406 1282 406 1282 341 1344 c 128,-1,11
 276 1406 276 1406 276 1494.5 c 128,-1,4
 276 1583 276 1583 340.5 1645.5 c 128,-1,5
569.5 1566 m 128,-1,13
 539 1595 539 1595 495.5 1595 c 128,-1,14
 452 1595 452 1595 421.5 1566.5 c 128,-1,15
 391 1538 391 1538 391 1494.5 c 128,-1,16
 391 1451 391 1451 421.5 1421 c 128,-1,17
 452 1391 452 1391 495.5 1391 c 128,-1,18
 539 1391 539 1391 569.5 1421 c 128,-1,19
 600 1451 600 1451 600 1494 c 128,-1,12
 600 1537 600 1537 569.5 1566 c 128,-1,13
905 877 m 2,20,-1
 905 285 l 2,21,22
 905 245 905 245 924.5 225 c 128,-1,23
 944 205 944 205 971 205 c 2,24,-1
 1024 205 l 1,25,-1
 1024 10 l 1,26,27
 961 -29 961 -29 872 -29 c 128,-1,28
 783 -29 783 -29 727.5 14 c 128,-1,29
 672 57 672 57 649 129 c 1,30,31
 592 51 592 51 519.5 11 c 128,-1,32
 447 -29 447 -29 334 -29 c 0,33,34
 297 -29 297 -29 259.5 -21 c 128,-1,35
 222 -13 222 -13 179.5 10.5 c 128,-1,36
 137 34 137 34 105 70.5 c 128,-1,37
 73 107 73 107 52 169 c 128,-1,38
 31 231 31 231 31 319 c 128,-1,39
 31 407 31 407 60 480 c 128,-1,40
 89 553 89 553 140 600 c 128,-1,41
 191 647 191 647 267.5 677 c 128,-1,42
 344 707 344 707 432 719 c 128,-1,43
 520 731 520 731 629 731 c 1,44,-1
 629 856 l 2,45,46
 629 927 629 927 602 966.5 c 128,-1,47
 575 1006 575 1006 500.5 1006 c 128,-1,48
 426 1006 426 1006 393 968 c 128,-1,49
 360 930 360 930 360 879 c 2,50,-1
 360 846 l 1,51,-1
 90 846 l 1,52,53
 72 1023 72 1023 183 1125 c 128,-1,54
 294 1227 294 1227 497.5 1229 c 128,-1,55
 701 1231 701 1231 803 1139.5 c 128,-1,56
 905 1048 905 1048 905 877 c 2,20,-1
629 532 m 1,57,58
 313 532 313 532 313 336 c 0,59,60
 313 203 313 203 446 203 c 0,61,62
 539 203 539 203 584 276.5 c 128,-1,63
 629 350 629 350 629 463 c 2,64,-1
 629 532 l 1,57,58
EndSplineSet
EndChar

StartChar: atilde
Encoding: 227 227 140
Width: 1040
VWidth: 2586
GlyphClass: 2
Flags: W
HStem: -29 231<280 526 912 1023> 10 195<912 1024> 532 199<415 629> 1006 225<389 605> 1374 193<495 712> 1458 195<280 493>
VStem: 31 283<228 451> 90 270<846 970> 111 154<1374 1447> 629 276<277 532 731 983> 729 150<1581 1653>
LayerCount: 2
Back
Fore
SplineSet
879 1653 m 1,0,1
 879 1603 879 1603 866.5 1556 c 128,-1,2
 854 1509 854 1509 829 1467 c 128,-1,3
 804 1425 804 1425 759 1399.5 c 128,-1,4
 714 1374 714 1374 656.5 1373.5 c 128,-1,5
 599 1373 599 1373 501.5 1415 c 128,-1,6
 404 1457 404 1457 352 1458 c 0,7,8
 275 1458 275 1458 264 1374 c 1,9,-1
 111 1374 l 1,10,11
 111 1424 111 1424 124 1471.5 c 128,-1,12
 137 1519 137 1519 163 1560.5 c 128,-1,13
 189 1602 189 1602 234 1627.5 c 128,-1,14
 279 1653 279 1653 336 1653 c 128,-1,15
 393 1653 393 1653 491.5 1610.5 c 128,-1,16
 590 1568 590 1568 634 1567.5 c 128,-1,17
 678 1567 678 1567 700 1586.5 c 128,-1,18
 722 1606 722 1606 729 1653 c 1,19,-1
 879 1653 l 1,0,1
905 877 m 2,20,-1
 905 285 l 2,21,22
 905 245 905 245 924.5 225 c 128,-1,23
 944 205 944 205 971 205 c 2,24,-1
 1024 205 l 1,25,-1
 1024 10 l 1,26,27
 961 -29 961 -29 872 -29 c 128,-1,28
 783 -29 783 -29 727.5 14 c 128,-1,29
 672 57 672 57 649 129 c 1,30,31
 592 51 592 51 519.5 11 c 128,-1,32
 447 -29 447 -29 334 -29 c 0,33,34
 297 -29 297 -29 259.5 -21 c 128,-1,35
 222 -13 222 -13 179.5 10.5 c 128,-1,36
 137 34 137 34 105 70.5 c 128,-1,37
 73 107 73 107 52 169 c 128,-1,38
 31 231 31 231 31 319 c 128,-1,39
 31 407 31 407 60 480 c 128,-1,40
 89 553 89 553 140 600 c 128,-1,41
 191 647 191 647 267.5 677 c 128,-1,42
 344 707 344 707 432 719 c 128,-1,43
 520 731 520 731 629 731 c 1,44,-1
 629 856 l 2,45,46
 629 927 629 927 602 966.5 c 128,-1,47
 575 1006 575 1006 500.5 1006 c 128,-1,48
 426 1006 426 1006 393 968 c 128,-1,49
 360 930 360 930 360 879 c 2,50,-1
 360 846 l 1,51,-1
 90 846 l 1,52,53
 72 1023 72 1023 183 1125 c 128,-1,54
 294 1227 294 1227 497.5 1229 c 128,-1,55
 701 1231 701 1231 803 1139.5 c 128,-1,56
 905 1048 905 1048 905 877 c 2,20,-1
629 532 m 1,57,58
 313 532 313 532 313 336 c 0,59,60
 313 203 313 203 446 203 c 0,61,62
 539 203 539 203 584 276.5 c 128,-1,63
 629 350 629 350 629 463 c 2,64,-1
 629 532 l 1,57,58
EndSplineSet
EndChar

StartChar: ae
Encoding: 230 230 141
Width: 1665
VWidth: 2586
GlyphClass: 2
Flags: W
HStem: -29 225<398 606 1041 1251> 532 199<467 680 971 1290> 1006 225<441 657 1038 1234>
VStem: 86 279<234 449> 145 266<846 969> 680 291<279 532 731 929> 1290 287<731 939> 1307 270<257 424>
AnchorPoint: "Anchor-1" 0 0 basechar 0
AnchorPoint: "Anchor-0" 836 1202 basechar 0
LayerCount: 2
Back
Fore
SplineSet
1143 1231 m 0,0,1
 1362 1231 1362 1231 1469.5 1077 c 128,-1,2
 1577 923 1577 923 1577 600 c 2,3,-1
 1577 532 l 1,4,-1
 967 532 l 1,5,6
 969 364 969 364 1011.5 280.5 c 128,-1,7
 1054 197 1054 197 1153 197 c 0,8,9
 1223 197 1223 197 1265 258 c 128,-1,10
 1307 319 1307 319 1307 424 c 1,11,-1
 1577 424 l 1,12,13
 1577 202 1577 202 1460.5 86.5 c 128,-1,14
 1344 -29 1344 -29 1153 -29 c 0,15,16
 912 -29 912 -29 795 135 c 1,17,18
 723 56 723 56 636.5 13.5 c 128,-1,19
 550 -29 550 -29 432 -29 c 0,20,21
 389 -29 389 -29 346 -21 c 128,-1,22
 303 -13 303 -13 255 10.5 c 128,-1,23
 207 34 207 34 170.5 70.5 c 128,-1,24
 134 107 134 107 110 169 c 128,-1,25
 86 231 86 231 86 330.5 c 0,26,27
 86 430 86 430 128.5 513.5 c 128,-1,28
 171 597 171 597 253 643.5 c 128,-1,29
 335 690 335 690 438.5 710.5 c 128,-1,30
 542 731 542 731 680 731 c 1,31,-1
 680 856 l 2,32,33
 680 927 680 927 654.5 966.5 c 128,-1,34
 629 1006 629 1006 554 1006 c 0,35,36
 479 1006 479 1006 445.5 968.5 c 128,-1,37
 412 931 412 931 412 879 c 2,38,-1
 412 846 l 1,39,-1
 145 846 l 1,40,41
 123 1020 123 1020 235.5 1124.5 c 128,-1,42
 348 1229 348 1229 549.5 1230 c 0,43,44
 751 1231 751 1231 856 1114 c 1,45,46
 970 1231 970 1231 1143 1231 c 0,0,1
1143 1006 m 0,47,48
 1058 1006 1058 1006 1017.5 936.5 c 128,-1,49
 977 867 977 867 971 731 c 1,50,-1
 1290 731 l 1,51,52
 1290 1006 1290 1006 1143 1006 c 0,47,48
680 532 m 1,53,54
 616 532 616 532 563.5 523 c 128,-1,55
 511 514 511 514 464 493 c 128,-1,56
 417 472 417 472 391 432 c 128,-1,57
 365 392 365 392 365 336 c 0,58,59
 365 203 365 203 502 203 c 0,60,61
 593 203 593 203 636.5 276 c 128,-1,62
 680 349 680 349 680 463 c 2,63,-1
 680 532 l 1,53,54
EndSplineSet
EndChar

StartChar: aeacute
Encoding: 509 509 142
Width: 1665
VWidth: 2586
GlyphClass: 2
Flags: W
HStem: -29 225<398 606 1041 1251> 532 199<467 680 971 1290> 1006 225<441 657 1038 1234> 1612 41G<848 1149>
VStem: 86 279<234 449> 145 266<846 969> 680 291<279 532 731 929> 1290 287<731 939> 1307 270<257 424>
LayerCount: 2
Back
Fore
SplineSet
903 1350 m 1,0,-1
 678 1350 l 1,1,-1
 874 1653 l 1,2,-1
 1149 1653 l 1,3,-1
 903 1350 l 1,0,-1
1143 1231 m 0,4,5
 1362 1231 1362 1231 1469.5 1077 c 128,-1,6
 1577 923 1577 923 1577 600 c 2,7,-1
 1577 532 l 1,8,-1
 967 532 l 1,9,10
 969 364 969 364 1011.5 280.5 c 128,-1,11
 1054 197 1054 197 1153 197 c 0,12,13
 1223 197 1223 197 1265 258 c 128,-1,14
 1307 319 1307 319 1307 424 c 1,15,-1
 1577 424 l 1,16,17
 1577 202 1577 202 1460.5 86.5 c 128,-1,18
 1344 -29 1344 -29 1153 -29 c 0,19,20
 912 -29 912 -29 795 135 c 1,21,22
 723 56 723 56 636.5 13.5 c 128,-1,23
 550 -29 550 -29 432 -29 c 0,24,25
 389 -29 389 -29 346 -21 c 128,-1,26
 303 -13 303 -13 255 10.5 c 128,-1,27
 207 34 207 34 170.5 70.5 c 128,-1,28
 134 107 134 107 110 169 c 128,-1,29
 86 231 86 231 86 330.5 c 0,30,31
 86 430 86 430 128.5 513.5 c 128,-1,32
 171 597 171 597 253 643.5 c 128,-1,33
 335 690 335 690 438.5 710.5 c 128,-1,34
 542 731 542 731 680 731 c 1,35,-1
 680 856 l 2,36,37
 680 927 680 927 654.5 966.5 c 128,-1,38
 629 1006 629 1006 554 1006 c 0,39,40
 479 1006 479 1006 445.5 968.5 c 128,-1,41
 412 931 412 931 412 879 c 2,42,-1
 412 846 l 1,43,-1
 145 846 l 1,44,45
 123 1020 123 1020 235.5 1124.5 c 128,-1,46
 348 1229 348 1229 549.5 1230 c 0,47,48
 751 1231 751 1231 856 1114 c 1,49,50
 970 1231 970 1231 1143 1231 c 0,4,5
1143 1006 m 0,51,52
 1058 1006 1058 1006 1017.5 936.5 c 128,-1,53
 977 867 977 867 971 731 c 1,54,-1
 1290 731 l 1,55,56
 1290 1006 1290 1006 1143 1006 c 0,51,52
680 532 m 1,57,58
 616 532 616 532 563.5 523 c 128,-1,59
 511 514 511 514 464 493 c 128,-1,60
 417 472 417 472 391 432 c 128,-1,61
 365 392 365 392 365 336 c 0,62,63
 365 203 365 203 502 203 c 0,64,65
 593 203 593 203 636.5 276 c 128,-1,66
 680 349 680 349 680 463 c 2,67,-1
 680 532 l 1,57,58
EndSplineSet
EndChar

StartChar: b
Encoding: 98 98 143
Width: 1144
VWidth: 2586
GlyphClass: 2
Flags: W
HStem: -29 252<510 690> 0 43G<127 365> 981 250<502 691> 1612 41G<127 401>
VStem: 127 274<305 897 1079 1653> 766 287<306 899>
LayerCount: 2
Back
Fore
SplineSet
680 1231 m 0,0,1
 848 1231 848 1231 950.5 1073.5 c 128,-1,2
 1053 916 1053 916 1053 600.5 c 128,-1,3
 1053 285 1053 285 951.5 128 c 128,-1,4
 850 -29 850 -29 666 -29 c 0,5,6
 578 -29 578 -29 507.5 16 c 128,-1,7
 437 61 437 61 393 147 c 1,8,-1
 354 0 l 1,9,-1
 127 0 l 1,10,-1
 127 1653 l 1,11,-1
 401 1653 l 1,12,-1
 401 1079 l 1,13,14
 433 1149 433 1149 510 1190 c 128,-1,15
 587 1231 587 1231 680 1231 c 0,0,1
723 896.5 m 128,-1,17
 680 981 680 981 583.5 981 c 128,-1,18
 487 981 487 981 444 894.5 c 128,-1,19
 401 808 401 808 401 641 c 2,20,-1
 401 559 l 2,21,22
 401 391 401 391 443.5 307 c 128,-1,23
 486 223 486 223 583 223 c 128,-1,24
 680 223 680 223 723 306.5 c 128,-1,25
 766 390 766 390 766 559 c 2,26,-1
 766 643 l 2,27,16
 766 812 766 812 723 896.5 c 128,-1,17
EndSplineSet
EndChar

StartChar: c
Encoding: 99 99 144
Width: 1040
VWidth: 2586
GlyphClass: 2
Flags: W
HStem: -29 233<450 641> 999 231<447 633>
VStem: 92 289<290 925> 688 272<259 453 750 931>
AnchorPoint: "Anchor-1" 522 0 basechar 0
AnchorPoint: "Anchor-0" 522 1202 basechar 0
LayerCount: 2
Back
Fore
SplineSet
204 1076.5 m 128,-1,1
 316 1231 316 1231 528 1231 c 128,-1,2
 740 1231 740 1231 850.5 1112.5 c 128,-1,3
 961 994 961 994 961 750 c 1,4,-1
 680 750 l 1,5,6
 680 999 680 999 541 999 c 0,7,8
 456 999 456 999 418.5 911 c 128,-1,9
 381 823 381 823 381 643 c 2,10,-1
 381 559 l 2,11,12
 381 378 381 378 419.5 291.5 c 128,-1,13
 458 205 458 205 540 205 c 128,-1,14
 622 205 622 205 655 266 c 128,-1,15
 688 327 688 327 688 453 c 1,16,-1
 961 453 l 1,17,18
 961 208 961 208 853 89.5 c 128,-1,19
 745 -29 745 -29 549 -29 c 0,20,21
 314 -29 314 -29 203 123.5 c 128,-1,22
 92 276 92 276 92 599 c 128,-1,0
 92 922 92 922 204 1076.5 c 128,-1,1
EndSplineSet
EndChar

StartChar: cacute
Encoding: 263 263 145
Width: 1040
VWidth: 2586
GlyphClass: 2
Flags: W
HStem: -29 233<450 641> 999 231<447 633> 1612 41G<555 860>
VStem: 92 289<290 925> 688 272<259 453 750 931>
LayerCount: 2
Back
Fore
SplineSet
860 1653 m 1,0,-1
 612 1350 l 1,1,-1
 385 1350 l 1,2,-1
 582 1653 l 1,3,-1
 860 1653 l 1,0,-1
204 1076.5 m 128,-1,5
 316 1231 316 1231 528 1231 c 128,-1,6
 740 1231 740 1231 850.5 1112.5 c 128,-1,7
 961 994 961 994 961 750 c 1,8,-1
 680 750 l 1,9,10
 680 999 680 999 541 999 c 0,11,12
 456 999 456 999 418.5 911 c 128,-1,13
 381 823 381 823 381 643 c 2,14,-1
 381 559 l 2,15,16
 381 378 381 378 419.5 291.5 c 128,-1,17
 458 205 458 205 540 205 c 128,-1,18
 622 205 622 205 655 266 c 128,-1,19
 688 327 688 327 688 453 c 1,20,-1
 961 453 l 1,21,22
 961 208 961 208 853 89.5 c 128,-1,23
 745 -29 745 -29 549 -29 c 0,24,25
 314 -29 314 -29 203 123.5 c 128,-1,26
 92 276 92 276 92 599 c 128,-1,4
 92 922 92 922 204 1076.5 c 128,-1,5
EndSplineSet
EndChar

StartChar: ccaron
Encoding: 269 269 146
Width: 1040
VWidth: 2586
GlyphClass: 2
Flags: W
HStem: -29 233<450 641> 999 231<447 633> 1612 41G<236 468 617 852>
VStem: 92 289<290 925> 688 272<259 453 750 931>
LayerCount: 2
Back
Fore
SplineSet
236 1653 m 1,0,-1
 442 1653 l 1,1,-1
 543 1495 l 1,2,-1
 643 1653 l 1,3,-1
 852 1653 l 1,4,-1
 657 1346 l 1,5,-1
 432 1346 l 1,6,-1
 236 1653 l 1,0,-1
204 1076.5 m 128,-1,8
 316 1231 316 1231 528 1231 c 128,-1,9
 740 1231 740 1231 850.5 1112.5 c 128,-1,10
 961 994 961 994 961 750 c 1,11,-1
 680 750 l 1,12,13
 680 999 680 999 541 999 c 0,14,15
 456 999 456 999 418.5 911 c 128,-1,16
 381 823 381 823 381 643 c 2,17,-1
 381 559 l 2,18,19
 381 378 381 378 419.5 291.5 c 128,-1,20
 458 205 458 205 540 205 c 128,-1,21
 622 205 622 205 655 266 c 128,-1,22
 688 327 688 327 688 453 c 1,23,-1
 961 453 l 1,24,25
 961 208 961 208 853 89.5 c 128,-1,26
 745 -29 745 -29 549 -29 c 0,27,28
 314 -29 314 -29 203 123.5 c 128,-1,29
 92 276 92 276 92 599 c 128,-1,7
 92 922 92 922 204 1076.5 c 128,-1,8
EndSplineSet
EndChar

StartChar: ccedilla
Encoding: 231 231 147
Width: 1040
VWidth: 2586
GlyphClass: 2
Flags: W
HStem: -416 129<336 574> -399 113<334 521> -176 381<447 579> 999 231<447 633>
VStem: 92 289<283 925> 426 174<-82 -21> 580 197<-282 -180> 688 272<249 453 750 931>
LayerCount: 2
Back
Fore
SplineSet
204 1076.5 m 128,-1,1
 316 1231 316 1231 528 1231 c 128,-1,2
 740 1231 740 1231 850.5 1112.5 c 128,-1,3
 961 994 961 994 961 750 c 1,4,-1
 680 750 l 1,5,6
 680 999 680 999 541 999 c 0,7,8
 456 999 456 999 418.5 911 c 128,-1,9
 381 823 381 823 381 643 c 2,10,-1
 381 559 l 2,11,12
 381 378 381 378 419.5 291.5 c 128,-1,13
 458 205 458 205 540 205 c 128,-1,14
 622 205 622 205 655 266 c 128,-1,15
 688 327 688 327 688 453 c 1,16,-1
 961 453 l 1,17,18
 961 226 961 226 866 107.5 c 128,-1,19
 771 -11 771 -11 600 -27 c 1,20,-1
 600 -76 l 1,21,22
 776 -90 776 -90 776 -229 c 0,23,24
 776 -274 776 -274 759 -308.5 c 128,-1,25
 742 -343 742 -343 716 -362.5 c 128,-1,26
 690 -382 690 -382 654.5 -394.5 c 128,-1,27
 619 -407 619 -407 588 -411.5 c 128,-1,28
 557 -416 557 -416 492 -416 c 128,-1,29
 427 -416 427 -416 334 -399 c 1,30,-1
 334 -287 l 1,31,-1
 496 -287 l 2,32,33
 580 -287 580 -287 580 -229 c 0,34,35
 580 -201 580 -201 562.5 -188.5 c 128,-1,36
 545 -176 545 -176 502 -176 c 2,37,-1
 426 -176 l 1,38,-1
 426 -18 l 1,39,40
 249 11 249 11 170.5 160.5 c 128,-1,41
 92 310 92 310 92 616 c 128,-1,0
 92 922 92 922 204 1076.5 c 128,-1,1
EndSplineSet
EndChar

StartChar: ccircumflex
Encoding: 265 265 148
Width: 1040
VWidth: 2586
GlyphClass: 2
Flags: W
HStem: -29 233<450 641> 999 231<447 633> 1612 41G<406 683>
VStem: 92 289<290 925> 688 272<259 453 750 931>
LayerCount: 2
Back
Fore
SplineSet
543 1503 m 1,0,-1
 442 1346 l 1,1,-1
 236 1346 l 1,2,-1
 432 1653 l 1,3,-1
 657 1653 l 1,4,-1
 852 1346 l 1,5,-1
 643 1346 l 1,6,-1
 543 1503 l 1,0,-1
204 1076.5 m 128,-1,8
 316 1231 316 1231 528 1231 c 128,-1,9
 740 1231 740 1231 850.5 1112.5 c 128,-1,10
 961 994 961 994 961 750 c 1,11,-1
 680 750 l 1,12,13
 680 999 680 999 541 999 c 0,14,15
 456 999 456 999 418.5 911 c 128,-1,16
 381 823 381 823 381 643 c 2,17,-1
 381 559 l 2,18,19
 381 378 381 378 419.5 291.5 c 128,-1,20
 458 205 458 205 540 205 c 128,-1,21
 622 205 622 205 655 266 c 128,-1,22
 688 327 688 327 688 453 c 1,23,-1
 961 453 l 1,24,25
 961 208 961 208 853 89.5 c 128,-1,26
 745 -29 745 -29 549 -29 c 0,27,28
 314 -29 314 -29 203 123.5 c 128,-1,29
 92 276 92 276 92 599 c 128,-1,7
 92 922 92 922 204 1076.5 c 128,-1,8
EndSplineSet
EndChar

StartChar: cdotaccent
Encoding: 267 267 149
Width: 1040
VWidth: 2586
GlyphClass: 2
Flags: W
HStem: -29 233<450 641> 999 231<447 633> 1389 264<422 666>
VStem: 92 289<290 925> 422 244<1389 1653> 688 272<259 453 750 931>
LayerCount: 2
Back
Fore
SplineSet
422 1653 m 1,0,-1
 666 1653 l 1,1,-1
 666 1389 l 1,2,-1
 422 1389 l 1,3,-1
 422 1653 l 1,0,-1
204 1076.5 m 128,-1,5
 316 1231 316 1231 528 1231 c 128,-1,6
 740 1231 740 1231 850.5 1112.5 c 128,-1,7
 961 994 961 994 961 750 c 1,8,-1
 680 750 l 1,9,10
 680 999 680 999 541 999 c 0,11,12
 456 999 456 999 418.5 911 c 128,-1,13
 381 823 381 823 381 643 c 2,14,-1
 381 559 l 2,15,16
 381 378 381 378 419.5 291.5 c 128,-1,17
 458 205 458 205 540 205 c 128,-1,18
 622 205 622 205 655 266 c 128,-1,19
 688 327 688 327 688 453 c 1,20,-1
 961 453 l 1,21,22
 961 208 961 208 853 89.5 c 128,-1,23
 745 -29 745 -29 549 -29 c 0,24,25
 314 -29 314 -29 203 123.5 c 128,-1,26
 92 276 92 276 92 599 c 128,-1,4
 92 922 92 922 204 1076.5 c 128,-1,5
EndSplineSet
EndChar

StartChar: d
Encoding: 100 100 150
Width: 1144
VWidth: 2586
GlyphClass: 2
Flags: W
HStem: -29 252<456 643> 0 43G<783 1020> 981 250<454 638> 1612 41G<735 1020>
VStem: 92 289<306 899> 735 285<290 912 1079 1653>
LayerCount: 2
Back
Fore
SplineSet
481 -29 m 0,0,1
 297 -29 297 -29 194.5 128 c 128,-1,2
 92 285 92 285 92 600.5 c 128,-1,3
 92 916 92 916 194.5 1073.5 c 128,-1,4
 297 1231 297 1231 465 1231 c 0,5,6
 557 1231 557 1231 630 1190.5 c 128,-1,7
 703 1150 703 1150 735 1079 c 1,8,-1
 735 1653 l 1,9,-1
 1020 1653 l 1,10,-1
 1020 0 l 1,11,-1
 791 0 l 1,12,-1
 764 147 l 1,13,14
 721 62 721 62 645.5 16.5 c 128,-1,15
 570 -29 570 -29 481 -29 c 0,0,1
702 895 m 128,-1,17
 659 981 659 981 562.5 981 c 128,-1,18
 466 981 466 981 423.5 896 c 128,-1,19
 381 811 381 811 381 643 c 2,20,-1
 381 559 l 2,21,22
 381 391 381 391 423 307 c 128,-1,23
 465 223 465 223 562 223 c 128,-1,24
 659 223 659 223 702 306.5 c 128,-1,25
 745 390 745 390 745 559 c 2,26,-1
 745 641 l 2,27,16
 745 809 745 809 702 895 c 128,-1,17
EndSplineSet
EndChar

StartChar: eth
Encoding: 240 240 151
Width: 1144
VWidth: 2586
GlyphClass: 2
Flags: W
HStem: -29 233<459 688> 999 231<461 618> 1335 168<246 419> 1405 166<842 1001> 1612 41G<297 605>
VStem: 92 289<305 902> 768 287<305 898>
LayerCount: 2
Back
Fore
SplineSet
1055 600 m 0,0,1
 1055 278 1055 278 935.5 124.5 c 128,-1,2
 816 -29 816 -29 573 -29 c 128,-1,3
 330 -29 330 -29 211 124.5 c 128,-1,4
 92 278 92 278 92 592 c 0,5,6
 92 906 92 906 203.5 1068.5 c 128,-1,7
 315 1231 315 1231 510 1231 c 0,8,9
 558 1231 558 1231 621 1212 c 1,10,-1
 621 1221 l 1,11,12
 562 1331 562 1331 543 1360 c 1,13,-1
 246 1335 l 1,14,-1
 246 1503 l 1,15,-1
 420 1503 l 1,16,17
 318 1630 318 1630 297 1653 c 1,18,-1
 590 1653 l 1,19,20
 636 1612 636 1612 705 1544 c 1,21,-1
 1001 1571 l 1,22,-1
 1001 1405 l 1,23,-1
 829 1405 l 1,24,25
 1055 1071 1055 1071 1055 600 c 0,0,1
573 999 m 128,-1,27
 470 999 470 999 425.5 911 c 128,-1,28
 381 823 381 823 381 643 c 2,29,-1
 381 559 l 2,30,31
 381 379 381 379 425.5 292 c 128,-1,32
 470 205 470 205 573 205 c 128,-1,33
 676 205 676 205 722 292.5 c 128,-1,34
 768 380 768 380 768 559 c 2,35,-1
 768 643 l 2,36,37
 768 823 768 823 722 911 c 128,-1,26
 676 999 676 999 573 999 c 128,-1,27
EndSplineSet
EndChar

StartChar: dcaron
Encoding: 271 271 152
Width: 1347
VWidth: 2586
GlyphClass: 2
Flags: W
HStem: -29 252<456 643> 0 43G<783 1020> 981 250<454 638> 1526 41G<1092 1407> 1612 41G<735 1020>
VStem: 92 289<306 899> 735 285<290 912 1079 1653> 1092 315<1282 1567>
LayerCount: 2
Back
Fore
SplineSet
481 -29 m 0,0,1
 297 -29 297 -29 194.5 128 c 128,-1,2
 92 285 92 285 92 600.5 c 128,-1,3
 92 916 92 916 194.5 1073.5 c 128,-1,4
 297 1231 297 1231 465 1231 c 0,5,6
 557 1231 557 1231 630 1190.5 c 128,-1,7
 703 1150 703 1150 735 1079 c 1,8,-1
 735 1653 l 1,9,-1
 1020 1653 l 1,10,-1
 1020 0 l 1,11,-1
 791 0 l 1,12,-1
 764 147 l 1,13,14
 721 62 721 62 645.5 16.5 c 128,-1,15
 570 -29 570 -29 481 -29 c 0,0,1
1092 1255 m 1,16,-1
 1092 1567 l 1,17,-1
 1407 1567 l 1,18,-1
 1407 1282 l 1,19,-1
 1255 897 l 1,20,-1
 1092 897 l 1,21,-1
 1217 1255 l 1,22,-1
 1092 1255 l 1,16,-1
702 895 m 128,-1,24
 659 981 659 981 562.5 981 c 128,-1,25
 466 981 466 981 423.5 896 c 128,-1,26
 381 811 381 811 381 643 c 2,27,-1
 381 559 l 2,28,29
 381 391 381 391 423 307 c 128,-1,30
 465 223 465 223 562 223 c 128,-1,31
 659 223 659 223 702 306.5 c 128,-1,32
 745 390 745 390 745 559 c 2,33,-1
 745 641 l 2,34,23
 745 809 745 809 702 895 c 128,-1,24
EndSplineSet
EndChar

StartChar: dcroat
Encoding: 273 273 153
Width: 1153
VWidth: 2586
GlyphClass: 2
Flags: W
HStem: -29 252<456 643> 0 43G<783 1020> 981 250<454 638> 1331 201<442 735 1020 1143> 1612 41G<745 1020>
VStem: 92 289<306 899> 745 274<305 897 1079 1331 1532 1653>
LayerCount: 2
Back
Fore
SplineSet
1143 1532 m 1,0,-1
 1143 1331 l 1,1,-1
 1020 1331 l 1,2,-1
 1020 0 l 1,3,-1
 791 0 l 1,4,-1
 764 147 l 1,5,6
 721 62 721 62 645.5 16.5 c 128,-1,7
 570 -29 570 -29 481 -29 c 0,8,9
 297 -29 297 -29 194.5 128 c 128,-1,10
 92 285 92 285 92 600.5 c 128,-1,11
 92 916 92 916 194.5 1073.5 c 128,-1,12
 297 1231 297 1231 465 1231 c 0,13,14
 557 1231 557 1231 630 1190.5 c 128,-1,15
 703 1150 703 1150 735 1079 c 1,16,-1
 735 1331 l 1,17,-1
 442 1331 l 1,18,-1
 442 1532 l 1,19,-1
 745 1532 l 1,20,-1
 745 1653 l 1,21,-1
 1020 1653 l 1,22,-1
 1020 1532 l 1,23,-1
 1143 1532 l 1,0,-1
702 895 m 128,-1,25
 659 981 659 981 562.5 981 c 128,-1,26
 466 981 466 981 423.5 896 c 128,-1,27
 381 811 381 811 381 643 c 2,28,-1
 381 559 l 2,29,30
 381 391 381 391 423 307 c 128,-1,31
 465 223 465 223 562 223 c 128,-1,32
 659 223 659 223 702 306.5 c 128,-1,33
 745 390 745 390 745 559 c 2,34,-1
 745 641 l 2,35,24
 745 809 745 809 702 895 c 128,-1,25
EndSplineSet
EndChar

StartChar: e
Encoding: 101 101 154
Width: 1040
VWidth: 2586
GlyphClass: 2
Flags: W
HStem: -29 225<432 641> 532 199<360 680> 1006 225<427 624>
VStem: 70 287<290 532 731 925> 680 287<731 939> 696 270<257 424>
AnchorPoint: "Anchor-1" 522 0 basechar 0
AnchorPoint: "Anchor-0" 522 1202 basechar 0
LayerCount: 2
Back
Fore
SplineSet
532 1231 m 0,0,1
 751 1231 751 1231 859 1077 c 128,-1,2
 967 923 967 923 967 600 c 2,3,-1
 967 532 l 1,4,-1
 356 532 l 1,5,6
 358 364 358 364 401 280.5 c 128,-1,7
 444 197 444 197 543 197 c 0,8,9
 613 197 613 197 654.5 258 c 128,-1,10
 696 319 696 319 696 424 c 1,11,-1
 967 424 l 1,12,13
 967 202 967 202 850.5 86.5 c 128,-1,14
 734 -29 734 -29 543 -29 c 0,15,16
 307 -29 307 -29 188.5 125 c 128,-1,17
 70 279 70 279 70 600 c 0,18,19
 70 1231 70 1231 532 1231 c 0,0,1
643 935 m 128,-1,21
 606 1006 606 1006 526.5 1006 c 128,-1,22
 447 1006 447 1006 406.5 936.5 c 128,-1,23
 366 867 366 867 360 731 c 1,24,-1
 680 731 l 1,25,20
 680 864 680 864 643 935 c 128,-1,21
EndSplineSet
EndChar

StartChar: eacute
Encoding: 233 233 155
Width: 1040
VWidth: 2586
GlyphClass: 2
Flags: W
HStem: -29 225<432 641> 532 199<360 680> 1006 225<427 624> 1612 41G<535 836>
VStem: 70 287<290 532 731 925> 680 287<731 939> 696 270<257 424>
LayerCount: 2
Back
Fore
SplineSet
590 1350 m 1,0,-1
 365 1350 l 1,1,-1
 561 1653 l 1,2,-1
 836 1653 l 1,3,-1
 590 1350 l 1,0,-1
532 1231 m 0,4,5
 751 1231 751 1231 859 1077 c 128,-1,6
 967 923 967 923 967 600 c 2,7,-1
 967 532 l 1,8,-1
 356 532 l 1,9,10
 358 364 358 364 401 280.5 c 128,-1,11
 444 197 444 197 543 197 c 0,12,13
 613 197 613 197 654.5 258 c 128,-1,14
 696 319 696 319 696 424 c 1,15,-1
 967 424 l 1,16,17
 967 202 967 202 850.5 86.5 c 128,-1,18
 734 -29 734 -29 543 -29 c 0,19,20
 307 -29 307 -29 188.5 125 c 128,-1,21
 70 279 70 279 70 600 c 0,22,23
 70 1231 70 1231 532 1231 c 0,4,5
643 935 m 128,-1,25
 606 1006 606 1006 526.5 1006 c 128,-1,26
 447 1006 447 1006 406.5 936.5 c 128,-1,27
 366 867 366 867 360 731 c 1,28,-1
 680 731 l 1,29,24
 680 864 680 864 643 935 c 128,-1,25
EndSplineSet
EndChar

StartChar: ebreve
Encoding: 277 277 156
Width: 1040
VWidth: 2586
GlyphClass: 2
Flags: W
HStem: -29 225<432 641> 532 199<360 680> 1006 225<427 624> 1409 168<407 638> 1612 41G<217 389 656 827>
VStem: 70 287<290 532 731 925> 680 287<731 939> 696 270<257 424>
LayerCount: 2
Back
Fore
SplineSet
827 1653 m 1,0,1
 827 1560 827 1560 741.5 1484.5 c 128,-1,2
 656 1409 656 1409 522 1409 c 128,-1,3
 388 1409 388 1409 302.5 1484.5 c 128,-1,4
 217 1560 217 1560 217 1653 c 1,5,-1
 385 1653 l 1,6,7
 392 1626 392 1626 430 1601.5 c 128,-1,8
 468 1577 468 1577 522 1577 c 128,-1,9
 576 1577 576 1577 615 1602 c 128,-1,10
 654 1627 654 1627 659 1653 c 1,11,-1
 827 1653 l 1,0,1
532 1231 m 0,12,13
 751 1231 751 1231 859 1077 c 128,-1,14
 967 923 967 923 967 600 c 2,15,-1
 967 532 l 1,16,-1
 356 532 l 1,17,18
 358 364 358 364 401 280.5 c 128,-1,19
 444 197 444 197 543 197 c 0,20,21
 613 197 613 197 654.5 258 c 128,-1,22
 696 319 696 319 696 424 c 1,23,-1
 967 424 l 1,24,25
 967 202 967 202 850.5 86.5 c 128,-1,26
 734 -29 734 -29 543 -29 c 0,27,28
 307 -29 307 -29 188.5 125 c 128,-1,29
 70 279 70 279 70 600 c 0,30,31
 70 1231 70 1231 532 1231 c 0,12,13
643 935 m 128,-1,33
 606 1006 606 1006 526.5 1006 c 128,-1,34
 447 1006 447 1006 406.5 936.5 c 128,-1,35
 366 867 366 867 360 731 c 1,36,-1
 680 731 l 1,37,32
 680 864 680 864 643 935 c 128,-1,33
EndSplineSet
EndChar

StartChar: ecaron
Encoding: 283 283 157
Width: 1040
VWidth: 2586
GlyphClass: 2
Flags: W
HStem: -29 225<432 641> 532 199<360 680> 1006 225<427 624> 1612 41G<215 448 597 829>
VStem: 70 287<290 532 731 925> 680 287<731 939> 696 270<257 424>
LayerCount: 2
Back
Fore
SplineSet
215 1653 m 1,0,-1
 422 1653 l 1,1,-1
 522 1495 l 1,2,-1
 623 1653 l 1,3,-1
 829 1653 l 1,4,-1
 637 1346 l 1,5,-1
 412 1346 l 1,6,-1
 215 1653 l 1,0,-1
532 1231 m 0,7,8
 751 1231 751 1231 859 1077 c 128,-1,9
 967 923 967 923 967 600 c 2,10,-1
 967 532 l 1,11,-1
 356 532 l 1,12,13
 358 364 358 364 401 280.5 c 128,-1,14
 444 197 444 197 543 197 c 0,15,16
 613 197 613 197 654.5 258 c 128,-1,17
 696 319 696 319 696 424 c 1,18,-1
 967 424 l 1,19,20
 967 202 967 202 850.5 86.5 c 128,-1,21
 734 -29 734 -29 543 -29 c 0,22,23
 307 -29 307 -29 188.5 125 c 128,-1,24
 70 279 70 279 70 600 c 0,25,26
 70 1231 70 1231 532 1231 c 0,7,8
643 935 m 128,-1,28
 606 1006 606 1006 526.5 1006 c 128,-1,29
 447 1006 447 1006 406.5 936.5 c 128,-1,30
 366 867 366 867 360 731 c 1,31,-1
 680 731 l 1,32,27
 680 864 680 864 643 935 c 128,-1,28
EndSplineSet
EndChar

StartChar: ecircumflex
Encoding: 234 234 158
Width: 1040
VWidth: 2586
GlyphClass: 2
Flags: W
HStem: -29 225<432 641> 532 199<360 680> 1006 225<427 624> 1612 41G<385 663>
VStem: 70 287<290 532 731 925> 680 287<731 939> 696 270<257 424>
LayerCount: 2
Back
Fore
SplineSet
522 1503 m 1,0,-1
 422 1346 l 1,1,-1
 215 1346 l 1,2,-1
 412 1653 l 1,3,-1
 637 1653 l 1,4,-1
 829 1346 l 1,5,-1
 623 1346 l 1,6,-1
 522 1503 l 1,0,-1
532 1231 m 0,7,8
 751 1231 751 1231 859 1077 c 128,-1,9
 967 923 967 923 967 600 c 2,10,-1
 967 532 l 1,11,-1
 356 532 l 1,12,13
 358 364 358 364 401 280.5 c 128,-1,14
 444 197 444 197 543 197 c 0,15,16
 613 197 613 197 654.5 258 c 128,-1,17
 696 319 696 319 696 424 c 1,18,-1
 967 424 l 1,19,20
 967 202 967 202 850.5 86.5 c 128,-1,21
 734 -29 734 -29 543 -29 c 0,22,23
 307 -29 307 -29 188.5 125 c 128,-1,24
 70 279 70 279 70 600 c 0,25,26
 70 1231 70 1231 532 1231 c 0,7,8
643 935 m 128,-1,28
 606 1006 606 1006 526.5 1006 c 128,-1,29
 447 1006 447 1006 406.5 936.5 c 128,-1,30
 366 867 366 867 360 731 c 1,31,-1
 680 731 l 1,32,27
 680 864 680 864 643 935 c 128,-1,28
EndSplineSet
EndChar

StartChar: edieresis
Encoding: 235 235 159
Width: 1040
VWidth: 2586
GlyphClass: 2
Flags: W
HStem: -29 225<432 641> 532 199<360 680> 1006 225<427 624> 1405 248<207 436 608 838>
VStem: 70 287<290 532 731 925> 207 229<1405 1653> 608 229<1405 1653> 680 287<731 939> 696 270<257 424>
LayerCount: 2
Back
Fore
SplineSet
207 1405 m 1,0,-1
 207 1653 l 1,1,-1
 436 1653 l 1,2,-1
 436 1405 l 1,3,-1
 207 1405 l 1,0,-1
608 1405 m 1,4,-1
 608 1653 l 1,5,-1
 838 1653 l 1,6,-1
 838 1405 l 1,7,-1
 608 1405 l 1,4,-1
532 1231 m 0,8,9
 751 1231 751 1231 859 1077 c 128,-1,10
 967 923 967 923 967 600 c 2,11,-1
 967 532 l 1,12,-1
 356 532 l 1,13,14
 358 364 358 364 401 280.5 c 128,-1,15
 444 197 444 197 543 197 c 0,16,17
 613 197 613 197 654.5 258 c 128,-1,18
 696 319 696 319 696 424 c 1,19,-1
 967 424 l 1,20,21
 967 202 967 202 850.5 86.5 c 128,-1,22
 734 -29 734 -29 543 -29 c 0,23,24
 307 -29 307 -29 188.5 125 c 128,-1,25
 70 279 70 279 70 600 c 0,26,27
 70 1231 70 1231 532 1231 c 0,8,9
643 935 m 128,-1,29
 606 1006 606 1006 526.5 1006 c 128,-1,30
 447 1006 447 1006 406.5 936.5 c 128,-1,31
 366 867 366 867 360 731 c 1,32,-1
 680 731 l 1,33,28
 680 864 680 864 643 935 c 128,-1,29
EndSplineSet
EndChar

StartChar: edotaccent
Encoding: 279 279 160
Width: 1040
VWidth: 2586
GlyphClass: 2
Flags: W
HStem: -29 225<432 641> 532 199<360 680> 1006 225<427 624> 1389 264<401 643>
VStem: 70 287<290 532 731 925> 401 242<1389 1653> 680 287<731 939> 696 270<257 424>
LayerCount: 2
Back
Fore
SplineSet
401 1653 m 1,0,-1
 643 1653 l 1,1,-1
 643 1389 l 1,2,-1
 401 1389 l 1,3,-1
 401 1653 l 1,0,-1
532 1231 m 0,4,5
 751 1231 751 1231 859 1077 c 128,-1,6
 967 923 967 923 967 600 c 2,7,-1
 967 532 l 1,8,-1
 356 532 l 1,9,10
 358 364 358 364 401 280.5 c 128,-1,11
 444 197 444 197 543 197 c 0,12,13
 613 197 613 197 654.5 258 c 128,-1,14
 696 319 696 319 696 424 c 1,15,-1
 967 424 l 1,16,17
 967 202 967 202 850.5 86.5 c 128,-1,18
 734 -29 734 -29 543 -29 c 0,19,20
 307 -29 307 -29 188.5 125 c 128,-1,21
 70 279 70 279 70 600 c 0,22,23
 70 1231 70 1231 532 1231 c 0,4,5
643 935 m 128,-1,25
 606 1006 606 1006 526.5 1006 c 128,-1,26
 447 1006 447 1006 406.5 936.5 c 128,-1,27
 366 867 366 867 360 731 c 1,28,-1
 680 731 l 1,29,24
 680 864 680 864 643 935 c 128,-1,25
EndSplineSet
EndChar

StartChar: egrave
Encoding: 232 232 161
Width: 1040
VWidth: 2586
GlyphClass: 2
Flags: W
HStem: -29 225<432 641> 532 199<360 680> 1006 225<427 624> 1612 41G<207 510>
VStem: 70 287<290 532 731 925> 680 287<731 939> 696 270<257 424>
LayerCount: 2
Back
Fore
SplineSet
207 1653 m 1,0,-1
 483 1653 l 1,1,-1
 680 1350 l 1,2,-1
 453 1350 l 1,3,-1
 207 1653 l 1,0,-1
532 1231 m 0,4,5
 751 1231 751 1231 859 1077 c 128,-1,6
 967 923 967 923 967 600 c 2,7,-1
 967 532 l 1,8,-1
 356 532 l 1,9,10
 358 364 358 364 401 280.5 c 128,-1,11
 444 197 444 197 543 197 c 0,12,13
 613 197 613 197 654.5 258 c 128,-1,14
 696 319 696 319 696 424 c 1,15,-1
 967 424 l 1,16,17
 967 202 967 202 850.5 86.5 c 128,-1,18
 734 -29 734 -29 543 -29 c 0,19,20
 307 -29 307 -29 188.5 125 c 128,-1,21
 70 279 70 279 70 600 c 0,22,23
 70 1231 70 1231 532 1231 c 0,4,5
643 935 m 128,-1,25
 606 1006 606 1006 526.5 1006 c 128,-1,26
 447 1006 447 1006 406.5 936.5 c 128,-1,27
 366 867 366 867 360 731 c 1,28,-1
 680 731 l 1,29,24
 680 864 680 864 643 935 c 128,-1,25
EndSplineSet
EndChar

StartChar: emacron
Encoding: 275 275 162
Width: 1040
VWidth: 2586
GlyphClass: 2
Flags: W
HStem: -29 225<432 641> 532 199<360 680> 1006 225<427 624> 1370 197<229 815>
VStem: 70 287<290 532 731 925> 680 287<731 939> 696 270<257 424>
LayerCount: 2
Back
Fore
SplineSet
229 1567 m 1,0,-1
 815 1567 l 1,1,-1
 815 1370 l 1,2,-1
 229 1370 l 1,3,-1
 229 1567 l 1,0,-1
532 1231 m 0,4,5
 751 1231 751 1231 859 1077 c 128,-1,6
 967 923 967 923 967 600 c 2,7,-1
 967 532 l 1,8,-1
 356 532 l 1,9,10
 358 364 358 364 401 280.5 c 128,-1,11
 444 197 444 197 543 197 c 0,12,13
 613 197 613 197 654.5 258 c 128,-1,14
 696 319 696 319 696 424 c 1,15,-1
 967 424 l 1,16,17
 967 202 967 202 850.5 86.5 c 128,-1,18
 734 -29 734 -29 543 -29 c 0,19,20
 307 -29 307 -29 188.5 125 c 128,-1,21
 70 279 70 279 70 600 c 0,22,23
 70 1231 70 1231 532 1231 c 0,4,5
643 935 m 128,-1,25
 606 1006 606 1006 526.5 1006 c 128,-1,26
 447 1006 447 1006 406.5 936.5 c 128,-1,27
 366 867 366 867 360 731 c 1,28,-1
 680 731 l 1,29,24
 680 864 680 864 643 935 c 128,-1,25
EndSplineSet
EndChar

StartChar: eogonek
Encoding: 281 281 163
Width: 1040
VWidth: 2586
GlyphClass: 2
Flags: W
HStem: -424 158<689 821> -391 125<690 823> 532 199<356 678> 1006 225<425 623>
VStem: 70 285<286 532 731 925> 444 225<-247 -60> 678 289<731 939> 692 272<254 424>
LayerCount: 2
Back
Fore
SplineSet
541 197 m 0,0,1
 610 197 610 197 651 258 c 128,-1,2
 692 319 692 319 692 424 c 1,3,-1
 965 424 l 1,4,5
 965 266 965 266 904.5 162 c 128,-1,6
 844 58 844 58 737 10 c 1,7,8
 712 -19 712 -19 691 -62.5 c 128,-1,9
 670 -106 670 -106 670 -151.5 c 0,10,11
 670 -197 670 -197 695.5 -231.5 c 128,-1,12
 721 -266 721 -266 774 -266 c 2,13,-1
 823 -266 l 1,14,-1
 823 -391 l 1,15,16
 739 -424 739 -424 684.5 -424 c 0,17,18
 630 -424 630 -424 592 -413.5 c 128,-1,19
 554 -403 554 -403 519.5 -380.5 c 128,-1,20
 485 -358 485 -358 464.5 -316 c 128,-1,21
 444 -274 444 -274 444 -217 c 0,22,23
 444 -112 444 -112 512 -27 c 1,24,25
 70 -9 70 -9 70 611 c 0,26,27
 70 1231 70 1231 532 1231 c 0,28,29
 751 1231 751 1231 859 1077 c 128,-1,30
 967 923 967 923 967 600 c 2,31,-1
 967 532 l 1,32,-1
 354 532 l 1,33,34
 356 364 356 364 399 280.5 c 128,-1,35
 442 197 442 197 541 197 c 0,0,1
678 731 m 1,36,37
 678 864 678 864 641 935 c 128,-1,38
 604 1006 604 1006 524.5 1006 c 0,39,40
 445 1006 445 1006 403.5 936 c 128,-1,41
 362 866 362 866 356 731 c 1,42,-1
 678 731 l 1,36,37
EndSplineSet
EndChar

StartChar: f
Encoding: 102 102 164
Width: 622
VWidth: 2586
GlyphClass: 2
Flags: W
HStem: 0 43G<141 416> 973 229<20 141 416 623> 1440 231<427 621> 1440 205<427 623>
VStem: 141 274<0 973 1202 1423>
LayerCount: 2
Back
Fore
SplineSet
289 1643.5 m 128,-1,1
 346 1671 346 1671 438 1671 c 128,-1,2
 530 1671 530 1671 623 1645 c 1,3,-1
 623 1440 l 1,4,-1
 512 1440 l 2,5,6
 416 1440 416 1440 416 1341 c 2,7,-1
 416 1202 l 1,8,-1
 623 1202 l 1,9,-1
 623 973 l 1,10,-1
 416 973 l 1,11,-1
 416 0 l 1,12,-1
 141 0 l 1,13,-1
 141 973 l 1,14,-1
 20 973 l 1,15,-1
 20 1202 l 1,16,-1
 141 1202 l 1,17,-1
 141 1350 l 2,18,19
 141 1413 141 1413 155.5 1467.5 c 128,-1,20
 170 1522 170 1522 201 1569 c 128,-1,0
 232 1616 232 1616 289 1643.5 c 128,-1,1
EndSplineSet
EndChar

StartChar: g
Encoding: 103 103 165
Width: 1144
VWidth: 2586
GlyphClass: 2
Flags: W
HStem: -416 209<332 829> 12 254<376 836> 412 205<450 681> 1026 205<454 686>
VStem: 37 276<-186 -10> 92 279<272 404> 125 274<669 970> 739 274<670 971> 856 276<-182 -10> 885 227<1276 1405>
AnchorPoint: "Anchor-1" 0 0 basechar 0
AnchorPoint: "Anchor-0" 573 1202 basechar 0
LayerCount: 2
Back
Fore
SplineSet
1112 1405 m 1,0,1
 1112 1158 1112 1158 915 1098 c 1,2,3
 1014 988 1014 988 1014 809.5 c 128,-1,4
 1014 631 1014 631 897 521.5 c 128,-1,5
 780 412 780 412 567 412 c 2,6,-1
 453 412 l 2,7,8
 417 412 417 412 394 390.5 c 128,-1,9
 371 369 371 369 371 338 c 128,-1,10
 371 307 371 307 391 286.5 c 128,-1,11
 411 266 411 266 442 266 c 2,12,-1
 856 266 l 2,13,14
 975 266 975 266 1054 181 c 128,-1,15
 1133 96 1133 96 1133 -57.5 c 128,-1,16
 1133 -211 1133 -211 1019.5 -313.5 c 128,-1,17
 906 -416 906 -416 741 -416 c 2,18,-1
 303 -416 l 2,19,20
 191 -416 191 -416 114 -338.5 c 128,-1,21
 37 -261 37 -261 37 -139 c 0,22,23
 37 20 37 20 188 106 c 1,24,25
 92 166 92 166 92 285 c 0,26,27
 92 360 92 360 141.5 414.5 c 128,-1,28
 191 469 191 469 268 496 c 1,29,30
 125 600 125 600 125 804.5 c 128,-1,31
 125 1009 125 1009 240 1120 c 128,-1,32
 355 1231 355 1231 567 1231 c 0,33,34
 681 1231 681 1231 768 1196 c 1,35,36
 828 1241 828 1241 856.5 1302 c 128,-1,37
 885 1363 885 1363 885 1405 c 1,38,-1
 1112 1405 l 1,0,1
695.5 972 m 128,-1,40
 652 1026 652 1026 568.5 1026 c 128,-1,41
 485 1026 485 1026 442 971.5 c 128,-1,42
 399 917 399 917 399 819.5 c 128,-1,43
 399 722 399 722 442 669 c 128,-1,44
 485 616 485 616 568.5 616 c 128,-1,45
 652 616 652 616 695.5 669 c 128,-1,46
 739 722 739 722 739 820 c 128,-1,39
 739 918 739 918 695.5 972 c 128,-1,40
424 12 m 2,47,48
 378 12 378 12 345.5 -20 c 128,-1,49
 313 -52 313 -52 313 -99.5 c 128,-1,50
 313 -147 313 -147 345 -177 c 128,-1,51
 377 -207 377 -207 424 -207 c 2,52,-1
 731 -207 l 2,53,54
 784 -207 784 -207 820 -177 c 128,-1,55
 856 -147 856 -147 856 -97 c 128,-1,56
 856 -47 856 -47 822.5 -17.5 c 128,-1,57
 789 12 789 12 741 12 c 2,58,-1
 424 12 l 2,47,48
EndSplineSet
EndChar

StartChar: gbreve
Encoding: 287 287 166
Width: 1144
VWidth: 2586
GlyphClass: 2
Flags: W
HStem: -416 209<332 829> 12 254<376 836> 412 205<450 681> 1026 205<454 686> 1409 168<457 687> 1612 41G<266 439 706 877>
VStem: 37 276<-186 -10> 92 279<272 404> 125 274<669 970> 739 274<670 971> 856 276<-182 -10> 885 227<1276 1405>
LayerCount: 2
Back
Fore
SplineSet
877 1653 m 1,0,1
 877 1560 877 1560 791 1484.5 c 128,-1,2
 705 1409 705 1409 571.5 1409 c 128,-1,3
 438 1409 438 1409 352 1485 c 128,-1,4
 266 1561 266 1561 266 1653 c 1,5,-1
 436 1653 l 1,6,7
 441 1627 441 1627 479.5 1602 c 128,-1,8
 518 1577 518 1577 571.5 1577 c 128,-1,9
 625 1577 625 1577 664.5 1602 c 128,-1,10
 704 1627 704 1627 709 1653 c 1,11,-1
 877 1653 l 1,0,1
1112 1405 m 1,12,13
 1112 1158 1112 1158 915 1098 c 1,14,15
 1014 988 1014 988 1014 809.5 c 128,-1,16
 1014 631 1014 631 897 521.5 c 128,-1,17
 780 412 780 412 567 412 c 2,18,-1
 453 412 l 2,19,20
 417 412 417 412 394 390.5 c 128,-1,21
 371 369 371 369 371 338 c 128,-1,22
 371 307 371 307 391 286.5 c 128,-1,23
 411 266 411 266 442 266 c 2,24,-1
 856 266 l 2,25,26
 975 266 975 266 1054 181 c 128,-1,27
 1133 96 1133 96 1133 -57.5 c 128,-1,28
 1133 -211 1133 -211 1019.5 -313.5 c 128,-1,29
 906 -416 906 -416 741 -416 c 2,30,-1
 303 -416 l 2,31,32
 191 -416 191 -416 114 -338.5 c 128,-1,33
 37 -261 37 -261 37 -139 c 0,34,35
 37 20 37 20 188 106 c 1,36,37
 92 166 92 166 92 285 c 0,38,39
 92 360 92 360 141.5 414.5 c 128,-1,40
 191 469 191 469 268 496 c 1,41,42
 125 600 125 600 125 804.5 c 128,-1,43
 125 1009 125 1009 240 1120 c 128,-1,44
 355 1231 355 1231 567 1231 c 0,45,46
 681 1231 681 1231 768 1196 c 1,47,48
 828 1241 828 1241 856.5 1302 c 128,-1,49
 885 1363 885 1363 885 1405 c 1,50,-1
 1112 1405 l 1,12,13
695.5 972 m 128,-1,52
 652 1026 652 1026 568.5 1026 c 128,-1,53
 485 1026 485 1026 442 971.5 c 128,-1,54
 399 917 399 917 399 819.5 c 128,-1,55
 399 722 399 722 442 669 c 128,-1,56
 485 616 485 616 568.5 616 c 128,-1,57
 652 616 652 616 695.5 669 c 128,-1,58
 739 722 739 722 739 820 c 128,-1,51
 739 918 739 918 695.5 972 c 128,-1,52
424 12 m 2,59,60
 378 12 378 12 345.5 -20 c 128,-1,61
 313 -52 313 -52 313 -99.5 c 128,-1,62
 313 -147 313 -147 345 -177 c 128,-1,63
 377 -207 377 -207 424 -207 c 2,64,-1
 731 -207 l 2,65,66
 784 -207 784 -207 820 -177 c 128,-1,67
 856 -147 856 -147 856 -97 c 128,-1,68
 856 -47 856 -47 822.5 -17.5 c 128,-1,69
 789 12 789 12 741 12 c 2,70,-1
 424 12 l 2,59,60
EndSplineSet
EndChar

StartChar: gcircumflex
Encoding: 285 285 167
Width: 1144
VWidth: 2586
GlyphClass: 2
Flags: W
HStem: -416 209<332 829> 12 254<376 836> 412 205<450 681> 1026 205<454 686> 1612 41G<437 712>
VStem: 37 276<-186 -10> 92 279<272 404> 125 274<669 970> 739 274<670 971> 856 276<-182 -10> 934 178<1252 1405>
LayerCount: 2
Back
Fore
SplineSet
573 1503 m 1,0,-1
 471 1346 l 1,1,-1
 266 1346 l 1,2,-1
 463 1653 l 1,3,-1
 686 1653 l 1,4,-1
 879 1346 l 1,5,-1
 676 1346 l 1,6,-1
 573 1503 l 1,0,-1
1112 1405 m 1,7,8
 1112 1158 1112 1158 915 1098 c 1,9,10
 1014 988 1014 988 1014 809.5 c 128,-1,11
 1014 631 1014 631 897 521.5 c 128,-1,12
 780 412 780 412 567 412 c 2,13,-1
 453 412 l 2,14,15
 417 412 417 412 394 390.5 c 128,-1,16
 371 369 371 369 371 338 c 128,-1,17
 371 307 371 307 391 286.5 c 128,-1,18
 411 266 411 266 442 266 c 2,19,-1
 856 266 l 2,20,21
 975 266 975 266 1054 181 c 128,-1,22
 1133 96 1133 96 1133 -57.5 c 128,-1,23
 1133 -211 1133 -211 1019.5 -313.5 c 128,-1,24
 906 -416 906 -416 741 -416 c 2,25,-1
 303 -416 l 2,26,27
 191 -416 191 -416 114 -338.5 c 128,-1,28
 37 -261 37 -261 37 -139 c 0,29,30
 37 20 37 20 188 106 c 1,31,32
 92 166 92 166 92 285 c 0,33,34
 92 360 92 360 141.5 414.5 c 128,-1,35
 191 469 191 469 268 496 c 1,36,37
 125 600 125 600 125 804.5 c 128,-1,38
 125 1009 125 1009 240 1120 c 128,-1,39
 355 1231 355 1231 567 1231 c 0,40,41
 681 1231 681 1231 768 1196 c 1,42,43
 934 1204 934 1204 934 1405 c 1,44,-1
 1112 1405 l 1,7,8
695.5 972 m 128,-1,46
 652 1026 652 1026 568.5 1026 c 128,-1,47
 485 1026 485 1026 442 971.5 c 128,-1,48
 399 917 399 917 399 819.5 c 128,-1,49
 399 722 399 722 442 669 c 128,-1,50
 485 616 485 616 568.5 616 c 128,-1,51
 652 616 652 616 695.5 669 c 128,-1,52
 739 722 739 722 739 820 c 128,-1,45
 739 918 739 918 695.5 972 c 128,-1,46
424 12 m 2,53,54
 378 12 378 12 345.5 -20 c 128,-1,55
 313 -52 313 -52 313 -99.5 c 128,-1,56
 313 -147 313 -147 345 -177 c 128,-1,57
 377 -207 377 -207 424 -207 c 2,58,-1
 731 -207 l 2,59,60
 784 -207 784 -207 820 -177 c 128,-1,61
 856 -147 856 -147 856 -97 c 128,-1,62
 856 -47 856 -47 822.5 -17.5 c 128,-1,63
 789 12 789 12 741 12 c 2,64,-1
 424 12 l 2,53,54
EndSplineSet
EndChar

StartChar: gcommaaccent
Encoding: 291 291 168
Width: 1144
VWidth: 2586
GlyphClass: 2
Flags: W
HStem: -416 209<332 829> 12 254<376 836> 412 205<450 681> 1026 205<454 686>
VStem: 37 276<-186 -10> 92 279<272 404> 125 274<669 970> 403 285<1350 1606> 739 274<670 971> 856 276<-182 -10> 885 227<1276 1405>
LayerCount: 2
Back
Fore
SplineSet
688 1630 m 1,0,-1
 688 1350 l 1,1,-1
 403 1350 l 1,2,-1
 403 1606 l 1,3,-1
 510 1823 l 1,4,-1
 659 1823 l 1,5,-1
 578 1630 l 1,6,-1
 688 1630 l 1,0,-1
1112 1405 m 1,7,8
 1112 1158 1112 1158 915 1098 c 1,9,10
 1014 988 1014 988 1014 809.5 c 128,-1,11
 1014 631 1014 631 897 521.5 c 128,-1,12
 780 412 780 412 567 412 c 2,13,-1
 453 412 l 2,14,15
 417 412 417 412 394 390.5 c 128,-1,16
 371 369 371 369 371 338 c 128,-1,17
 371 307 371 307 391 286.5 c 128,-1,18
 411 266 411 266 442 266 c 2,19,-1
 856 266 l 2,20,21
 975 266 975 266 1054 181 c 128,-1,22
 1133 96 1133 96 1133 -57.5 c 128,-1,23
 1133 -211 1133 -211 1019.5 -313.5 c 128,-1,24
 906 -416 906 -416 741 -416 c 2,25,-1
 303 -416 l 2,26,27
 191 -416 191 -416 114 -338.5 c 128,-1,28
 37 -261 37 -261 37 -139 c 0,29,30
 37 20 37 20 188 106 c 1,31,32
 92 166 92 166 92 285 c 0,33,34
 92 360 92 360 141.5 414.5 c 128,-1,35
 191 469 191 469 268 496 c 1,36,37
 125 600 125 600 125 804.5 c 128,-1,38
 125 1009 125 1009 240 1120 c 128,-1,39
 355 1231 355 1231 567 1231 c 0,40,41
 681 1231 681 1231 768 1196 c 1,42,43
 828 1241 828 1241 856.5 1302 c 128,-1,44
 885 1363 885 1363 885 1405 c 1,45,-1
 1112 1405 l 1,7,8
695.5 972 m 128,-1,47
 652 1026 652 1026 568.5 1026 c 128,-1,48
 485 1026 485 1026 442 971.5 c 128,-1,49
 399 917 399 917 399 819.5 c 128,-1,50
 399 722 399 722 442 669 c 128,-1,51
 485 616 485 616 568.5 616 c 128,-1,52
 652 616 652 616 695.5 669 c 128,-1,53
 739 722 739 722 739 820 c 128,-1,46
 739 918 739 918 695.5 972 c 128,-1,47
424 12 m 2,54,55
 378 12 378 12 345.5 -20 c 128,-1,56
 313 -52 313 -52 313 -99.5 c 128,-1,57
 313 -147 313 -147 345 -177 c 128,-1,58
 377 -207 377 -207 424 -207 c 2,59,-1
 731 -207 l 2,60,61
 784 -207 784 -207 820 -177 c 128,-1,62
 856 -147 856 -147 856 -97 c 128,-1,63
 856 -47 856 -47 822.5 -17.5 c 128,-1,64
 789 12 789 12 741 12 c 2,65,-1
 424 12 l 2,54,55
EndSplineSet
EndChar

StartChar: gdotaccent
Encoding: 289 289 169
Width: 1144
VWidth: 2586
GlyphClass: 2
Flags: W
HStem: -416 209<332 829> 12 254<376 836> 412 205<450 681> 1026 205<454 686> 1389 264<451 696>
VStem: 37 276<-186 -10> 92 279<272 404> 125 274<669 970> 451 246<1389 1653> 739 274<670 971> 856 276<-182 -10> 885 227<1276 1405>
LayerCount: 2
Back
Fore
SplineSet
451 1653 m 1,0,-1
 696 1653 l 1,1,-1
 696 1389 l 1,2,-1
 451 1389 l 1,3,-1
 451 1653 l 1,0,-1
1112 1405 m 1,4,5
 1112 1158 1112 1158 915 1098 c 1,6,7
 1014 988 1014 988 1014 809.5 c 128,-1,8
 1014 631 1014 631 897 521.5 c 128,-1,9
 780 412 780 412 567 412 c 2,10,-1
 453 412 l 2,11,12
 417 412 417 412 394 390.5 c 128,-1,13
 371 369 371 369 371 338 c 128,-1,14
 371 307 371 307 391 286.5 c 128,-1,15
 411 266 411 266 442 266 c 2,16,-1
 856 266 l 2,17,18
 975 266 975 266 1054 181 c 128,-1,19
 1133 96 1133 96 1133 -57.5 c 128,-1,20
 1133 -211 1133 -211 1019.5 -313.5 c 128,-1,21
 906 -416 906 -416 741 -416 c 2,22,-1
 303 -416 l 2,23,24
 191 -416 191 -416 114 -338.5 c 128,-1,25
 37 -261 37 -261 37 -139 c 0,26,27
 37 20 37 20 188 106 c 1,28,29
 92 166 92 166 92 285 c 0,30,31
 92 360 92 360 141.5 414.5 c 128,-1,32
 191 469 191 469 268 496 c 1,33,34
 125 600 125 600 125 804.5 c 128,-1,35
 125 1009 125 1009 240 1120 c 128,-1,36
 355 1231 355 1231 567 1231 c 0,37,38
 681 1231 681 1231 768 1196 c 1,39,40
 828 1241 828 1241 856.5 1302 c 128,-1,41
 885 1363 885 1363 885 1405 c 1,42,-1
 1112 1405 l 1,4,5
695.5 972 m 128,-1,44
 652 1026 652 1026 568.5 1026 c 128,-1,45
 485 1026 485 1026 442 971.5 c 128,-1,46
 399 917 399 917 399 819.5 c 128,-1,47
 399 722 399 722 442 669 c 128,-1,48
 485 616 485 616 568.5 616 c 128,-1,49
 652 616 652 616 695.5 669 c 128,-1,50
 739 722 739 722 739 820 c 128,-1,43
 739 918 739 918 695.5 972 c 128,-1,44
424 12 m 2,51,52
 378 12 378 12 345.5 -20 c 128,-1,53
 313 -52 313 -52 313 -99.5 c 128,-1,54
 313 -147 313 -147 345 -177 c 128,-1,55
 377 -207 377 -207 424 -207 c 2,56,-1
 731 -207 l 2,57,58
 784 -207 784 -207 820 -177 c 128,-1,59
 856 -147 856 -147 856 -97 c 128,-1,60
 856 -47 856 -47 822.5 -17.5 c 128,-1,61
 789 12 789 12 741 12 c 2,62,-1
 424 12 l 2,51,52
EndSplineSet
EndChar

StartChar: h
Encoding: 104 104 170
Width: 1144
VWidth: 2586
GlyphClass: 2
Flags: W
HStem: 0 43G<127 401 745 1020> 981 250<530 793> 1612 41G<127 401>
VStem: 127 274<0 899 1073 1653> 745 274<0 931>
AnchorPoint: "Anchor-1" 0 0 basechar 0
AnchorPoint: "Anchor-0" 573 1202 basechar 0
LayerCount: 2
Back
Fore
SplineSet
700 1231 m 0,0,1
 848 1231 848 1231 934 1139 c 128,-1,2
 1020 1047 1020 1047 1020 844 c 2,3,-1
 1020 0 l 1,4,-1
 745 0 l 1,5,-1
 745 768 l 2,6,7
 745 881 745 881 705 931 c 128,-1,8
 665 981 665 981 587 981 c 0,9,10
 509 981 509 981 455 911.5 c 128,-1,11
 401 842 401 842 401 739 c 2,12,-1
 401 0 l 1,13,-1
 127 0 l 1,14,-1
 127 1653 l 1,15,-1
 401 1653 l 1,16,-1
 401 1073 l 1,17,18
 448 1140 448 1140 525 1185.5 c 128,-1,19
 602 1231 602 1231 700 1231 c 0,0,1
EndSplineSet
EndChar

StartChar: hbar
Encoding: 295 295 171
Width: 1144
VWidth: 2586
GlyphClass: 2
Flags: W
HStem: 0 43G<127 401 745 1020> 981 250<530 793> 1331 201<0 127 401 700> 1612 41G<127 401>
VStem: 127 274<0 899 1073 1331 1532 1653> 745 274<0 931>
LayerCount: 2
Back
Fore
SplineSet
700 1532 m 1,0,-1
 700 1331 l 1,1,-1
 401 1331 l 1,2,-1
 401 1073 l 1,3,4
 448 1140 448 1140 525 1185.5 c 128,-1,5
 602 1231 602 1231 700 1231 c 0,6,7
 848 1231 848 1231 934 1139 c 128,-1,8
 1020 1047 1020 1047 1020 844 c 2,9,-1
 1020 0 l 1,10,-1
 745 0 l 1,11,-1
 745 768 l 2,12,13
 745 881 745 881 705 931 c 128,-1,14
 665 981 665 981 587 981 c 0,15,16
 509 981 509 981 455 911.5 c 128,-1,17
 401 842 401 842 401 739 c 2,18,-1
 401 0 l 1,19,-1
 127 0 l 1,20,-1
 127 1331 l 1,21,-1
 0 1331 l 1,22,-1
 0 1532 l 1,23,-1
 127 1532 l 1,24,-1
 127 1653 l 1,25,-1
 401 1653 l 1,26,-1
 401 1532 l 1,27,-1
 700 1532 l 1,0,-1
EndSplineSet
EndChar

StartChar: hcircumflex
Encoding: 293 293 172
Width: 1144
VWidth: 2586
GlyphClass: 2
Flags: W
HStem: 0 43G<127 401 745 1020> 981 250<530 793> 1612 41G<127 401>
VStem: 127 274<0 899 1073 1653> 745 274<0 931>
LayerCount: 2
Back
Fore
SplineSet
258 1868 m 1,0,-1
 156 1710 l 1,1,-1
 -49 1710 l 1,2,-1
 147 2019 l 1,3,-1
 371 2019 l 1,4,-1
 563 1710 l 1,5,-1
 360 1710 l 1,6,-1
 258 1868 l 1,0,-1
700 1231 m 0,7,8
 848 1231 848 1231 934 1139 c 128,-1,9
 1020 1047 1020 1047 1020 844 c 2,10,-1
 1020 0 l 1,11,-1
 745 0 l 1,12,-1
 745 768 l 2,13,14
 745 881 745 881 705 931 c 128,-1,15
 665 981 665 981 587 981 c 0,16,17
 509 981 509 981 455 911.5 c 128,-1,18
 401 842 401 842 401 739 c 2,19,-1
 401 0 l 1,20,-1
 127 0 l 1,21,-1
 127 1653 l 1,22,-1
 401 1653 l 1,23,-1
 401 1073 l 1,24,25
 448 1140 448 1140 525 1185.5 c 128,-1,26
 602 1231 602 1231 700 1231 c 0,7,8
EndSplineSet
EndChar

StartChar: i
Encoding: 105 105 173
Width: 522
VWidth: 2586
GlyphClass: 2
Flags: W
HStem: 0 43G<125 399> 1161 41G<125 399> 1405 248<125 399>
VStem: 125 274<0 1202 1405 1653>
LayerCount: 2
Back
Fore
SplineSet
125 1653 m 1,0,-1
 399 1653 l 1,1,-1
 399 1405 l 1,2,-1
 125 1405 l 1,3,-1
 125 1653 l 1,0,-1
125 1202 m 1,4,-1
 399 1202 l 1,5,-1
 399 0 l 1,6,-1
 125 0 l 1,7,-1
 125 1202 l 1,4,-1
EndSplineSet
EndChar

StartChar: dotlessi
Encoding: 305 305 174
Width: 522
VWidth: 2586
GlyphClass: 2
Flags: W
HStem: 0 43G<125 399> 1161 41G<125 399>
VStem: 125 274<0 1202>
AnchorPoint: "Anchor-1" 0 0 basechar 0
AnchorPoint: "Anchor-0" 262 1202 basechar 0
LayerCount: 2
Back
Fore
SplineSet
125 1202 m 1,0,-1
 399 1202 l 1,1,-1
 399 0 l 1,2,-1
 125 0 l 1,3,-1
 125 1202 l 1,0,-1
EndSplineSet
EndChar

StartChar: iacute
Encoding: 237 237 175
Width: 522
VWidth: 2586
GlyphClass: 2
Flags: W
HStem: 0 43G<125 399> 1161 41G<125 399> 1612 41G<274 573>
VStem: 125 274<0 1202>
LayerCount: 2
Back
Fore
SplineSet
332 1350 m 1,0,-1
 104 1350 l 1,1,-1
 301 1653 l 1,2,-1
 573 1653 l 1,3,-1
 332 1350 l 1,0,-1
125 0 m 1,4,-1
 125 1202 l 1,5,-1
 399 1202 l 1,6,-1
 399 0 l 1,7,-1
 125 0 l 1,4,-1
EndSplineSet
EndChar

StartChar: ibreve
Encoding: 301 301 176
Width: 522
VWidth: 2586
GlyphClass: 2
Flags: W
HStem: 0 43G<125 399> 1161 41G<125 399> 1409 168<147 378> 1612 41G<-47 130 396 567>
VStem: 125 274<0 1202>
LayerCount: 2
Back
Fore
SplineSet
567 1653 m 1,0,1
 567 1560 567 1560 481.5 1484.5 c 128,-1,2
 396 1409 396 1409 262 1409 c 128,-1,3
 128 1409 128 1409 40.5 1485 c 128,-1,4
 -47 1561 -47 1561 -47 1653 c 1,5,-1
 127 1653 l 1,6,7
 132 1627 132 1627 170.5 1602 c 128,-1,8
 209 1577 209 1577 262.5 1577 c 0,9,10
 316 1577 316 1577 355 1602 c 128,-1,11
 394 1627 394 1627 399 1653 c 1,12,-1
 567 1653 l 1,0,1
125 1202 m 1,13,-1
 399 1202 l 1,14,-1
 399 0 l 1,15,-1
 125 0 l 1,16,-1
 125 1202 l 1,13,-1
EndSplineSet
EndChar

StartChar: icircumflex
Encoding: 238 238 177
Width: 522
VWidth: 2586
GlyphClass: 2
Flags: W
HStem: 0 43G<125 399> 1161 41G<125 399> 1612 41G<123 401>
VStem: 125 274<0 1202>
LayerCount: 2
Back
Fore
SplineSet
264 1503 m 1,0,-1
 160 1346 l 1,1,-1
 -49 1346 l 1,2,-1
 150 1653 l 1,3,-1
 375 1653 l 1,4,-1
 569 1346 l 1,5,-1
 365 1346 l 1,6,-1
 264 1503 l 1,0,-1
125 1202 m 1,7,-1
 399 1202 l 1,8,-1
 399 0 l 1,9,-1
 125 0 l 1,10,-1
 125 1202 l 1,7,-1
EndSplineSet
EndChar

StartChar: idieresis
Encoding: 239 239 178
Width: 522
VWidth: 2586
GlyphClass: 2
Flags: W
HStem: 0 43G<125 399> 1161 41G<125 399> 1405 248<-51 176 346 578>
VStem: -51 227<1405 1653> 125 274<0 1202> 346 231<1405 1653>
LayerCount: 2
Back
Fore
SplineSet
-51 1405 m 1,0,-1
 -51 1653 l 1,1,-1
 176 1653 l 1,2,-1
 176 1405 l 1,3,-1
 -51 1405 l 1,0,-1
346 1405 m 1,4,-1
 346 1653 l 1,5,-1
 578 1653 l 1,6,-1
 578 1405 l 1,7,-1
 346 1405 l 1,4,-1
125 0 m 1,8,-1
 125 1202 l 1,9,-1
 399 1202 l 1,10,-1
 399 0 l 1,11,-1
 125 0 l 1,8,-1
EndSplineSet
EndChar

StartChar: igrave
Encoding: 236 236 179
Width: 522
VWidth: 2586
GlyphClass: 2
Flags: W
HStem: 0 43G<125 399> 1161 41G<125 399>
VStem: 125 274<0 1202>
LayerCount: 2
Back
Fore
SplineSet
190 1350 m 1,0,-1
 -59 1649 l 1,1,-1
 223 1649 l 1,2,-1
 420 1350 l 1,3,-1
 190 1350 l 1,0,-1
125 0 m 1,4,-1
 125 1202 l 1,5,-1
 399 1202 l 1,6,-1
 399 0 l 1,7,-1
 125 0 l 1,4,-1
EndSplineSet
EndChar

StartChar: ij
Encoding: 307 307 180
Width: 1040
VWidth: 2586
GlyphClass: 2
Flags: W
HStem: -416 229<438 628> -387 201<436 628> 0 43G<125 399> 1161 41G<125 399 643 918> 1405 248<125 399 643 918>
VStem: 125 274<0 1202 1405 1653> 643 274<-167 1202 1405 1653>
LayerCount: 2
Back
Fore
SplineSet
125 1405 m 1,0,-1
 125 1653 l 1,1,-1
 399 1653 l 1,2,-1
 399 1405 l 1,3,-1
 125 1405 l 1,0,-1
643 1405 m 1,4,-1
 643 1653 l 1,5,-1
 918 1653 l 1,6,-1
 918 1405 l 1,7,-1
 643 1405 l 1,4,-1
125 0 m 1,8,-1
 125 1202 l 1,9,-1
 399 1202 l 1,10,-1
 399 0 l 1,11,-1
 125 0 l 1,8,-1
918 -92 m 2,12,13
 918 -156 918 -156 904.5 -210.5 c 128,-1,14
 891 -265 891 -265 861.5 -313 c 128,-1,15
 832 -361 832 -361 775.5 -388.5 c 128,-1,16
 719 -416 719 -416 620 -416 c 0,17,18
 521 -416 521 -416 436 -387 c 1,19,-1
 436 -186 l 1,20,-1
 539 -186 l 2,21,22
 643 -186 643 -186 643 -76 c 2,23,-1
 643 1202 l 1,24,-1
 918 1202 l 1,25,-1
 918 -92 l 2,12,13
EndSplineSet
EndChar

StartChar: imacron
Encoding: 299 299 181
Width: 522
VWidth: 2586
GlyphClass: 2
Flags: W
HStem: 0 43G<125 399> 1161 41G<125 399> 1370 197<-31 553>
VStem: 125 274<0 1202>
LayerCount: 2
Back
Fore
SplineSet
-31 1567 m 1,0,-1
 553 1567 l 1,1,-1
 553 1370 l 1,2,-1
 -31 1370 l 1,3,-1
 -31 1567 l 1,0,-1
125 1202 m 1,4,-1
 399 1202 l 1,5,-1
 399 0 l 1,6,-1
 125 0 l 1,7,-1
 125 1202 l 1,4,-1
EndSplineSet
EndChar

StartChar: iogonek
Encoding: 303 303 182
Width: 522
VWidth: 2586
GlyphClass: 2
Flags: W
HStem: -434 158<346 481> -403 127<346 483> 1161 41G<125 399> 1389 264<139 385>
VStem: 106 221<-258 -68> 125 274<0 1202> 139 246<1389 1653>
LayerCount: 2
Back
Fore
SplineSet
139 1389 m 1,0,-1
 139 1653 l 1,1,-1
 385 1653 l 1,2,-1
 385 1389 l 1,3,-1
 139 1389 l 1,0,-1
350 -72 m 128,-1,5
 328 -115 328 -115 328 -162 c 128,-1,6
 328 -209 328 -209 353.5 -242.5 c 128,-1,7
 379 -276 379 -276 432 -276 c 2,8,-1
 483 -276 l 1,9,-1
 483 -403 l 1,10,11
 398 -434 398 -434 348.5 -434 c 128,-1,12
 299 -434 299 -434 268.5 -428 c 128,-1,13
 238 -422 238 -422 208 -406.5 c 128,-1,14
 178 -391 178 -391 155.5 -368 c 128,-1,15
 133 -345 133 -345 119.5 -309 c 128,-1,16
 106 -273 106 -273 106 -213.5 c 128,-1,17
 106 -154 106 -154 132 -101.5 c 128,-1,18
 158 -49 158 -49 207 0 c 1,19,-1
 125 0 l 1,20,-1
 125 1202 l 1,21,-1
 399 1202 l 1,22,-1
 399 0 l 1,23,4
 372 -29 372 -29 350 -72 c 128,-1,5
EndSplineSet
EndChar

StartChar: itilde
Encoding: 297 297 183
Width: 522
VWidth: 2586
GlyphClass: 2
Flags: W
HStem: 0 43G<125 399> 1161 41G<125 399> 1374 193<265 477> 1458 195<45 260>
VStem: -125 154<1374 1447> 125 274<0 1202> 494 154<1581 1653>
LayerCount: 2
Back
Fore
SplineSet
647 1653 m 1,0,1
 647 1604 647 1604 634 1556.5 c 128,-1,2
 621 1509 621 1509 595 1467 c 128,-1,3
 569 1425 569 1425 524 1399.5 c 128,-1,4
 479 1374 479 1374 423 1374 c 0,5,6
 367 1374 367 1374 269.5 1415.5 c 128,-1,7
 172 1457 172 1457 119 1458 c 0,8,9
 43 1458 43 1458 29 1374 c 1,10,-1
 -125 1374 l 1,11,12
 -125 1424 -125 1424 -112 1471.5 c 128,-1,13
 -99 1519 -99 1519 -73 1560.5 c 128,-1,14
 -47 1602 -47 1602 -2 1627.5 c 128,-1,15
 43 1653 43 1653 101 1653.5 c 0,16,17
 159 1654 159 1654 257 1611.5 c 128,-1,18
 355 1569 355 1569 399.5 1568 c 0,19,20
 444 1567 444 1567 465.5 1586 c 128,-1,21
 487 1605 487 1605 494 1653 c 1,22,-1
 647 1653 l 1,0,1
125 1202 m 1,23,-1
 399 1202 l 1,24,-1
 399 0 l 1,25,-1
 125 0 l 1,26,-1
 125 1202 l 1,23,-1
EndSplineSet
EndChar

StartChar: j
Encoding: 106 106 184
Width: 522
VWidth: 2586
GlyphClass: 2
Flags: W
HStem: -416 229<-84 109> -387 201<-86 109> 1161 41G<125 399> 1405 248<125 399>
VStem: 125 274<-167 1202 1405 1653>
LayerCount: 2
Back
Fore
SplineSet
125 1653 m 1,0,-1
 399 1653 l 1,1,-1
 399 1405 l 1,2,-1
 125 1405 l 1,3,-1
 125 1653 l 1,0,-1
399 -92 m 2,4,5
 399 -156 399 -156 385.5 -210.5 c 128,-1,6
 372 -265 372 -265 341.5 -313 c 128,-1,7
 311 -361 311 -361 254.5 -388.5 c 128,-1,8
 198 -416 198 -416 100.5 -416 c 0,9,10
 3 -416 3 -416 -86 -387 c 1,11,-1
 -86 -186 l 1,12,-1
 16 -186 l 2,13,14
 125 -186 125 -186 125 -76 c 2,15,-1
 125 1202 l 1,16,-1
 399 1202 l 1,17,-1
 399 -92 l 2,4,5
EndSplineSet
EndChar

StartChar: jcircumflex
Encoding: 309 309 185
Width: 522
VWidth: 2586
GlyphClass: 2
Flags: W
HStem: -416 229<-84 109> -387 201<-86 109> 1161 41G<125 399> 1612 41G<127 406>
VStem: 125 274<-167 1202>
LayerCount: 2
Back
Fore
SplineSet
266 1503 m 1,0,-1
 164 1346 l 1,1,-1
 -43 1346 l 1,2,-1
 154 1653 l 1,3,-1
 381 1653 l 1,4,-1
 571 1346 l 1,5,-1
 367 1346 l 1,6,-1
 266 1503 l 1,0,-1
399 -92 m 2,7,8
 399 -156 399 -156 385.5 -210.5 c 128,-1,9
 372 -265 372 -265 341.5 -313 c 128,-1,10
 311 -361 311 -361 254.5 -388.5 c 128,-1,11
 198 -416 198 -416 100.5 -416 c 0,12,13
 3 -416 3 -416 -86 -387 c 1,14,-1
 -86 -186 l 1,15,-1
 16 -186 l 2,16,17
 125 -186 125 -186 125 -76 c 2,18,-1
 125 1202 l 1,19,-1
 399 1202 l 1,20,-1
 399 -92 l 2,7,8
EndSplineSet
EndChar

StartChar: k
Encoding: 107 107 186
Width: 1040
VWidth: 2586
GlyphClass: 2
Flags: W
HStem: 0 43G<125 399 720 1044> 1161 41G<706 1026> 1612 41G<125 399>
VStem: 125 274<0 375 725 1653>
AnchorPoint: "Anchor-1" 522 0 basechar 0
AnchorPoint: "Anchor-0" 0 0 basechar 0
LayerCount: 2
Back
Fore
SplineSet
399 0 m 1,0,-1
 125 0 l 1,1,-1
 125 1653 l 1,2,-1
 399 1653 l 1,3,-1
 399 725 l 1,4,-1
 735 1202 l 1,5,-1
 1026 1202 l 1,6,-1
 670 715 l 1,7,-1
 1044 0 l 1,8,-1
 739 0 l 1,9,-1
 500 500 l 1,10,-1
 399 375 l 1,11,-1
 399 0 l 1,0,-1
EndSplineSet
EndChar

